<mxfile host="Electron" modified="2025-06-01T20:29:28.320Z" agent="Mozilla/5.0 (X11; Linux x86_64) AppleWebKit/537.36 (KHTML, like Gecko) draw.io/22.1.18 Chrome/120.0.6099.199 Electron/28.1.2 Safari/537.36" etag="yGoenr2zWL5R0mTqafbW" version="22.1.18" type="device" pages="2">
  <diagram name="algo-comparison" id="_8tSohUcuuHjWMySPD30">
    <mxGraphModel dx="1923" dy="1184" grid="1" gridSize="10" guides="1" tooltips="1" connect="1" arrows="1" fold="1" page="1" pageScale="1" pageWidth="1169" pageHeight="827" math="0" shadow="0">
      <root>
        <mxCell id="0" />
        <mxCell id="1" parent="0" />
        <mxCell id="aU6csepm1-b9UIz-VRzS-75" value="" style="rounded=0;whiteSpace=wrap;html=1;strokeColor=none;fillColor=#FFB570;opacity=30;" parent="1" vertex="1">
          <mxGeometry x="480" y="320" width="80" height="80" as="geometry" />
        </mxCell>
        <mxCell id="aU6csepm1-b9UIz-VRzS-7" value="" style="group" parent="1" vertex="1" connectable="0">
          <mxGeometry x="410" y="250" width="29.19" height="40" as="geometry" />
        </mxCell>
        <mxCell id="aU6csepm1-b9UIz-VRzS-3" value="" style="sketch=0;aspect=fixed;pointerEvents=1;shadow=0;dashed=0;html=1;strokeColor=none;labelPosition=center;verticalLabelPosition=bottom;verticalAlign=top;align=center;fillColor=#000000;shape=mxgraph.mscae.enterprise.wireless_connection" parent="aU6csepm1-b9UIz-VRzS-7" vertex="1">
          <mxGeometry x="5.513666666666691" width="18.162162162162165" height="21.62162162162162" as="geometry" />
        </mxCell>
        <mxCell id="aU6csepm1-b9UIz-VRzS-6" value="" style="sketch=0;pointerEvents=1;shadow=0;dashed=0;html=1;strokeColor=none;fillColor=#000000;labelPosition=center;verticalLabelPosition=bottom;verticalAlign=top;outlineConnect=0;align=center;shape=mxgraph.office.devices.modem;" parent="aU6csepm1-b9UIz-VRzS-7" vertex="1">
          <mxGeometry y="21.62162162162162" width="29.19" height="18.37837837837838" as="geometry" />
        </mxCell>
        <mxCell id="aU6csepm1-b9UIz-VRzS-13" value="" style="group" parent="1" vertex="1" connectable="0">
          <mxGeometry x="530" y="240" width="45.860000000000014" height="110" as="geometry" />
        </mxCell>
        <mxCell id="aU6csepm1-b9UIz-VRzS-11" value="" style="shape=mxgraph.signs.people.man_1;html=1;pointerEvents=1;fillColor=#000000;strokeColor=none;verticalLabelPosition=bottom;verticalAlign=top;align=center;" parent="aU6csepm1-b9UIz-VRzS-13" vertex="1">
          <mxGeometry width="37" height="98" as="geometry" />
        </mxCell>
        <mxCell id="aU6csepm1-b9UIz-VRzS-12" value="" style="sketch=0;pointerEvents=1;shadow=0;dashed=0;html=1;strokeColor=none;fillColor=#000000;labelPosition=center;verticalLabelPosition=bottom;verticalAlign=top;outlineConnect=0;align=center;shape=mxgraph.office.devices.cell_phone_iphone_proportional;rotation=40;" parent="aU6csepm1-b9UIz-VRzS-13" vertex="1">
          <mxGeometry x="37" y="44" width="5.86" height="10" as="geometry" />
        </mxCell>
        <mxCell id="aU6csepm1-b9UIz-VRzS-79" value="" style="group" parent="aU6csepm1-b9UIz-VRzS-13" vertex="1" connectable="0">
          <mxGeometry x="11" y="89" width="15" height="15" as="geometry" />
        </mxCell>
        <mxCell id="aU6csepm1-b9UIz-VRzS-77" value="" style="endArrow=none;html=1;rounded=0;strokeColor=#CC0000;strokeWidth=2;" parent="aU6csepm1-b9UIz-VRzS-79" edge="1">
          <mxGeometry width="50" height="50" relative="1" as="geometry">
            <mxPoint y="15" as="sourcePoint" />
            <mxPoint x="15" as="targetPoint" />
          </mxGeometry>
        </mxCell>
        <mxCell id="aU6csepm1-b9UIz-VRzS-78" value="" style="endArrow=none;html=1;rounded=0;strokeColor=#CC0000;strokeWidth=2;" parent="aU6csepm1-b9UIz-VRzS-79" edge="1">
          <mxGeometry width="50" height="50" relative="1" as="geometry">
            <mxPoint x="15" y="15" as="sourcePoint" />
            <mxPoint as="targetPoint" />
          </mxGeometry>
        </mxCell>
        <mxCell id="aU6csepm1-b9UIz-VRzS-67" value="" style="group" parent="1" vertex="1" connectable="0">
          <mxGeometry x="420" y="353.06" width="29.19" height="40" as="geometry" />
        </mxCell>
        <mxCell id="aU6csepm1-b9UIz-VRzS-68" value="" style="sketch=0;aspect=fixed;pointerEvents=1;shadow=0;dashed=0;html=1;strokeColor=none;labelPosition=center;verticalLabelPosition=bottom;verticalAlign=top;align=center;fillColor=#000000;shape=mxgraph.mscae.enterprise.wireless_connection" parent="aU6csepm1-b9UIz-VRzS-67" vertex="1">
          <mxGeometry x="5.513666666666691" width="18.162162162162165" height="21.62162162162162" as="geometry" />
        </mxCell>
        <mxCell id="aU6csepm1-b9UIz-VRzS-69" value="" style="sketch=0;pointerEvents=1;shadow=0;dashed=0;html=1;strokeColor=none;fillColor=#000000;labelPosition=center;verticalLabelPosition=bottom;verticalAlign=top;outlineConnect=0;align=center;shape=mxgraph.office.devices.modem;" parent="aU6csepm1-b9UIz-VRzS-67" vertex="1">
          <mxGeometry y="21.62162162162162" width="29.19" height="18.37837837837838" as="geometry" />
        </mxCell>
        <mxCell id="aU6csepm1-b9UIz-VRzS-70" value="" style="group" parent="1" vertex="1" connectable="0">
          <mxGeometry x="600" y="250" width="29.19" height="40" as="geometry" />
        </mxCell>
        <mxCell id="aU6csepm1-b9UIz-VRzS-71" value="" style="sketch=0;aspect=fixed;pointerEvents=1;shadow=0;dashed=0;html=1;strokeColor=none;labelPosition=center;verticalLabelPosition=bottom;verticalAlign=top;align=center;fillColor=#000000;shape=mxgraph.mscae.enterprise.wireless_connection" parent="aU6csepm1-b9UIz-VRzS-70" vertex="1">
          <mxGeometry x="5.513666666666691" width="18.162162162162165" height="21.62162162162162" as="geometry" />
        </mxCell>
        <mxCell id="aU6csepm1-b9UIz-VRzS-72" value="" style="sketch=0;pointerEvents=1;shadow=0;dashed=0;html=1;strokeColor=none;fillColor=#000000;labelPosition=center;verticalLabelPosition=bottom;verticalAlign=top;outlineConnect=0;align=center;shape=mxgraph.office.devices.modem;" parent="aU6csepm1-b9UIz-VRzS-70" vertex="1">
          <mxGeometry y="21.62162162162162" width="29.19" height="18.37837837837838" as="geometry" />
        </mxCell>
        <mxCell id="aU6csepm1-b9UIz-VRzS-22" value="" style="endArrow=none;html=1;rounded=0;opacity=20;" parent="1" edge="1">
          <mxGeometry width="50" height="50" relative="1" as="geometry">
            <mxPoint x="400" y="240" as="sourcePoint" />
            <mxPoint x="640" y="240" as="targetPoint" />
          </mxGeometry>
        </mxCell>
        <mxCell id="aU6csepm1-b9UIz-VRzS-63" value="" style="endArrow=none;html=1;rounded=0;opacity=20;" parent="1" edge="1">
          <mxGeometry width="50" height="50" relative="1" as="geometry">
            <mxPoint x="400" y="320" as="sourcePoint" />
            <mxPoint x="640" y="320" as="targetPoint" />
          </mxGeometry>
        </mxCell>
        <mxCell id="aU6csepm1-b9UIz-VRzS-64" value="" style="endArrow=none;html=1;rounded=0;opacity=20;" parent="1" edge="1">
          <mxGeometry width="50" height="50" relative="1" as="geometry">
            <mxPoint x="400" y="400" as="sourcePoint" />
            <mxPoint x="640" y="400" as="targetPoint" />
          </mxGeometry>
        </mxCell>
        <mxCell id="aU6csepm1-b9UIz-VRzS-130" value="" style="group" parent="1" vertex="1" connectable="0">
          <mxGeometry x="910" y="250" width="29.19" height="40" as="geometry" />
        </mxCell>
        <mxCell id="aU6csepm1-b9UIz-VRzS-131" value="" style="sketch=0;aspect=fixed;pointerEvents=1;shadow=0;dashed=0;html=1;strokeColor=none;labelPosition=center;verticalLabelPosition=bottom;verticalAlign=top;align=center;fillColor=#000000;shape=mxgraph.mscae.enterprise.wireless_connection" parent="aU6csepm1-b9UIz-VRzS-130" vertex="1">
          <mxGeometry x="5.513666666666691" width="18.162162162162165" height="21.62162162162162" as="geometry" />
        </mxCell>
        <mxCell id="aU6csepm1-b9UIz-VRzS-132" value="" style="sketch=0;pointerEvents=1;shadow=0;dashed=0;html=1;strokeColor=none;fillColor=#000000;labelPosition=center;verticalLabelPosition=bottom;verticalAlign=top;outlineConnect=0;align=center;shape=mxgraph.office.devices.modem;" parent="aU6csepm1-b9UIz-VRzS-130" vertex="1">
          <mxGeometry y="21.62162162162162" width="29.19" height="18.37837837837838" as="geometry" />
        </mxCell>
        <mxCell id="aU6csepm1-b9UIz-VRzS-133" value="" style="group" parent="1" vertex="1" connectable="0">
          <mxGeometry x="1030" y="240" width="45.860000000000014" height="110" as="geometry" />
        </mxCell>
        <mxCell id="aU6csepm1-b9UIz-VRzS-134" value="" style="shape=mxgraph.signs.people.man_1;html=1;pointerEvents=1;fillColor=#000000;strokeColor=none;verticalLabelPosition=bottom;verticalAlign=top;align=center;" parent="aU6csepm1-b9UIz-VRzS-133" vertex="1">
          <mxGeometry width="37" height="98" as="geometry" />
        </mxCell>
        <mxCell id="aU6csepm1-b9UIz-VRzS-135" value="" style="sketch=0;pointerEvents=1;shadow=0;dashed=0;html=1;strokeColor=none;fillColor=#000000;labelPosition=center;verticalLabelPosition=bottom;verticalAlign=top;outlineConnect=0;align=center;shape=mxgraph.office.devices.cell_phone_iphone_proportional;rotation=40;" parent="aU6csepm1-b9UIz-VRzS-133" vertex="1">
          <mxGeometry x="37" y="44" width="5.86" height="10" as="geometry" />
        </mxCell>
        <mxCell id="aU6csepm1-b9UIz-VRzS-136" value="" style="group" parent="aU6csepm1-b9UIz-VRzS-133" vertex="1" connectable="0">
          <mxGeometry x="11" y="89" width="15" height="15" as="geometry" />
        </mxCell>
        <mxCell id="aU6csepm1-b9UIz-VRzS-137" value="" style="endArrow=none;html=1;rounded=0;strokeColor=#CC0000;strokeWidth=2;" parent="aU6csepm1-b9UIz-VRzS-136" edge="1">
          <mxGeometry width="50" height="50" relative="1" as="geometry">
            <mxPoint y="15" as="sourcePoint" />
            <mxPoint x="15" as="targetPoint" />
          </mxGeometry>
        </mxCell>
        <mxCell id="aU6csepm1-b9UIz-VRzS-138" value="" style="endArrow=none;html=1;rounded=0;strokeColor=#CC0000;strokeWidth=2;" parent="aU6csepm1-b9UIz-VRzS-136" edge="1">
          <mxGeometry width="50" height="50" relative="1" as="geometry">
            <mxPoint x="15" y="15" as="sourcePoint" />
            <mxPoint as="targetPoint" />
          </mxGeometry>
        </mxCell>
        <mxCell id="aU6csepm1-b9UIz-VRzS-139" value="" style="group" parent="1" vertex="1" connectable="0">
          <mxGeometry x="920" y="353" width="29.19" height="40" as="geometry" />
        </mxCell>
        <mxCell id="aU6csepm1-b9UIz-VRzS-140" value="" style="sketch=0;aspect=fixed;pointerEvents=1;shadow=0;dashed=0;html=1;strokeColor=none;labelPosition=center;verticalLabelPosition=bottom;verticalAlign=top;align=center;fillColor=#000000;shape=mxgraph.mscae.enterprise.wireless_connection" parent="aU6csepm1-b9UIz-VRzS-139" vertex="1">
          <mxGeometry x="5.513666666666691" width="18.162162162162165" height="21.62162162162162" as="geometry" />
        </mxCell>
        <mxCell id="aU6csepm1-b9UIz-VRzS-141" value="" style="sketch=0;pointerEvents=1;shadow=0;dashed=0;html=1;strokeColor=none;fillColor=#000000;labelPosition=center;verticalLabelPosition=bottom;verticalAlign=top;outlineConnect=0;align=center;shape=mxgraph.office.devices.modem;" parent="aU6csepm1-b9UIz-VRzS-139" vertex="1">
          <mxGeometry y="21.62162162162162" width="29.19" height="18.37837837837838" as="geometry" />
        </mxCell>
        <mxCell id="aU6csepm1-b9UIz-VRzS-142" value="" style="group" parent="1" vertex="1" connectable="0">
          <mxGeometry x="1100" y="250" width="29.19" height="40" as="geometry" />
        </mxCell>
        <mxCell id="aU6csepm1-b9UIz-VRzS-143" value="" style="sketch=0;aspect=fixed;pointerEvents=1;shadow=0;dashed=0;html=1;strokeColor=none;labelPosition=center;verticalLabelPosition=bottom;verticalAlign=top;align=center;fillColor=#000000;shape=mxgraph.mscae.enterprise.wireless_connection" parent="aU6csepm1-b9UIz-VRzS-142" vertex="1">
          <mxGeometry x="5.513666666666691" width="18.162162162162165" height="21.62162162162162" as="geometry" />
        </mxCell>
        <mxCell id="aU6csepm1-b9UIz-VRzS-144" value="" style="sketch=0;pointerEvents=1;shadow=0;dashed=0;html=1;strokeColor=none;fillColor=#000000;labelPosition=center;verticalLabelPosition=bottom;verticalAlign=top;outlineConnect=0;align=center;shape=mxgraph.office.devices.modem;" parent="aU6csepm1-b9UIz-VRzS-142" vertex="1">
          <mxGeometry y="21.62162162162162" width="29.19" height="18.37837837837838" as="geometry" />
        </mxCell>
        <mxCell id="aU6csepm1-b9UIz-VRzS-145" value="" style="endArrow=none;html=1;rounded=0;opacity=20;" parent="1" edge="1">
          <mxGeometry width="50" height="50" relative="1" as="geometry">
            <mxPoint x="900" y="240" as="sourcePoint" />
            <mxPoint x="1140" y="240" as="targetPoint" />
          </mxGeometry>
        </mxCell>
        <mxCell id="aU6csepm1-b9UIz-VRzS-148" value="" style="endArrow=none;html=1;rounded=0;opacity=20;" parent="1" edge="1">
          <mxGeometry width="50" height="50" relative="1" as="geometry">
            <mxPoint x="900" y="400" as="sourcePoint" />
            <mxPoint x="1140" y="400" as="targetPoint" />
          </mxGeometry>
        </mxCell>
        <mxCell id="aU6csepm1-b9UIz-VRzS-154" value="" style="shape=mxgraph.signs.healthcare.brain;html=1;pointerEvents=1;fillColor=#000000;strokeColor=none;verticalLabelPosition=bottom;verticalAlign=top;align=center;" parent="1" vertex="1">
          <mxGeometry x="1030" y="370" width="23.06" height="20" as="geometry" />
        </mxCell>
        <mxCell id="aU6csepm1-b9UIz-VRzS-155" value="" style="ellipse;whiteSpace=wrap;html=1;aspect=fixed;fillColor=#FFB570;opacity=30;strokeColor=none;" parent="1" vertex="1">
          <mxGeometry x="1030" y="330" width="23.06" height="23.06" as="geometry" />
        </mxCell>
        <mxCell id="aU6csepm1-b9UIz-VRzS-157" value="" style="endArrow=none;html=1;rounded=0;dashed=1;endFill=0;opacity=30;" parent="1" target="aU6csepm1-b9UIz-VRzS-154" edge="1">
          <mxGeometry width="50" height="50" relative="1" as="geometry">
            <mxPoint x="940" y="300" as="sourcePoint" />
            <mxPoint x="1160" y="370" as="targetPoint" />
          </mxGeometry>
        </mxCell>
        <mxCell id="aU6csepm1-b9UIz-VRzS-158" value="" style="endArrow=none;html=1;rounded=0;dashed=1;endFill=0;opacity=30;" parent="1" target="aU6csepm1-b9UIz-VRzS-154" edge="1">
          <mxGeometry width="50" height="50" relative="1" as="geometry">
            <mxPoint x="960" y="380" as="sourcePoint" />
            <mxPoint x="1040" y="381" as="targetPoint" />
          </mxGeometry>
        </mxCell>
        <mxCell id="aU6csepm1-b9UIz-VRzS-159" value="" style="endArrow=none;html=1;rounded=0;dashed=1;endFill=0;opacity=30;" parent="1" target="aU6csepm1-b9UIz-VRzS-154" edge="1">
          <mxGeometry width="50" height="50" relative="1" as="geometry">
            <mxPoint x="1110" y="300" as="sourcePoint" />
            <mxPoint x="1041" y="400" as="targetPoint" />
          </mxGeometry>
        </mxCell>
        <mxCell id="aU6csepm1-b9UIz-VRzS-161" value="" style="endArrow=classic;html=1;rounded=0;" parent="1" source="aU6csepm1-b9UIz-VRzS-154" target="aU6csepm1-b9UIz-VRzS-155" edge="1">
          <mxGeometry width="50" height="50" relative="1" as="geometry">
            <mxPoint x="1050" y="390" as="sourcePoint" />
            <mxPoint x="1100" y="340" as="targetPoint" />
          </mxGeometry>
        </mxCell>
        <mxCell id="aU6csepm1-b9UIz-VRzS-162" value="&lt;font style=&quot;font-size: 14px;&quot;&gt;a) Fingerprinting algorithms&lt;/font&gt;" style="text;html=1;align=center;verticalAlign=middle;resizable=0;points=[];autosize=1;strokeColor=none;fillColor=none;" parent="1" vertex="1">
          <mxGeometry x="430" y="399" width="190" height="30" as="geometry" />
        </mxCell>
        <mxCell id="aU6csepm1-b9UIz-VRzS-163" value="&lt;font style=&quot;font-size: 14px;&quot;&gt;b) Geometric algorithms&lt;/font&gt;" style="text;html=1;align=center;verticalAlign=middle;resizable=0;points=[];autosize=1;strokeColor=none;fillColor=none;" parent="1" vertex="1">
          <mxGeometry x="689.02" y="400" width="170" height="30" as="geometry" />
        </mxCell>
        <mxCell id="aU6csepm1-b9UIz-VRzS-164" value="&lt;font style=&quot;font-size: 14px;&quot;&gt;c) Learned algorithms&lt;br&gt;&lt;/font&gt;" style="text;html=1;align=center;verticalAlign=middle;resizable=0;points=[];autosize=1;strokeColor=none;fillColor=none;" parent="1" vertex="1">
          <mxGeometry x="949.19" y="400" width="160" height="30" as="geometry" />
        </mxCell>
        <mxCell id="aU6csepm1-b9UIz-VRzS-165" value="" style="group" parent="1" vertex="1" connectable="0">
          <mxGeometry x="400" y="240" width="240" height="160" as="geometry" />
        </mxCell>
        <mxCell id="aU6csepm1-b9UIz-VRzS-51" value="" style="endArrow=none;html=1;rounded=0;opacity=20;" parent="aU6csepm1-b9UIz-VRzS-165" edge="1">
          <mxGeometry width="50" height="50" relative="1" as="geometry">
            <mxPoint x="240" y="160" as="sourcePoint" />
            <mxPoint x="240" as="targetPoint" />
          </mxGeometry>
        </mxCell>
        <mxCell id="aU6csepm1-b9UIz-VRzS-53" value="" style="endArrow=none;html=1;rounded=0;opacity=20;" parent="aU6csepm1-b9UIz-VRzS-165" edge="1">
          <mxGeometry width="50" height="50" relative="1" as="geometry">
            <mxPoint x="160" y="160" as="sourcePoint" />
            <mxPoint x="160" as="targetPoint" />
          </mxGeometry>
        </mxCell>
        <mxCell id="aU6csepm1-b9UIz-VRzS-55" value="" style="endArrow=none;html=1;rounded=0;opacity=20;" parent="aU6csepm1-b9UIz-VRzS-165" edge="1">
          <mxGeometry width="50" height="50" relative="1" as="geometry">
            <mxPoint x="80" y="160" as="sourcePoint" />
            <mxPoint x="80" as="targetPoint" />
          </mxGeometry>
        </mxCell>
        <mxCell id="aU6csepm1-b9UIz-VRzS-57" value="" style="endArrow=none;html=1;rounded=0;opacity=20;" parent="aU6csepm1-b9UIz-VRzS-165" edge="1">
          <mxGeometry width="50" height="50" relative="1" as="geometry">
            <mxPoint y="160" as="sourcePoint" />
            <mxPoint as="targetPoint" />
          </mxGeometry>
        </mxCell>
        <mxCell id="aU6csepm1-b9UIz-VRzS-126" value="" style="endArrow=none;html=1;rounded=0;opacity=20;" parent="1" edge="1">
          <mxGeometry width="50" height="50" relative="1" as="geometry">
            <mxPoint x="1140" y="400" as="sourcePoint" />
            <mxPoint x="1140" y="240" as="targetPoint" />
          </mxGeometry>
        </mxCell>
        <mxCell id="aU6csepm1-b9UIz-VRzS-129" value="" style="endArrow=none;html=1;rounded=0;opacity=20;" parent="1" edge="1">
          <mxGeometry width="50" height="50" relative="1" as="geometry">
            <mxPoint x="900" y="400" as="sourcePoint" />
            <mxPoint x="900" y="240" as="targetPoint" />
          </mxGeometry>
        </mxCell>
        <mxCell id="aU6csepm1-b9UIz-VRzS-168" value="" style="shape=image;aspect=fixed;image=data:image/png,iVBORw0KGgoAAAANSUhEUgAAAtwAAAHpCAYAAACx9uvqAAAiCnpUWHRSYXcgcHJvZmlsZSB0eXBlIGV4aWYAAHjapZtnliSxca3/YxVaAlzALAf2HO3gLV/fRXUPx1Ek9ca0zcoEEBHXBFDu/L//vu6/+NOiLy5bbaWX4vmTe+5x8EXznz/jfQw+v4/vz14+fv30l5+707++jHxOfE6fX7Ty+Ry+f/71gu/PYfCV/XSjtr5+MX/9Rc+fz7H9dqPPeHzSiPT1/rpR/7pRip9fhK8bjM+0fOmt/jyFeb6m+HXftwz8d/qQ26/D/uP7yupt4zkpxpNC8nxM6WsASf/NpcEXxseYOhcGPg8+Bj5aCl83Y0H+tk4//nRGdDXU/NeLfonKj69+i9aYX2v0e7Ry/Lok/bbI5cfnv/7cBfvtF+nH8+PPT87tR5r88vN5w/mM6LfV1/97d7tvzsxi5MJSl69JfU/xfcV1TCzr0c0xtOIr/41b1Pe387eR1YtU2H75yd8VeoiE64YcdhiBcbzPKyyGmONxsfJFjCum98OWauxxJcUv62+4saaedmrEc72w5xR/jCW8x3a/3Hta48k7cGkM3Ewp8B//df/pC+5VKYSgtRzzrRXjilGLzTAUOX3kMiIS7tei2lvg77+//1FcExE0rbJKpLOw83OLaeEfSJBeoBMXGp8/NRjq/roBS8SjjcFQBzkQtZAslOBrjDUEFrIRoMHQY8pxEoFgFjeDjDmlQmyAMR7NS2p4l0aL/Njxc8CMSFgqqRKbngbBytnIn5obOTQsWTazYtWadRsllVyslFKLQHHUVLOrVkuttdVeR0stN2ul1dZab6PHngBN66XX3nrvY/DMwZ0Hrx5cMMaMM808zc0y62yzz7FIn5WXrbLqaquvseNOG/zYZdfddt/jhEMqnXzslFNPO/2MS6rd5G6+dsutt91+x4+ofYX1j7//QdTCV9Tii5QurD+ixk9r/b5FEJyYYkbAosuBiFeFgISOiplvIeeoyClmvkeqwiKDNMVsB0WMCOYTot3wHTsXPxFV5P6/4uZq/iVu8f8aOafQ/YeR+zNuf4vaFg2tF7FPFWpRfaL6brWcQ9x6zC31dhMOph54JSVyVhn5zpTrmbHefbnqhlEWBaxECNXu4Sl3e1ap8ZhWz6Jkxuq6ot4weU1zv99D3KNp27XdmHxGF4QwM68dvV4mGmZrt8DYcTZd/7mB+2kUa+5SNjMO7aS5pq/d7iKKPe5b+8pj7jtPjWla6SzXXqkyyWA7e7fnYJqkGTcf/bRNOG+ckS8WkRpEe9Vq5VzQoByw7VbWPJxV++GG6Wuejol+TXOGyMhP2b5QPgaE5FJn7J7wnN1JKU2k7FxvCjY7YUx+b0aSiZYD93tIbQGb5+YNL4xUtpUV6+4jXeuJxT7MofHkUtrdhTtOvuWnJGrIrcdw3R/xSn+JCbmHvOHyf361+7cuX3dXUnKBf3NOZtlZYFar59vbXiEtFNs9o0xjZnUZ9KY0h8Xu6MSt51zCPYpcIn5mK9hhKj3NyCx3t8lj/Z63cyNyZR4bfEEhkvupn2vp/rFCeVPGwMOCbu0TsEDGbzt8U10/ZeZaTu9G/k8k1Ko8OqwLEAS7yZeBUOhMknwcYEENZQ6wooFRlxSBFlocjuUaC9BhUYyRsFo1l0lqzhOGnWh9zMnlMw5bk19Rv1bTpFC8P5Xku6iC5l2ifG/L6Ya05yok3Glz7BrGWBb41QGUioXqAY8DZDa/uLKNa/PnqLjv+rq9Jj2jUQyVuXgwLLQRy52MCrlRjEkhshEYoR6gjNnGeSjMV8fuR9J8l/GfwadOfiv6v1zr/pOL/7dr3T+5uJH9hDvlPVG7x69M/Nr1ysOTx0Ax1dNBbd9Bit6QNf2wkDesNgKYBww8hABQ55mFQf0oL+nFV2CZIEZrPafBS/mogLiS9qrEVOMlmsjyVzTk9s2RgiSO7yftEkwmseo9LUZCihsiWxMQPhU1EHX4NsAM3AMVXyKAT2a3mk9HHBKuEnq2PWoATNJtZJHBaHlHKoskPKFQgeL+leArHxKpPsimSBp13W4YUDN7ReAU4HXBpwidi2oDP9Zac1iePk/grxxn/cC6D6L3TvGEfEhYgG0MqglEILnP9RAMwzEqa+abeUljhJFEv3t7FGpzjJcUtUYFrrV3nqMVKj+3ds4pXFbqYGboVWI89gEOkWSjLrgedFkGjJzWEVq3aoilMESyFZ5Mj4hGiCQ4ZZ1DNg/lJrAX4GRUE7gduwGwM/qaE6Juezc60UkzQEDcvO4BycAHjKujCVhBBRyjpfGF0xZItdPgfjv3Ue8M+zKKddxt6AIuJoYTFjm8GG0y+RGZMi6TyhbR9JSd8jnOficryvDbjosYH4Z59naDl+0JccWmjCZHuHT7Pon1AEwoUETETdnABvjAV42pdAQ+ioTI4e88OeB2UbxSXakrmgONAiLBNdzjolMolIujqZUci8IjIoBAEHhyMYoDei9tIbRi3DFOZsuq+npuYrUDiZf9XBV8LYARBmPds6MxPykc1iVM8pWJ+YTFj7E7arCvewEtHGl+mMpCkjosEPoF8KzYHaonHtjzUr1D92+2wEZugu6BU09ybeR+9mFlowXCVWqOsKQ0l2QUissnbpALigRr1clNa3Gji8g8z+D4OqyzuBFIzw9JNGMZ1q4VR77Fq4fal6qJoHGGhPkyISVq2Btag8yJKXqWF6+KPiI4wDfFN7ORm4UqIvcWcDQopwZisEpRNLga5XtPpbzJYgvWIAiKZhhPdytsEUkH1CM0Q22c3FOhuBf5TtEBNrMMmaqXS3xeu1cYNWv5CeWJUO92E/SKMAb5RK1i4LV80peom6IY7h3JSp4KA7Buu2EVx2iIkNb3lehYVsd2hIhiEHcV+POcnNDcPXjyHAWEcgRQqdVQqPIN9bG0kUpDZaWlxaVuD1nVSch6UV08SSBFtud94qro2FQr6InigT4zq1zgvqWnNpM2Y2qs7sDMkSujOnSxnwd0GV4ygTxHt07K0e6WEdhPb/yEww+F1WgIXEl8gNvRKvroQCf4vHGAMdaoXhQ2YUAsfl6AGVQ5y1GQfggShAY6pFF42Y+Sv9Sv+1X+IoeBY5skHGAVTp3oUVQZzhCSrVGlFfyJg4DxYxISbAD5PGI0Yx8oUJYRritgTS9ke1BHq+NWBPbRVARzJ11TPtRIybBkZQzMTfYLqG3Asz3CgdW08qh5QFifqc04GBOLSsh73UAhMBEybIZ9ypkIJtLTDHmMcCCbMSk78ZGcRlWBMCXxAFChI6cQH6EDqsLvmge2yjbmH/vVBE3jKkYOz7cQxBAQLswGC8XEfC4JQ4J9Jj1RhIMaGaikMO0DmbAmSYvwQuBjkig4Z5B0hK+TKM2wO1QRVIQB5CJK48AXBgK2uXLMyJkCR6uRklGWauowsUtGOJvgNwXGvagCBjsJX0uF70mxKFBE/UPTtxAHv/ZiVtzj8IqJ/oTvIGqKdp5DUsWuB18ohJVeMLGafQECJpE3TpV8bBBfndjXLYITBmK6qDvWUpbPtQkGjoAr8BPKPYDI2KEcoQYah1GQ9BKTJC5jhkOZlhfNZZLsQE/UHLd1IuG4Z2mBnPANUYsSXY0kDQctQ84Ew62CTG1aV2spT6V46gaAQC9Y21x8xq7vJKyFyk2MVg78Ad6vCEgi2ddJQ+hTyY0N/eBAI+nI46CLp5oW/nGWZyHG9e9H0NlAXkYpU4xYowo7bhnSuHb8q8lkYhWiG59XWY35SyUjRkGaiyOCM9aQ4icEuiTGx3X4IM9Ioc+DpXgA+S461GpECz8RdgEpx0+QUrpoQoWH+IMm0kz3uTOPjb9dEhg9xnqh/ldHIeHJMDoN/YZB4+9xyAOZUEILZxGlDEcQz91VkPKkEdaQ6AY0vLJa0g6/R015SniqeVujblRkr2RU6r57kvENk5QSdEsik5igALCp7hNuC3MDPkoGYyqA0WsYAhXcdOQWLICpAWYGeniKIpE3wNwVxONNEID7ct8gmAydDANsDtkO8PJENWdudCeWOJRjC7yaPX0BSv8LoBD+pN6B1c6t18KZSuBpEr27wHMkZahDzK7lIWMWEikCxWGUBHpom6aGAzDABKFQEoFiEOZThDwCLKT6txoaAwGHe2TqAgoSDKwWSAKlsPPLGVwfejoLlAGgiDTf8HoiZo0idv+Q3F+Ke+HZkAizAsWnV7+sVN8Fzkj94FGlSMGnd3b+qe3hfu57cHs8AVhC1neWDYfvxXnMC1PXA6za4sK3HlABkTwz2QSm13gpWq+7yLnuz/0xt6BGXQL4M/E2UwoEb+an6iZdeR9yTMqj1N5nQj2lihfhaVO8jLeEZA5aCEOB4aFo1JpgdSleGW1mRbB5EgUI53cgECdcOgW2hlv8EPQioVkDhCfgjvbMOBkyN/fu50Np7XN8f94VgiWC511qADxTcnr6ErcBVAURioUGhy9LvU+GdNH+4QLQkiGCmsWcI7gHiEb1y4DRgRwfDvjD+ZECePVu01KREDwIa+SgNC2ygcqhjgv0GfAHT6Y02B0neFAieBjW0FHdyWYQmFGEBCOwKmjuCOfA8BdJC+gR1Kz/wMvQJlGShjIAUmUhYT0QWh0A2yMcwgItovmjiJHXg+kdsQ34TB52k/RFn7KJPA39jnylVMpaavi4DMmmp68rQxBA7iFL1ig736SJiPWFKAkFVhbOxWUsKNmn8Jkh7ge56AqVK1fGfTJQqiIN6XWkoEb1PgR2wKsalTzeoPxwDMeW0L6k0a4oLkLhNiaM4ONTWLq+S2skdJGDQsKo/pNHIC8p1XWnujWgPSBgFSu+3gpuBhqd7IUmm/ZFVUticns8Sydz19wUHM97OY+PEe7y1QEHAeuU7Bj6CVXV8LQnJGAWyfZglkzcJuOEvIeJWl8d1gerOhayYfEwuF1SY15fCr5G3Y3rx3QU9TXD1TA8JEkChYaazAuc5QWsv8lKChAAv1OFVVg62MJ2RIt4+K2n1/RtXT4k+mJNwnEA+x5bx3gSS3vEOfk5D4ITQslReHBQGoglWB7hiePd0FFFOgQpkleNPxR+6kWt1g4poPJTeSlLcSFG94TCtKNxXuabsMHN3j+9hU+XD/kCVSO78SsE9IJNOAnsyIEhMlrmoHuPSm7+0Lyv2eEENQWrdRdBgRbkoUn0EhlhQHyERWhwowlkOzKbYMA9iNeEid6Y5YkUxNu4rQaEWrp5yTpABdLDnRIFSXSNKvlblT9RLivvZVnjz1juvsHc1ElHL8A0RnK0p8R/6kJ/kBQ8Zu3/JuodsrxC2BgW8iIL07LhR1jdXiiC3UBbHjMvdVf4TjSAuUetUlkzXmqEEbQDQcINsuods1xRhNgZFAl04uGhEOH7s4HDfAytDVahz0oVNudZpfC1CXH7dEgRjOvGOBXQonYM74yJKuB1KYDfmDuSNkCUCO1DwAvaIqLPoBBTNyjKnC5HnlPd6JIRD4qj+J3iklqZgWQYslvqfC0AiFzEy6CpIxjZqPXBCP3ChRdvDtBL7fmIiPVipHyLhCUSTGDOSub1BZ8RN+uq4it9ytAgHI+p9ODZvAh2LDqi3icMlCytBcwtql3dilulmqDbTB4K5iQ/Fs4Eg0IJLsCI8lhE2vxxgTmzfrFWq9rHQRKZdlJbZwQsxogYgyWFjatG80c5aaTgmTNpO28ldGnOxR346IJk6i6eG3N5jq2Tp75gfVCHM0FiL5MQHUjCBtsfFFwA22WbIaERzGl/H4GN8Ag2qJNBEXTBLVpTz+yArj369C3cbklIj3mLCDu18Mh4HygYjB9UVFGCSOuzmTpKIaCW4UK041CH4mOIyJakTkt6GT/VprgoONBTUvy4cqlnot0ybqR/lCwCX1sLlK4ajbdq++PaYv1uX7gA9LRUbVdzUp1zSCI62Lx2Q251tTMIwtGSIqGgIKyWCYou3LDkHx5ksMAIkvFoSrsX51KGF6GF3MUmXfHKg3aVR0FmqOMKBZPt8Mge6APoXJuQ9ZlxGSREYIYmNiF2SJepRj6CgJVFBWhvjgXj80T+z4GtbtpfQ8R96ezW/9En+f7c3L9qDPzoC3A1qHmY7CKHSTcEnE1MS+7In+tgYoQBpY2Mh4ZwU8KFDRFEOQoSKf0iMz9TF0IuoEmWirtlmZo2T2moYHQZYUOZwV7an/AYanS0xBD40xHpVCCwmccCTbGhwA3rRe5iESBI9JwhA28mF3NDiQYiAX1i31FkrFRSI5Qwki0TAw/pN4gE9z7AcWoT0OnVikNReJQREo/fF22l6TDCnjq/QIpj2yHNIzKJZZG2iFhGS8XDohS1YesHmmC4IVnH7a82bFeNCBzTkjdqgYQBCNTXABu61HMrxzz6mGJAhqJWUWwUdwLY0IqCjJrgQWQ9tI0ohY0mEEzeTTi5UW5IIy19r13pNKnwqf1aADTshmPw7qYD8Qlddb6DHMAyASiYUQAZfoX1wHbch5QI/nfHvkRvXA0CS64EeevuprZK4VE+3TmQH9QaLuVKrZMOSP2uVvgqUV0cANOQGuALqgQTVkllJg5Eu4hkIH4dZZFQ1RQm9k55ArbjgHvTnkbAfeKXkLcojKOOq+9qZJKi0/B+wiOdUcFaFeR0aNpTBG3wU6gYoAOxsRtgW1XBn70ITPV+dKmNKABO5gyBlBzCIgOfKuzp8+owSVV7VwJPIQmz8UvQlvVHzMhaqovGV0zOInjKZ8S/Y9AnB7hoFil2Bj+klQ09XNEmLEHNUBRBpB4zbnY89QHxH3WiUP/4ejSDg1JYgqJNXAgQLUnF3wakYHHA0LdRw2t5JVVRtH8KLMGni4VHV6FUIH2UrAP3JrNtp0BuGfmjDR4MdCAdX89wUR8FElNKYwHRLQgcFdKsWN4S3op5lL9kfVULmXzw8RYJxYvJykcu/pB8QU0/GOvGaV7EnrRDEUd5FcuYBiMH2KokEUoEMtT2IGo6hKrsf6hU4V9kKJmovWyWRftMrDq+pEPpYy082kT5J2K/bwqaE8+b8NTYAvUIvM88rmWgEfUXd9R2M2VMgiNEF5i90aIQBXhbXTw8KcEMOSG8YYZMyiAEkvrLB5ZGBUh/b23UQnfwHa48o722Wt38lLn6LhFB0nq1PzQRAhJI9RX87UN7toAVFch0MD2oERbkLOkPDLMONEA6fQv1MTWIBUAzoH6o1tDVPFUkeeZqG4Yf2jTIG0xcjQwd2v+YKJQMQHZBDc+rrBGq70rVEpim5iY8ngG7UWHKpJaKx7dJzIFfg3CRll97doz0e9eOrHTqOKDiY00yreP18rSRgWpReVYZ66rdAuIeYyvcrBgMeWBQVGRAny4SDsVmlAhqEBMl3w7G9ZaYOTXHmNHvkTSP89O5glukuXjwuUARE+Q3hI+0dFXbbpAVLhpZRPohWA6WSA3WquOCqER8OwY1eKxIvwXmxJ0wdkWYCqASyGcnHmhYov12LsCYrU6B9m/UhkKStRXB8OJbAhqT2pOnCGSX2nba5yDF8awOGic5JzHXaZwlfY6uAj3hr9mqGj0eH8VEjzbNgcRRV9PaAzdZ/Y+ykMfNtagjFKzWueilmwFq7WA2FmXkjIMOrWJyEjroMHP4ox99z9d7YFfrOdK52ZHCC3gy+DPODclCKta0qVfS+xingISwY+vOWFv7WlVbyl4nEUKH6hPUhBgl3OqaiJ4OIqaQ/8jWGlUZOr0zmXiHPmNeSEGUrbowagkA413df6RXG668ngTlwpVFfUW81z7Y3a0dTlz3WrYiZZgywYETwjursxgRmr5O7QtgP7dDQ6/XLJ0Frfn2NDXbDtsF/I6Me418F9U+E62rC4F2QXpJtxJY7qANls6o71BXHhWOBQQ4m8kakYpylOWlIklbp6VTMXtCBZLpscrZOFmQzSgRFCMohNNf6tkUXooB0T4o2c6cVT2bFBlFO6UNQY6qhNJVv09KM/HI+BxLRAINvQyZU4esR8XyVHXrXrsY/XYRfJhzQp91pENgjceR98WJondIb4cx2CNpYwneIovuNO2+UZOkRaAGEstcdb5Fjk77VrK2SM2C14YOhnZ3e/H4NQBEC0ciUXZj89utMQsQeSmpAwR3YJ84lUVuECh1q0gtlZ5GM2BnhzgrQWfKYNm30xIYr85zQumMyFLThrjXTjuyS9Ze7WUhsbYYTXWns6LbvX2+OguIWyWT9mZtyTHWBhYkJ6hkHJolbeqfOd4RMxEfH1PQBjj1Mdd2uEE4nPomXVAMXlniUUxFPo5Mzwephi+H9dRM0/ntrD0BWcRIcRRsVtGOn1xaWqAynkuCDTTb4kHAF529KG0dSh4CAzUZS9ZeOmjMAJJOW+FfZdB1kuXg6+WPS+2iZCRxrQ3JgBFt6nYxKW25RJYJpaoOazjat9OGdkgbGpnAqQNjQa+t7Xngo6pB4bVLVCkL4BwMagkjqzodCVTRDlzEAsoWq+sRfBCQBLcj9g6dFoGbBdqhtJSaRHUmymMnBN+2Taa1IgMYtP8b8rCCqk0x1GU1sJBOo8PmonhxQadqy1YABWGapMwg75Dfxf+r7Uz3k20R6f5bh01+OmvyvTHhHRDjcXULJ0OURd5kv1Qo+WXa6kXOUvOgtzb94V5gEZ/HL6P2qsW5wPQqrr1bWk741zoRFH5T9OIJvPDsvBiNTgmznqht8Z0Hhcht/CefSWPKOLXrks46bZ0POUtdBvgvg82o6j2wGYSiShNhAWZK4VEUiRNA46LTBRJsMlPDGXaS0LfJdZjhaPFzVIR/GfTFLFLd2u0xEMQ+x/yr1ibuT3vbdP5wVke14rYCYIdakCmUPRce7AYECZMXinAh73C4Xue7ULxt6GQJ0VVnHpRqLTleQ43B1p1KQD42mAn9j3JLCa9iOp+AMdB26oRYRgNRsAxLXSjSfR2SBysuXtPeXntbvotfgSKAprosk4gVnX3AvStFilJex/uQvmp+eSllQhG1tLCIsk7NoUWpUwfty0mj2spV91qNWpK/9k+f7agnjXpkglyEmjw6EXGb2+BWE34yk1W0/UbFAxFXkFEmKzylLCsC7fGGIA81R3I2MJx01olAmM7pGGFJLbGqU30/7T3MTHV/ROW/bBt+dQ2T83/f47cCBv3zk6zAm1gbjvj4R+tOzbeq3WtMm5dsYIA61OAXYYf8L3wCesB6OACwvBYyJKCW1DpjpgNLB+5rywewX6iFfJEXJ8BWuEjEF5BkkIu3pyJSnKOgsSL2PDI+hqP1eFPEbWbyCOumLVw4G18grCDt+W6XVdr37sw7KoST0D59S0YKIbkXMYatuO3V/lqTEawSrVRbCQSBDGotrLR0+NUrN3REB7W/31bHwR0RSlQKMHlqVUOofe1mPWBAIyiOpNRoGQWMgIVPB0hHrgxYY6jXAc4hluDphETR1hFgK3o1B3vjM1SxIenQ83drp/y86aTTVwD7btz2Ob+jasV4aWcdFF8+UCKhUiw6lO2x4k2nH8b1VEaFPTAOOsGZljgbnQT7U1uXFVInypCwuxWitruDf3hNg0d5NnJhZO09g9sNHYNB9YDBy2gJA3l95D8GmVlHiovqZDl1uA/jh+MdDWAA3hMDln8PUhO1yMEDCNDnd/x0+j2R3wOm1l4Ubor4ejwLfg0H0dBf4GB6xz4xegOUfYVHDoOSMJUOp2oHK2m/EI9ctVWTdGKXaGutnI7SiqerXjeoQ0D0pZkOnUftyKrRIPamVtHFaIqh0ygsMpkB//qpcyjBmZpyLG/RgTiccm9gDqnV29R2gQ4+RW0VF3EiMpaaVQ9XuwRTW/cDoHobvkPnkv5GfhkfSgFCOjqqgOXVsc+ugH8VvTKQsv+qevdT2f9c9H/bNnhFD0mh2qq67yS1tjwNo1H1bjHUZbA1dAzwQHXa8aLojloR2vSBJbsOiWINUaDgAZOVKtyfLRnpaH12dYehc9BMn7zD7sfjUdidW1zt5hRU3lQhs6RAr3Yd+Nqqqlgr8kqwz+PIEbAm61jHTGKRcWB1G6hzbkOJSp1/sqg0a99nEBD57Z0FQdRidPYA/IUNAAsIF7VzdKgPspqbDtOpyN50Yu9JXB2YQaQ0VQmJqRj1IWOmE5rqzA5CPeACFoSFiEJxxBx5SB0gdu5FKzV1MckkiE79MTUgYIAAOO7ldSSGTJmUasUs3LB0kr9MnYMzoQMiKnUUYdYpOyScKjRqf5L/Q13pjwzaiEnXyfLbdIgVM23i0SVfSLZMuUhSdHScToY1Q9dRYcMV84OJIAOV4cOOey7m8DcIbG2pCGHQRhOa1PuGshKwvPSkVuz28faS8SgnMVzcNBkN7jFMnY50WVGWBdKxFbzuEbrdq/4uakRv6cjcHiFwdAYIS9c+ByfUwcXaH5yqXWbvbtYJ2zXlfjDtGMCqdz4c1hzS5GlbY0BZmPbItQMVkx6tPbDPXh/EfHcE/HkqgqSeC46gQhFSH0HRoXwqEk1mwAZ8tqW7/EII1mejBpVC1elgwvVugCixQZeQfelC+IUzUc8zpdf50pZqQ40hp2GaoE3WLifF17uyFk37rCG6DROQJzq/2p6IRejr4DW+B52mUyND7yBFu6w7uf/RpgbP0lEm1iAkveditUqJlPka2TqiqanzR88NyMqlttNDeVAOFYNuN3VjM57saqNvb8zIVl9/OK9Gdn0dwg15YglITR2bKwgs5KhpG7HrKDaVDEAC6uPyJNaqSujC0WosDzfU4uW7UqMajUE96FSSzjrAFmRTNx1KZPkMe2BwCb5WolfvYeg6c2vvzDV+7eKZIqkR3rv8+mkwf3v9K73vAsfCMvEsFmNIgPc/Njrq0gYLOLp09I1Cz8S9mNKR1FG78nAdsjP8JqA+SPrewoIYxX9qe9NhcXyIDeGnN0mh7bOOJtaBQ55KICnIcl6zQPus/Cf1WQ94RCf+2pN4yeP7EZ1n4AtxwBGvgFbSQTtUQ8f1JYGn3hVw49tXohyhketHaTPWrd2ifa33p0au5DdLemL1rQKizJ/FqdrKwp1CdHDnNXXwUSIDMDMdw5rv4A0YaI/SHQupd3Qwws66dBYQNxEkycAav4S7JItuTgLodGqrHTfQdSAR7wBO6RzWZrFjOx5m1HutKMemnckMHuqEyC2+601sMkVIjYxx55KpPeaJIikYdB3jJdoLEaFCjXrrDKGNpsMc6tGWotMAGRjUnpWO8OrwNdWNCQhI/QgLHcZi51GlDungpRCza+sEENlITXzgM713F4335gfK9nx2ssp7L4bprRgUCOISxke41euOmo/tQMgoQxYPM/2Gh8m5U0c74bKj3aaDbKQodL5B9aeu2c+3d9/3h2nC+vD+fu/sme+9TxVfpdOrvb6DsRjMQ80eioOcOQcZG2UwKVryYkvD8x8hrcaHtm+vwDI+vNa72/72CCBPuKPD/iDk5xijdjNWPjogov1Oiv7rtf/bK3WYP2OP4W/PJN2fi/j3SfIdajL/7XY6eu7dHxHy4fsh52m4rzd7/fKMvzzB/fkITTV9suA9QUzxt2f8Og/3f5vIn/NwOt+r7RJkt9wFpUvNC/X2Z3RYvfnvJKn7ytL0DvZCIEgO6LmJoObb1lDDVZKTi3Bo2kXRybX13k3zzsmtgG9HH6ViXq1wnBMQsD7vuAt6N6EBcFThmpKiBUhan7rSG1yAxVCGTKUOef8Pr/uUrYqOgacAAAGEaUNDUElDQyBwcm9maWxlAAB4nH2RPUjDQBzFX1OLRSoOdhBRyFCdLIqK6KZVKEKFUCu06mBy6Rc0aUhSXBwF14KDH4tVBxdnXR1cBUHwA8RdcFJ0kRL/lxRaxHpw3I939x537wChVmKa1TEGaLptJuMxMZ1ZFTtfEcAggpjBqMwsY06SEmg7vu7h4+tdlGe1P/fn6FazFgN8IvEsM0ybeIN4atM2OO8Th1lBVonPiUdMuiDxI9cVj984510WeGbYTCXnicPEYr6FlRZmBVMjniSOqJpO+ULaY5XzFmetVGGNe/IXhrL6yjLXaQ4gjkUsQYIIBRUUUYKNKK06KRaStB9r4+93/RK5FHIVwcixgDI0yK4f/A9+d2vlJsa9pFAMCLw4zscQ0LkL1KuO833sOPUTwP8MXOlNf7kGTH+SXm1qkSOgZxu4uG5qyh5wuQP0PRmyKbuSn6aQywHvZ/RNGaD3Fuha83pr7OP0AUhRV4kb4OAQGM5T9nqbdwdbe/v3TKO/H+N0ctTekIWqAAANGmlUWHRYTUw6Y29tLmFkb2JlLnhtcAAAAAAAPD94cGFja2V0IGJlZ2luPSLvu78iIGlkPSJXNU0wTXBDZWhpSHpyZVN6TlRjemtjOWQiPz4KPHg6eG1wbWV0YSB4bWxuczp4PSJhZG9iZTpuczptZXRhLyIgeDp4bXB0az0iWE1QIENvcmUgNC40LjAtRXhpdjIiPgogPHJkZjpSREYgeG1sbnM6cmRmPSJodHRwOi8vd3d3LnczLm9yZy8xOTk5LzAyLzIyLXJkZi1zeW50YXgtbnMjIj4KICA8cmRmOkRlc2NyaXB0aW9uIHJkZjphYm91dD0iIgogICAgeG1sbnM6eG1wTU09Imh0dHA6Ly9ucy5hZG9iZS5jb20veGFwLzEuMC9tbS8iCiAgICB4bWxuczpzdEV2dD0iaHR0cDovL25zLmFkb2JlLmNvbS94YXAvMS4wL3NUeXBlL1Jlc291cmNlRXZlbnQjIgogICAgeG1sbnM6ZGM9Imh0dHA6Ly9wdXJsLm9yZy9kYy9lbGVtZW50cy8xLjEvIgogICAgeG1sbnM6R0lNUD0iaHR0cDovL3d3dy5naW1wLm9yZy94bXAvIgogICAgeG1sbnM6dGlmZj0iaHR0cDovL25zLmFkb2JlLmNvbS90aWZmLzEuMC8iCiAgICB4bWxuczp4bXA9Imh0dHA6Ly9ucy5hZG9iZS5jb20veGFwLzEuMC8iCiAgIHhtcE1NOkRvY3VtZW50SUQ9ImdpbXA6ZG9jaWQ6Z2ltcDpjYmNlYTdmMS1jOWZmLTRmODMtYTVmYy05MjBiOTQ1Y2VmNTIiCiAgIHhtcE1NOkluc3RhbmNlSUQ9InhtcC5paWQ6ZWQ2YmFhNWUtMjNjZS00MjNjLWIwY2UtODg0Mzc5ZjljN2JlIgogICB4bXBNTTpPcmlnaW5hbERvY3VtZW50SUQ9InhtcC5kaWQ6Mjc0ZDAxNjYtNWEyMi00Nzc4LWE4NjktOTJkYWJiODgxOWMxIgogICBkYzpGb3JtYXQ9ImltYWdlL3BuZyIKICAgR0lNUDpBUEk9IjIuMCIKICAgR0lNUDpQbGF0Zm9ybT0iTGludXgiCiAgIEdJTVA6VGltZVN0YW1wPSIxNzQ4NTA5OTEyNDc5MDA5IgogICBHSU1QOlZlcnNpb249IjIuMTAuMzAiCiAgIHRpZmY6T3JpZW50YXRpb249IjEiCiAgIHhtcDpDcmVhdG9yVG9vbD0iR0lNUCAyLjEwIj4KICAgPHhtcE1NOkhpc3Rvcnk+CiAgICA8cmRmOlNlcT4KICAgICA8cmRmOmxpCiAgICAgIHN0RXZ0OmFjdGlvbj0ic2F2ZWQiCiAgICAgIHN0RXZ0OmNoYW5nZWQ9Ii8iCiAgICAgIHN0RXZ0Omluc3RhbmNlSUQ9InhtcC5paWQ6MjdlMzY1YmItNjBhZC00MTY0LWJkZGQtMWQzZDJmOTQ2ZjM3IgogICAgICBzdEV2dDpzb2Z0d2FyZUFnZW50PSJHaW1wIDIuMTAgKExpbnV4KSIKICAgICAgc3RFdnQ6d2hlbj0iMjAyNS0wNS0yOVQxMjoxMTo1MiswMzowMCIvPgogICAgPC9yZGY6U2VxPgogICA8L3htcE1NOkhpc3Rvcnk+CiAgPC9yZGY6RGVzY3JpcHRpb24+CiA8L3JkZjpSREY+CjwveDp4bXBtZXRhPgogICAgICAgICAgICAgICAgICAgICAgICAgICAgICAgICAgICAgICAgICAgICAgICAgICAgICAgICAgICAgICAgICAgICAgICAgICAgICAgICAgICAgICAgICAgICAgICAgICAgCiAgICAgICAgICAgICAgICAgICAgICAgICAgICAgICAgICAgICAgICAgICAgICAgICAgICAgICAgICAgICAgICAgICAgICAgICAgICAgICAgICAgICAgICAgICAgICAgICAgICAKICAgICAgICAgICAgICAgICAgICAgICAgICAgICAgICAgICAgICAgICAgICAgICAgICAgICAgICAgICAgICAgICAgICAgICAgICAgICAgICAgICAgICAgICAgICAgICAgICAgIAogICAgICAgICAgICAgICAgICAgICAgICAgICAgICAgICAgICAgICAgICAgICAgICAgICAgICAgICAgICAgICAgICAgICAgICAgICAgICAgICAgICAgICAgICAgICAgICAgICAgCiAgICAgICAgICAgICAgICAgICAgICAgICAgICAgICAgICAgICAgICAgICAgICAgICAgICAgICAgICAgICAgICAgICAgICAgICAgICAgICAgICAgICAgICAgICAgICAgICAgICAKICAgICAgICAgICAgICAgICAgICAgICAgICAgICAgICAgICAgICAgICAgICAgICAgICAgICAgICAgICAgICAgICAgICAgICAgICAgICAgICAgICAgICAgICAgICAgICAgICAgIAogICAgICAgICAgICAgICAgICAgICAgICAgICAgICAgICAgICAgICAgICAgICAgICAgICAgICAgICAgICAgICAgICAgICAgICAgICAgICAgICAgICAgICAgICAgICAgICAgICAgCiAgICAgICAgICAgICAgICAgICAgICAgICAgICAgICAgICAgICAgICAgICAgICAgICAgICAgICAgICAgICAgICAgICAgICAgICAgICAgICAgICAgICAgICAgICAgICAgICAgICAKICAgICAgICAgICAgICAgICAgICAgICAgICAgICAgICAgICAgICAgICAgICAgICAgICAgICAgICAgICAgICAgICAgICAgICAgICAgICAgICAgICAgICAgICAgICAgICAgICAgIAogICAgICAgICAgICAgICAgICAgICAgICAgICAgICAgICAgICAgICAgICAgICAgICAgICAgICAgICAgICAgICAgICAgICAgICAgICAgICAgICAgICAgICAgICAgICAgICAgICAgCiAgICAgICAgICAgICAgICAgICAgICAgICAgICAgICAgICAgICAgICAgICAgICAgICAgICAgICAgICAgICAgICAgICAgICAgICAgICAgICAgICAgICAgICAgICAgICAgICAgICAKICAgICAgICAgICAgICAgICAgICAgICAgICAgICAgICAgICAgICAgICAgICAgICAgICAgICAgICAgICAgICAgICAgICAgICAgICAgICAgICAgICAgICAgICAgICAgICAgICAgIAogICAgICAgICAgICAgICAgICAgICAgICAgICAgICAgICAgICAgICAgICAgICAgICAgICAgICAgICAgICAgICAgICAgICAgICAgICAgICAgICAgICAgICAgICAgICAgICAgICAgCiAgICAgICAgICAgICAgICAgICAgICAgICAgICAgICAgICAgICAgICAgICAgICAgICAgICAgICAgICAgICAgICAgICAgICAgICAgICAgICAgICAgICAgICAgICAgICAgICAgICAKICAgICAgICAgICAgICAgICAgICAgICAgICAgICAgICAgICAgICAgICAgICAgICAgICAgICAgICAgICAgICAgICAgICAgICAgICAgICAgICAgICAgICAgICAgICAgICAgICAgIAogICAgICAgICAgICAgICAgICAgICAgICAgICAgICAgICAgICAgICAgICAgICAgICAgICAgICAgICAgICAgICAgICAgICAgICAgICAgICAgICAgICAgICAgICAgICAgICAgICAgCiAgICAgICAgICAgICAgICAgICAgICAgICAgICAgICAgICAgICAgICAgICAgICAgICAgICAgICAgICAgICAgICAgICAgICAgICAgICAgICAgICAgICAgICAgICAgICAgICAgICAKICAgICAgICAgICAgICAgICAgICAgICAgICAgICAgICAgICAgICAgICAgICAgICAgICAgICAgICAgICAgICAgICAgICAgICAgICAgICAgICAgICAgICAgICAgICAgICAgICAgIAogICAgICAgICAgICAgICAgICAgICAgICAgICAgICAgICAgICAgICAgICAgICAgICAgICAgICAgICAgICAgICAgICAgICAgICAgICAgICAgICAgICAgICAgICAgICAgICAgICAgCiAgICAgICAgICAgICAgICAgICAgICAgICAgICAgICAgICAgICAgICAgICAgICAgICAgICAgICAgICAgICAgICAgICAgICAgICAgICAgICAgICAgICAgICAgICAgICAgICAgICAKICAgICAgICAgICAgICAgICAgICAgICAgICAgCjw/eHBhY2tldCBlbmQ9InciPz4XPowHAAAABmJLR0QA/wC1AHCgtzE0AAAACXBIWXMAAAsTAAALEwEAmpwYAAAAB3RJTUUH6QUdCQs0Wp32KQAAIABJREFUeNrs3Xd4m+XdN/yvJcsa3nvvGTuxM+wsyGggm7SsUqDctDxQ7lL6ltzt0Rc6KHRR3t60DzwtT4FSyroDJYUUCCQkzYbEIc72iPfekpdkbVnvHw4G4+uUR2zHkr6f48iRWOclRf5dl+WvTp3Dx+l0OkFERERERDNCxhIQERERETFw0wyxDlpYBCIiIqIZ5Ouqsa2tDe3t7aySh7JpB2G40AHfIBUCC+NZECIiIqIrFBsbi7i4uIkF7ra2NnR2dkKr1SIiIoLV8zCmuh7oS1rgdDhh7TRAHqyEJpPnmWiuOtdgwcUWGyICZYgOkiMsQI5AtQ8CVTL4+fqwQBNkNBrR0tKC1tZW9PT0QK/Xw2azQS6XQ61WIywsDFFRUUhOTkZYWBgLRkSTotVqIZMNDyD5YugWBu729nZ0d3czcHsapxMDp1phqtWNullf0grfYBX8ogJYI6I5qHdwCI4hJzr7Hejsd4zcviRViQWJfiyQC+Xl5Th79iwuXLiAqqoqNDc3j3ufoKAgzJs3D3l5eSgoKEBhYSGUSiWLSUQudXd3w+l0YmhoaGKBGwAiIyMRGRmJJUuWsIIeovKDEnR+KWx/ZvBkKxb9141QBWtYKKI5Zl/5KQD2MbcvXZiN3BT2xI55PRscxLvvvov33nsP77//PoxG46TuPzAwgJMnT+LkyZMAgFWrVuGrX/0qbr75ZqSlpbHARDQpviyBd8neWghjjx7t5+vHtFkNZpzbcRjLH9jCQhHNIXqjFXqjTbItJymUBfoCp9OJN998E2+88Qbef//9aXvcY8eO4dixY3j99ddx55134pvf/Cbi4zn3hYgmhquUeKGcrUUITpQeJtRT24Gyd06wSERzSEPHAAwSgdtXLoNMxvHbnzl37hweeOAB3HnnndMatr/o/PnzePjhh3HPPffg7bffZtGJiIGbpKnDApCztQh+/irJ9sbjFWg8XsFCEc0RjR16ODF2j7LoUA7/+syOHTvwwAMP4Pnnn5+V/2///v34/ve/j9/85jfo7e3lCSAiBm4aKzwjFtlbC4XtZe+cgLaqlYUimgPaugclb0+ODWJxADz99NP40Y9+hOLi4ln9fzs6OvDoo4/ipz/96YQmYhIRAzd5ocSlWci4fqGw/dyOIzBqB1gooqvIYLJhwGiVbMtJCvH6+jzxxBN45JFH0NHRcdWew3PPPYef/exnqKqq4gVLRAzcNFbWpsWIW5wu2WY1mHFh58eQ+CSbiGZJz4AZgybpCZOpccFeXZunnnoKjz/+OCyWq79j7muvvYbf/e536Orq4kVLRAzcNNa8bUsRmhIl/cu+tgNluziJkuhq0faZoBf0cIcEeO+60C+//DKefPJJ2Gy2OfWcfv/738PhcPDCJSIGbhpNGahGzg1LoQxUS7Y3Hq9A/dFSForoKmjqMsBiGxvgwgJVXluT48eP45lnnoFOp5tzz+0Pf/gDnnvuOV64RMTATWOFpkQhZ9tSYXvFe5+is7SJhSKaRWarAz0DZsm2hGjv3BVWr9fjL3/5C86dOzdnn+Pzzz+P48eP8wImIgZuGit+cToyNy4Stl/858fQt3P5K6LZ4nL8tpeuULJjxw68/vrrc/o5Xrx4ES+99BIvYCJi4CZpmesXIaEwQ7LNajCj7F8n4LDaWSiiWdCrN8MgCNzJMd4XuFtaWrBjxw63eK6vvfYaN8YhIgZuEsu9cQXC0mIk23pqO1D2r2IWiWhWArcFA4PSEyZTvDBwv/POOzh69KhbPFer1crATUQM3CTmq1Ig98ZlUIX4S7a3fFqFmgPnWSiiGWR3DEHXb4bBNDZwK/18ofD1rpdvvV6Pd999162e83vvvYcDBw7wYiYiBm6SFhQXjtyvLRO2V+05jbazdSwU0Qzp1VuEw0kSIv29rh6HDx/GwYMH3eo5Dw4OYt++fbyYiYiBm8RiFqQg54YiYXv5v4rR19TNQhHNAJPFjkGzdOCOj/S+FUqOHDnils/74MGD0Ov1vKCJGLiJxNLWLkDSihzJNuugGRd3fsLt34lmQFJ0IMIClQzcl3388cdu+bxLSkpw5swZXtBEDNxEruXduBwRWXGSbfr2HpzbcQTmfiMLRTTN2rSDkrd724TJixcvunVoPXv2LC9mIgZuItd85DLk3bQCmvBAyfa+pm6cf+MIhhxDLBbRNGrtNkjeHhfhXWO4q6qq5tQW7pNVXl7Oi5mIgZtofP6Rwci7aYWwXVfTjjMvczY+0XTp7jPBaBm75n1UqMbralFbW+vWz7+ujhPMiRi4iSYoMicBBbevFrZ3VTTjzKsHWSiiadDZIz1MK94LVyhpbW116+ff0NDAC5qIgZto4uILM5B743Jhe8eFBpx/8ygLRXSFWgTDSeIjvG/CZE9Pj1s//97eXl7QRAzcRJOTcm0usjYtEba3ltSg9O3jLBTRFRCN3/bGFUqMRveelD0wwJWciBi4iaYg4/oCpK1dIGxvOnEJFe+dZKGIpjlwJ0R5X+CWy+Xu/YtWxl+1RAzcRFOUc0ORcI1uAKg/WoaqPadZKKJJstgc6O4zjbldo/RFSIDS6+oRHBzs1s8/MjKSFzURAzfR1M2/ZSXiFqUJ22sOnEfd4YssFNEkiNbfjvPC4SQAEBUVxcBNRAzc5N0WfnMtouYlCtsv7T6F1pIaFopogjh+e7SkpCS3fv5paWm8qIkYuImuXOG96xGaGi1sP//mUXRfamGhiCagqVMvHbgj/L2yHllZWXz+RMTATa7pO3phM1k8/vtc8eBWBMaGCttPvbgPA606XhBE42hol17VwhsnTALAvHnzkJiY6LbPf/78+byoyaO1awdhNNtZCAbuq8fQ0YviZz/EqRf3e8XW59ds/xrUoeJQ8PH/fhfm/kFeGEQCFqsD7bqxPyNymQ8SowK9siYxMTEoKipyy+ceFBSEwsJCXtjkuWFbN4ind57FX/51AQ4vyDkM3HPQQFsPTjz7IWwmC/oau3DutUNwOp2efUHJZbhm+1ehUPsJjzn8u396xZsPoqmoF/Rup8QGeXVdVq1a5ZbP+/rrr0d2djYvbPJILd0GPP3WWRjNdjS0D+DvH5bDw2MOA/dc09+sRfH//WDUUJKO0kaUecGGMH7+Klyz/Wvw8fGRbB+yO3Dg8R28SIgkNHQIAneMdwfudevWueVqH+vXr+dFTR6psVOPZ946N2ooyfkaLf5xoIrFYeCexbD93B7YzbYxbU3FlWg5Ve3xNdCEB+Ka7V8VtttMVhz89T94sRB9SX17v+TtyV7ew52fn4+bbrrJrZ5zQUEBNm7cyIuaPDJs/2nnOZitY8dtf3KxDSfLOlgkBu6Z57DZMWR3CNvLdp2AsUfv8XUIig/H8ge2CNvN/YP4+H+/ywuGCMMrk1xq7EVdm3Tg9vYebgC4+eab4e/vPiu13HTTTUhNTeXFTR7HZnfA7mJo6FuHqqHrN7NQDNwzKywtBgvvWCMO5FY7zrxyEM4hzx/HHJYeg8L/db2wfaBVhxN/3s2Lhrxeu24QF+u0MFvGvlkP9vdDaKDS62u0ceNG3HXXXW7xXBctWoRbbrmFFzZ5pIz4ENy9aZ6w3Wpz4MXdpRga4oBuBu4ZFrswFdmbl7gMmlV7z3hFLaJyk1Bwp/gNSG9DF449tYsXDXm1foMVfXrp5UO9fcLkF911111usZHMt7/9bS4HSB5tcXYUtl0j/gSnpcuA3cfrWSgG7pmXfl0BYvJThO11hy/CqB3wilrEL05H3s0rhO36jl4c/A3HdJN3MphssDuG0GeQDtzJHE4y4tprr8X3vve9Of+m4J577uHJIo+3YWkyFmaKJzMfKGlGd5+JhWLgvnK9DV0u2wvuWI2A6BDJNueQE2W7TnhNrZJXzkP2FvF6tOa+Qez7+euwm628sMir9F8O2uzhnpgHH3wQ995775x8bkuWLMEDDzyAwMBAnijyCPWCeSWf+Y9NOYgJ00i2DTmd2HmwmkVk4L4y2qpWFP/lQ5x97RAgGKYkV/ii8J7rIVcqJNu7K1u9asvz9HX5yLlBvIGF3WzFvp+/DnMfN8ch79FnsGJoyIkBo/SbTU6YHE2lUuEHP/gBtmzZMqeeV2pqKn784x9j5cqVPEnkES419uKZnefw0gdlopgDP1857v/aAigVcsn2isYelDf0MHDzcpqazrImfPrCR3A6htB+vh5l/yoWHquJCMI8FyGz4v1Pvap2aWsXoOD21S6POfibf0Df0csLjbxCv8EiHE4SHxkAhS9fqr8sPz8fP/vZz7B27do58XzCw8PxyCOP4Bvf+AZPDnmEi7VaPPvOeTiGnDhb1Y1/HhL3VEeGqHHT6nRh+64jNQzcvKQmr6O0EWdeOTjqtsZPyl2ur520PAfBiRGSbYbOPrSdrfOqGsYXZqDovg0ujzn21K5xh+wQuTun04n+QaswcLN3W2zlypV47LHHrvrmMqmpqXjiiSdw//3386SQRzhfo8WLu8tG3Xb0XCuKXayvvTI/DknR0kOpOnqMOF3p3b/PGbinELbPviq9pF/ZrhMw6gTra/sA+betgo9MevfF2oMXvK6WkTkJLjfHAYATf97tVUNuyPsMGG1wOp3o1YsmTHIssCtr167F73//e9xxxx1X5f9fvHgxfve73zFsk0eF7Zd2l0ku6bfzUDW0/SZRzME3N+RAJthlev+nTQzcNHF2kxVOwbqSDqsdZ18/JLxvYGwoEpdlS7bp23ugrWr1unoGJ0Rg9Y9vdnnMqRf3of1cHS8+8kgjEyYNnDA5VQsXLsRTTz2FRx99FFFRUbP2/951113405/+xGEk5FHMFjuGnNI5x2pz4OUPyoX3jYvwx4oFsZJtrVoDLjV671BRBu5JSijKdLnSRn+zFg3HyoTtaWsXCNtqD130ypoGRIfgKz+9Tdj7DwBnXz+MpuJKXoDkcQYGrTBa7LDaxm54o1TIERvuzyJNQFxcHH71q1/h+eefx7Zt22Y84D/99NN49tlnOUGSPM6yvBh89VrxWveNnXocPiv+5Pn6wkRh279LvLeXm4F7CtLX5SNukXhyQNXeM7AMGCXbNOGBiFskfSHrqttg6jN4ZU3VYQFY94vboQzSCI8p/ecnqDt8kRcgeZR+g4XLAU6jG2+8Ea+99hqef/55bNiwYVofOz8/H7/4xS/w6quv4qGHHkJQEM8Peab1RUkozIkWtu8+Xo+BQelVlSKC1ViSLf1JU2VTL3r13rnlOwP3FC385hoEJ0hPgrRbbKj88LQ4sF9XIGxrP+e9uzIpA9RY8/AtCIoLEx5zafcpr9mhkzyfE8NjuDlhcnoFBwfj/vvvx3vvvYedO3fivvvuQ3p6+pQey9/fHzfeeCOeffZZvPPOO/jlL3+JBQsWsMjk8b61eR4SBZMgLVYH3vtYPNRz49JkYduZqm6vrKcvLymx/lYdguPDhe2L7lqLw0/+U7KtpaQaWZsWQxUy9uPgwJhQBCdEoL9FKxm4XQ078fgLUqnANdu/hlMv7hOOaa/59znYzVbk3ricFym5Nf2gFU6nU9jDncwe7it7E69U4tZbb8Wtt96KlpYWnD17FufOnUN5eTnq6+vR0NCAvr4+WCzD9Y+IiEBUVBTS09ORnZ2NBQsWoLCwELm5uSwmeaTmLj0So8QTs+/Zkotf/f2kZNvJ8g5sXZmK0EDlmLbYCH8kRgeiuXPsQhKnK7tw3ZJEBm66HLabtSh+bg+ic5Ow8JtrJI/RRAQh/boC1B44L9lef6wM87YtlWyLXZgqGbj7W7Qw9RmgDgnw2tr7yHyw9P6NOLfjCNrO1Eoe0/BxOWxm67jreRPNZQODVjidQP+gqIebK5RMl4SEBCQkJIwZ320yDa+4IJfL4evrC5mMH/ySd2js1ONPO89hQXoEvrV5nuQxkSFqbFiajH2fNkq2Hz7bIlx/e0l2lGTgbu7Uo1dvRmigyqvqzVcWCb0NXSh+bg8cFhvaztai/qh4EmTG9QVQBqol25qKK+Gw2CTbXI0B7yxt4kkAsPDONUi+Zp6wvbWkBqdfPsCt4Ml939gPije8CQ9WIVDjxyLNMLVaDbVaDT8/P4Zt8hr1bf34085zsNgcKLnUiUNnxJMgNy5LEr4WfXKhDRaJCd+fBW6RC7U6r6s5X12+HLbrO/HpC3tHBeWK906it75T8ni5whfp6/Il2xwWGzrLpcOzKliD0BTpCQk9dR08EZfl3bTC5RCbztJGnH75ALeCJzcN3NzwhohmV21rP/78zoVRQfmdIzWobe2XPN7PV471RUmSbRabAxdrtZJtIQFKpMUFS7bVtPQxcHuzntoOnHx+LxxW+5i2i28fF94vcXkOFBqlZFvbGfGkgvDMWOHzoM/l3FCEjPULhe26mnacfvkA9O3cCp7chxNAv8EqHr/NwE1E06ympQ/PvnNechnSfxyoEt7v2vw4aFQKybaSS+IdJLMSQxi4L+MY7i+wW6wYskt/NGLo6EXr6VrELxk7FESukCNuYRoaj1eMaeuqaIbdbIOvxIUanh6Lmv3nxtxuHTTD0NWPgKhgnpTPfmg3LoZc4YvKD0sk2/tbtDj14j7k3bQc0fOTWTCa83wArF0Uj2PnpScHe/OSgD09PdBqteju7obNZvPI71GlUiExMRHx8fH8YaBZY7Y6YLMPSba16wZxqqITRfPGfvqu8JVhSXaU5OtVWb0OZqsdKr+xkTIzMQR7T44d/20w2dDZY0R0mIaB2xtF5SYh4/qFqPn3Ocn26o/OSAZuAIhbki4ZuIHhISJRuWNn5IamiMc39TV2MXB/Sfq6fMgVvih/t1j6haR/EKdfPoCcG4q8eqUXcq9ffnqj9BwEbxhS0tjYiA8++AA7d+5Ed3c3tFottFotHA6H11wDMpkMSUlJSExMHPl7y5YtWLVqFX9AaNrNTwvHxmXJ+Oik9CTID07USwZuACiaFy3sIKhp6cf8tLGruqXGinNMQ/sAA7c3y9q0GN2VLehvHjsmydijR/u5esQuTB0bnpOj4BeggtUwdkF3XW27ZOCW+coRkhSJvqaxa1IOagd4MqRCyKpcyP3kuLjzE+Exl3afglGnR+6NyyGTc9QUzV0N7dI/58kxgfDx8czv+fTp0zhw4AD27NmDw4cPe/01MDQ0hIaGBjQ0NIzc9uSTTyIhIQG33347Nm/ejHXr1vGHhabNDStTcamhB40SK4jo+s04U9mFxRITHlNjgxCgVsBgGvupU3VLn2TgVvjKkBIThIaOsa91XX0mr6o704iE7M1LhG3dleKZvOHp0mOyRRMuAcA/Uvrdn5GBWyhxWTYK7lzj8pimE5dQ8uI+GLr6WDCas+rapCcpeWLvdkVFBf7jP/4DhYWFePjhhxm2x9HS0oKnnnoK1113HXJycvDQQw+hpqaGhaHpCd3XiLduL2/sEbZlCsZkiyZcAkBUqPRKblovC9we38PdVdGM+iOl0NW0Q67wRXBSBMLTY5G0Ike4nF9EVjxCU6LR2zA2KGsrW4X/V1haDNrPj90p0lXoEw0bYeB2LX5xOvw0SpTtOgGjTi/9w1zdNjyu+8YVkp8wEF1t1YKJQ5624c3TTz+N3/72t9BqtTzpU1BZWYnKykr885//xE9/+lM8+OCDLAqNKKvX4cDpZlQ398HPV46kmEBkJoRgVUGccDm/nORQpMUFS77pv9QoXoAgIyEEZyV2iuzsMQrvIxo20s0ebs9R+s5xlPxtP3Q17QAAh82OntoOVO87i2P//Y4wqAFAfGGG5O3mASMMHb2TCs92s01yqAkwvHmOlEEXz42GReYkoOi+DYjIEk86MvUYUPLSfjQcK2PBaE4ZNNvQ2m2QbBMtpeVujh07hk2bNuG//uu/GLanQVtbG77//e/jq1/9KoqLi1kQwlsHq/Dcvy6iunn4zbvV7kBNSx/2FDfgt6+cgrZfHGqX5kqP1e43WNCuk15qNzpUOjybrXbJoSYAEBkifR9Xz42B2400flKBpuOXhO1WowWfvrAXNqP0klzRLnpEexu7JxWegeHx31JUwf6CkM7NXCbCPzIYRfdtQNLKHJfHlb97EmW7+AuK5o7PfkF+WViQCuFB7r8D22uvvYbVq1fjo48+4smeZu+//z5Wr16NX/7ylyyGFzt6vhXHzre5fFP/7DsXYDRLB+EFaRHC+9YL5pdEhqiF99EJAnRIgHQvu8liZ+B2d+a+QZTtOjHucUadXnJZPgBQBmmE46stA9IfnahDxduxi4K9Qi3eSc5hc/AVZQJ8ZD6Yf/NKzNu2dJw3YeU49eI+DtehOaFKELgzEkLc/nt77rnncPfdd/MkzyCbzYbHH3+codtL9eot2HmwetzjtH0myWX5ACDI3w9Rgh7rgUGrsENAHPClA7RaKR69LFqikIHbTTSdrJzwsW3nxBvTKIOk38lZ9OKPQUQB2i7Y4t1X5SJwW2x8VZmE1DXzseTb1wk/NQCA7kstOPXiPnS7GItPNBtEGz9kJrj3cJI//vGPeOCBB3iCZwlDt3c6frFtwseerhRvTBPk7zepwO0qQFus0p2EKheB22z1nl5ujwzcfYIhH6LwbBX0PosmVVoMLgK3YMdJh80uOF4cuO1WBu7Jip6fjKL7NiAsPUb8Llw7gJIX96HxkwoWjK6KgUGrcIykO/dw//rXv8aPfvQjnmCGbpphDR0Tn+c1MGjFoGBYiShwi/YHAAB/tfSOk1bBxoEalThwW23s4XZrTsfkTqDdJLiwnFMoqK9c8nYfSC+q6+NisV3Rfci1wNhQFN27AQlLs8TXiNOJsl0nUPHeSRaMZp1odZKwIBUigtVu+T29+eab+MUvfsGTy9BNs8AxyZxjEgz3mErO8ZUJ8swUsoyPF8Ucjwzc/pPcoVETHih5u2istipIM+nwLldJvyO0m8W92KL70Pjkfr7Iv+1al2uqA0D90TKUvPRvmHoNLBrNmqpm6ZWO0uPdczhJTU0NHnnkEZ7Yq+y3v/0tVy/xElGT3KExQjDZsX9Q+hP+YH/xp+8mwdARpZ9gqImL+WhKPzkDtztLECzpJyXRRS+oWTBWWzS2GwBsgtVFFKrJje0GAD/B8BSauPTrCrDorrXwCxBP9Ogqb8KpF/dBV93GgtGsqG+TnrjrrsNJHnnkETQ2NvLEXmU2mw1PPPEEC+EFlufGTPjYFfNjhW2isdpB/uL8IVpdRK2UDs9mF6uR+HtRx6JHBu6Q5CgkFGWOe5xCrUTmxsXS78j0JuFqFspA6XeW1kEzHIIJAEpB4LNzYuSMi12YhqJ7NyAkOVJ4jKGzD6f+tg9NxZUsGM2oXr14jdtMNwzcTz75JN5++22e2Dni/fffx7PPPstCeLiU2CAszxs/dGtUvtiyIkUYtkWbz4h6uA0mG6yCHmvRJjsWrrjmuYEbAPK/scpl6FYFabDiwS1QBQt2QLok3sI9OFF67UpDl3hr04CYUOkLcQrDVmjyghMjUHTvBsQtThceM2QfQuk/P8Gl3adYMJox1YLhJOHBKpdr3M5F58+fx09+8hOe1DnmiSee4DbwXuCbG3Jchu7gACW237YIIQHSvdUVDeIt3JOipYfautpRMjZceoWwfkEvenCAd32K79E7TeZ/YxWKvrNx1IoVCo0SWZuWYPX/e4swBANAZ6n0x6Pq0AAECu430KoT3kdEFNJF48pp6hQaJRbeuQYZ6xe6PK7u8EWcfvkA9B29LBpNu5pW6Z/51Fj3G7/9yiuv8ITOQW1tbfjjH//IQnhJ6P7ezfmjhqNpVArcsDIVP/9WkTAEA8CFWundX8OCVIiNkL5fS5deeB9hnhKE9IhglVedK19P/wYjs+MRmR0/qfsMtPWgs6xJsi16frLwfqIxwIGx4mA/2C0I3C52raQrk7VxMfzDg1D2rxPCSaudpY3oa+hC1ubFSFyWzaLRtGloF43fdq/A3dLSgldffZUndI7asWMHHnnkESQlJbEYHm5echjmJYdN6j6t3QZh4M5PF+9AWSnYsCsuQhzsO3sFgTtE7VXnScZLdayqvWeEbdF54hcvbU275O3h6eIJC4Yu6YtXE87APZPiCzNQdO8GBMWHC4+xGEy4uPMTXPjHMZj7jSwaXTFdv9lj1t9+5ZVXoNPpeFLnqP7+fuzYsYOFIEm7j9cL2xaki38vVjVJf/Lrav6JqIc7MpiB26s1n6xCV7l073ZQXBjCM6TDc3dFi3BnSNF9APEmPf7s4Z5xoanRKLpvA2LyU1we13KqGief24P28/UsGl2R4jLpN+WRIWpEh7rPvA2TycTebTfAwE1Sjpe2o7RO+s1yQmQAshKlP5Uvq9cJJ0CK7gMAjR0Dwtc9Bm4v1X2pBRd3fixsz9q0WNjWelp6gopfgErYi9pb34khwc5MIUmRPCGzQBmoxuK71yHtK/kujxvs7sfZ1w6h4r2TwpVoiMbTKNgdLjzIvcYyvvLKK6iqquIJneMuXrzI0E2jlDf04I394tW4tq5MFbadquiUvD1Q44eEKOm5arWt/bDZpTfpSYn1ro5FBu4vkPuJh7QHx4cjKld6OIlFb0LbuTrJtngXq2LoBENQVCH+UIcF8ITMopythVj0H1+Bf6TrcbT1R8tw8rk90FZxzW6aPNFwkuQY9/rFc+TIEZ5MN8HATV/kpxDHvsSoQMxPk+4g1ButOF3ZJdlWmBMlfEzRrrqhgUqXEy0ZuD1cWFoMlv3nJulAtm2p8H51By8I2+IWiQO3VjDJ0tWYb5o5sQWpWPbdTUgodL2Ge19TNz59YS+q959l0WjCunqN6DNI7+qWkxzqVt9LSUkJT6ibOHToEPr6+lgIAgBkxIfg+7cUSLbdtFqcV/afahK2LcmJFrZVNk5+zDcDt5cIz4zD0i+F7tyvLROOwzb3D6L+WJlkW2BMqHDNbvOAET11HdLPIYOB+2pRBfsj//ZVmH/LSvj5u373Xf3RWZz660fob9aycDSuasHHYefCAAAgAElEQVTsfn+VAmlutKV7Q0MD13h2I0ajEYcPH2YhaER2UuiY0H3L2gxkJkqH4D6DBYfOSO9NEhvhj2TBmt39BgtqWqVf9zITQ72u7gzcEiIy41B03wbI5DIkrcxByqo84bHlu4qFbalr5wvb2s9KD0GBDxA1L5En4SpLWpGDZd/dJBxG9JnuylacfG4PGj4uZ9HIdeAWfLQaEaKGzMfHbb6PU6e4MZS74RAgkgrdD9yUD7lchlUFcVi7KEF47D8PVQvbrlsiziuiISg+APJSw7yu5r687KRF5iRg+fe2ICRZPDap+1ILOgQb5KiCNS6HJojGfIenx8IvQMUTMAcExoah8H9dj9oD51G59wzgdEoeZ7fYUP6vYvQ2dCJr0xKuMEOSRBMm41xsTMHATdPh2LFjLAKNkZsShu1fX+hy8mJ5Qw/O10h/ihsSoMSyXPFOl2cEgTsjMUS4DbwnYw+3C67Cts1kwYW3xCuauFr1YqCtRzgMIW5RGgs/x6RfV4Bl392E0JRol8e1n6vHp8/tQWsJP26nL10bukFo+02Sbe42U5+B2/2cPn2a47hp0q8/RrMd/7PvkrD9+iLxJ8Ct3QY0dkp3MhRmR3tlrRm4p+j8jqOwDEgv5q4ODUDyynnC+1btPS15u4/MZ9w1oenqCE+PxbLvbkLamvkujzP1DeL8m0dR+vZxWAfNLBwBEO8u6a9WIDkm0K2+l+7ubp5QN3TmzBkWgSbl1b0VGBi0SraFBamwqiBOeF/RxjoyHx8szPTOZY8ZuKeg/F/F6KpoFrbn3rgcPjLpMZn9zVp0lUvfN3p+MhRqJQs8V39YfOXI2bYUi7+1DgFRrmdYN524hJPP7UVnWRMLR6gXBO7QACUC3OyjVa2Wk4Td0eDgIItAE/bPQ9UoqxfvJHvL2gzh3JPGTr1wY538jAhoVN45mpmBe5Kq9p5xOUEuOi/J5fbvlz4UL6eVvi6fBXYDMQtShpcPLHK9fKC+vQen//5vVH5YAufQEAvnxUQ93CGBKgSqFQzcxMBNc8bu4/U4cq5V2L4gPQL56RHC9vc/rhO2bShK8tq6MnBPUtyiNPiqpHukNOGBWHjnGuF9O8uaoBOtvZ0Ri+CECBbYTSiDNMj/xios+Po18AtwvT1t7cELOPncXm6W46VaugzCDW9iwjSQydxnhZKenh44HA6eVDdkNBpZBJqQwpxoqJXSvdARIWp8a7N4yOzFWi0qm6TX3s5KDEVidKDX1pWBe5ICokOw7IHN8FWN7pWS+/mi6L4NkCvFvVUV750UtqVfV8DiuqHEZdlY9t1NLj/VAICeug58+sJelO06AVOvgYXzItUt0r98AtR+iHWzFUrYu+2+2MNNExUTpsH/c2sBVF/afdtPIccDNy6AUiEX3vedI7XCtg1Lk7y6rgzcUxAcH46l39kI+RcuuoI717jcFrzu8EUYddIzdkOToxCRGcfCuqnAmFAsued6ZG8thI/M9Y9U4ycVOPHnD7hutxepEmx4ExakhL+bDSfhhEkGbvIOiVGBePDmfCh8P/+ddvemeYgK1Qjvc+B0s3A1ptTYIGQnhXp1TRm4pygkOQpF39kIma8caWsXIGZ+svBYQ1c/qj8SbwOed8tKFtQDpH8lH8u+uwlhqa6XPDL3D6L8X8U4+fxedFe2snAezGCyCXeYDA9WI8DNArfNZuNJdVMWi4VFoElJiQ3C9y6H7usKE1GQIR722tljxIfHG4Ttt12X5fX15MY3VyAsLWZ4c5wk8RI3DosNJX/bB4fNLtmeUJiJoLgwFtODroll392Myr2nUXfoostjddVt0FW3IWllDtLXLoA6LJAF9DDVzb2w2MaOefaVyxAepHK7wD2d1q5dK2zztq3IWQuaqzLiQ/DQ1xciOUa8XrfF5sBz716E1S49v2NZbgwSIgMYuHk5XRlXYRsAzr5+WDiURK7wRc4NRSyih/GRy5CztQihKdGoO3QBvQ1dLo9vOn4JXaVNSPvKAqSsymMBPUiVi95tha8M/mrvfgk+dOiQ9M+QG211P12B+7HHHhtz+y9/+UsGbrrqXIVtAPj7B+XQ9kkPJfHzlePG1eksIgP3zCp/96TL9bpzbijiNu4e7LMlIusOXUDtoYuwGcUf6ZoHjCh/9yQ6LwfvyJwEFtADiIaTRASrIJfLxkxKIiJyJ28frnG5XvfXVqd59Sd5DNyz8Yv2ozNoOFYmbI9ZkILka+axUF4g7Sv5iMpLQt2hi2g5Ve3yWF1tO3S17Uhano20r+RDE85hJu6qvq0fnb3SS7Fdmx+HkABuckVE7uvDEw04fLZF2F6QEYnVBfEsFAP3zGk5VY3q/eeE7QHRISi4czUL5UUCokKQ/41ViM5LQu2hi+hrHGeYSXElOsuakLZ2AVLH2U6e5qaqFune7bS4YMxPC2eBiMhtnSzrwJ7iBmF7TJgGd2/OYaG+gKuUzICoeYkIiJbe+ttXqcCSe66HXMH3Ot4oen4yVjy4FdlbCqFQu97S26I3oeL9T1H8fz9EV3kzi+dmRMNJvH1pLCJyf7mpYYgJk14iUOknx/1fWwA/XzkLxcA9s/wCVFj+vS0IiBn9i9VH5oPF31oH/4ggFsmL+ch8kL4uHysevAHxhRnjHt9T14GSl/bj4s5PMKgdYAHdQK/eLJwwmZUYwgIRkVsL1PjhodsWjdm8S+bjg/tumI/IEDWLxMA9S6HbX4UVD44O3Qu+fi0isjieiYYFxISg4PbVWHz3unFXuwGA5pOVOPHn3ag7fJHFm+OqmvvgdDrH3B4ZokZGAgM3EXnA7zC1Atu/FLrvWJ+NnGR+isfAPcsUaiVWPLgFQXFhSF0zHwlFmSwKjRGTn4IVD25F1qYl8FW5ns1tNZhxafcpnHj2A3SWNbF4c5RoOEkWh5MQkQfRqHyx/bZFSIgMwLoliVieF8OiCLjdQOLiv3wIAEhdPR/ReUluEbqXf2/ruEHqSmmrWlFz4DwAYPkDW3hluxkfuQwZ1xeMLCPYeqbW5fG99Z04Xd+JhKVZSLlmHoLiOQlvrnA6ncLhJNkcTkJE43hm5/CiC+sWJ2BBeoRbhO6Hbls448ucXmrswUefDnc0PfT1hQzcM2nIMYSe2g4AQNzCNPcpsmrm16A0DxhHajNkd0DGyQpuKTA2FAV3rhlZRrC/Revy+JZPq9B6qhpJK3KQtCIHgbHsQb3aqpr70Ks3j7ld5SdHViLPDxGJORxDqLm8wtGS7Ci3ed6zsadA/6B1pDZ2xxB85e41SINLZRDNQbEFqZd7uy+i9tAFOKx24bFOpxONxyvQ/GkVklZkI2lFDgKi2JN6tQiHkySGwp8bQBAReSUGbqI5SuYrR8b6hZd7uy+g7Wydy+OH7A40HCtH88mqkR5vrogz+0Trb3P8NhERAzcRzVFBcWFY+M21I5vmDLTqXB7vsNpRf6QUzSerkHw5eKvDAljIWdDZa0R9W79kG8dvExExcBPRHBe7MG1kbHfTiUuw6E0uj7ebrag9dOHyUJMcJK3IhirYn4WcQaLhJKmxQYgJZ+2JiBi4iWjOkyt8kblhERKXZaHpxCU0nbgE66DF5X2sg2bU/Pscmk9Wjgw1UQZyU4KZUMXlAImIiIGbyDOogv2RtWkJEpdmo/Fy8LabrS7vY9GbUL3v7EiPd/KKHCg0ShZzmlhsDlQ390oHbq5OQkTEwE1E7kkdFoCcrYWjerxdrWgCAOa+QVTtOY2Wk58PNfFV+bGYV6i6uQ8Gk23M7RHBam7nTkTEwE1E7s4/Igjzti1F4tIsNBUPB+8h+5DL+xh79Lj0wSk0f/r5UBO5gi8JUyUeTsKwTUTEwE1EHiMgOgS5X1uOxKXZIz3eTqfT5X0GuwdQ8d6no5YTlLnZhgJzQXULh5MQEZE0/lYl8kCBsaHIu3kFrtn+VSQuz57QfQydfSj/VzE+efo9NB2/BDhZx4mqbx9AS5dhzO1+vjJEhmhgsthZJCIiL8YebiIPFhQfjgW3XjM81OTEJbScqh73Pvr2HpS+cxzNn1Yhfkk64halwy9AxWK6UFYnvTZ6SKAKpXXaka/VSl/kJIcilksEEhExcBORZwlJikRIUiQSlw0PNWk9XTPuffpbtOhv0aL24AXELU5H/OJ0BMWHs5gSSuulA3dE8OjlF9nTTUTEwE1EHi40JQqhKVEjq5qMt108MLycYP2RUtQfKUXswlTEL05HVG4Si3lZVXMvWrvHDieRyXwQFTp2vXOVH192iYi8jduM4e5t7MLeh18e+br07eM4/8YRnkEA5984igtvHhv5eu8jr0BX087CkFBYWgwWfnMtlv3nJsTkp0z4fu3n6lHy0r9x4s8foPH4+Gt/e4NSwXCS6FAN1Mqx4VqtlPMCJKIx6tsHsP3/HB35+h8HqvDq3goWBsBreyvw+keXRr7+r/9zFFWCfQ/mKna1EHmx8Mw4hGfGobuyFU0nLqGztHFib4AbOtHb0Im6Q58PNwmI9s7l70SBOyJEejdP9nATEXkfvvITESKz4xGZHY+u8ma0nKpCx8WJBW9TrwG1B86j7vI477jF6YjMjveqsN3dZxpzu1rpi6hQjUTYZu82EREDNxF5tajcRETlJqKvsQutZ2rReqYWdtP4w0acTidaT9eg9XQNwjNiR3q9Zb6eHTBFkyWzEkPh5yuTCNx8ySUiYuAmIgIQkhyFkOQopK1dgLbLwdvQ2Teh++pq2qGraR/V6+0fEeRxNbLaHMLlAFPigmC1OsYGbiVfcomIGLiJiL5AHRqA9OsKkLZ2wUiPt666bUL3HdQOoHrfWdQduoi4xWmIW5yO8PRYj6lNab0OfQbLmNtDA5VIiAhAXVv/2MDNISVERAzcRERSfOQyJBRlIqEoE92VrWg7U4PW07UTuq/DZkfzySo0n6xCZHYC4hanIX5xOuDj49Y1EfVuz0+LgN0xJNnGwE1ExMBNRDSuzyZYpq3NR+uZGrSdroV5wDih+3ZXtqC7suVyr3c6YgtSoQkPdLsaGEw24fjt+WnhMAs2uFEqGLiJiBi4iYgmKDA2FDlbiz4f5326Fv0t2gndV9/Ri8oPS1D90RlE5SUhen4yovOS4KtUuMX3Xlavg9E8NlTHhGmQmxKGE6XS6+Ar2cNNRMTATUQ0WX7+KqSsykPKqjy0n69H6+ladJU3Tei+Q44hdFxoQMeFBqiCNYjOGw7eEXN8acFSF8NJAMBic0gHbvZwExExcBMRXYnYglTEFqSip77zcq93DRxW+4Tua+43ovF4BRqPVyAoLmyk1zsoPnxOfY+9ejPKXAwnAQCLVRC42cNNRMTATUQ0HcJSoxGWGn15dZPhcd6D2oEJ33+grQcDbT2o3ncWEVnxiM5LQvT8JKiC/a/691Za1wObfeykyOSYQKTHB8PpdMIx5JS8r58vAzcREQM3EdE00oQHInP9IqStzR9Z2aSnrmNSj6GtaoW2qhWXPihB9Pyk4fCdlwyZxMYys0Hcuz08nMRkke7d5golREQM3HOe5AJiE1xWzGoww2aywG62wW6xwTpoht1sG7nNZrLAZrTCZrbAbrTCZrbCZrLCZrRgyO6Y1u9DrpBDoVFCoVZCofYb/rfms3+roNAM3+b32TEa5fBtauUki0M0d8gVciQuy0bismx0X2pBZ2kjOkubYDGYJvwYDqsNbWdq0XamFpqwQETPT0JUXtKsru3d2WMUB+7Uy8NJROO3ucskEU0y5/hMMOfojVaYLHaYrA5YrHYMmuwwWe3Dt1nsMJntMF7+t9FsG/778tdSn9hdCYWvDP4qBdQqX2iUvmP+rVH5QqNSjNzurxz+WqNy8RopUQcfNws/bv0bwKo3oeNCAyx6E6yDZlj0ps//PWCE1WCG3WKbU8/ZYXPA0W+Eud846fuqgv2hDvGHMlgDVbA/VMEaqEL8YRkwMYST24jMSUBkTgKytxais7RpOHyXNU3qMYw9etQfLUP90TKEJEVeHnKSjIDokBl97mXCrdxDkBAVMPJ1oMYPVptjVPjmhEkimiz9oBXnqrsxYLTCYLRhwGiFftCKQbMN/YNW6I1W4ZyRq8VmH0KfwSK5Mdh4QgKUCA1UIjhAiZAAJUICh/8eGLS6fc5xm8AtNSKyu7IV3ZWtXvODZ+4fhLl/cOoFI5pDFGrlyGY6hq7+y8G7EX2N3ZN6nL6mbvQ1daNyz2lE5SaODDnxC1BN+3Meb3USYHinyVUFcZ93DNiHYLU53H2fHyK6CjmnorEHFY09XlODyQR1p9O9gs6cD9wdFxrQcqoaukmO+/R2JS/tR3BiBBKWZCC2IBVyN1nfmLxTQFQwAtblI31dPnpqO9BZNjzkxNijn9TjdJU3o6u8eXi89xfW954OLV0GVLf0jbndx+fz1Umk+PnK4HeVxpsT0dx3rrobxWUdqJF4fSGx598tRVJ0IJblRmNRVtSc/xRxTgbuIbsDdYcvov5IGWwmC6+qKXBY7eip7UBPbQfKdp1A0sp5yNq4GHKOI6U5Liw9BmHpMcjeUojOsqaR8d4Om33Cj2EzWtByqhotp6qhCQ9ERGYcwrPiEJEZD4Xab0rPq9TF2O3IEDVPHBFN/DXKPoSDp5tx8Eyz5CZaND6rzYGalj7UtPThrYPVWFUQj60rUuA3R4P3nEtfNqMFnzz93qR7tshF+LY5UH+kFB0XGrD6/70ZcgVDN819Ml/5yLrepr7BkeCtq2mb1OMYdXo06SrRVFwJhUaJiMy4kQCuCZv4tvKltdK7aH5xOAkR0bivSWYbfr/jNHT9ZhZjmt/AnKvuxs++VTQnl2Cdc8mrt6GTYXuGmHoN0Lf3IiQpksUgt6IO8UfKtblIuTYX/c3akYmW+o7eSb+hbz9fj/bz9YAPEJEZPxzAs+JcbrBTWqdDY+fY1yWVn9zlcBIioi+raxtg2J4hPQNmtGsHkRwTxMA9HucQZ/uxvkRiwYkRCE6MQNbmJegqbx4Z720dnOQvMOfna3zjg+HHHQ7f8QjPGL3U4JnKLsmHmJ8WjiB/P54UIpqwISd/D89ofedozuHYAiJyW1G5iYjKTUT2FstI8O4qb5rSY/U3a9HfrEXtwQvQRASN9Hw7I0Nxpko6cOdn8NMi8jzvvvsu/v73v2PlypX4z//8TwQHB7MoRAzcnmfetqWIXZgGmVyG5lNVqPygZPoenEuTkQfy81cicWkWEpdmwdDZNzLkpK+pe0qPZ9QOoEk7gKYTlwA/BRbIldAq1dCp1DDJh182YyP8sSiTgZs8y1tvvYVvfOMbo4L3Rx99hKSkJBaHps1Nq9OxODsKcpkPiss68N7HddOYc+Zm0GHgnmOytyxB6pr5I1+nfyUfTocTVXtPT89/wE+yyMMFRIcgIDoE6dcVQN/RC11N+8gfu9k6+Qe02hALG2JNBjgB6FRqaJUa5OYybJNnKSkpwd133z3qtkuXLmHJkiXYvXs3li1bxiLRFdt2TRrWLUkc+Xp9URKGhpzYfbx+mnIOh5TQBCQUZY25LfmaedMXuIm8SGBMKAJjQpFybS5sRgt0Ne3Q1rRBV92Owe7+ST+eD4AIswkRZhOG9utwvLJuZMWT2dxinmi6tbS0YPPmzbBYxi7Fq9VqsXr1arzxxhu4+eabWSy6Iivmx4y5bfXC+OkL3HMUA/dcOyGqsRvUTHXdYGFiIPJCCo0SMfkpiMlPAQD01nd+3vtd2z6lx/xsl8uaA+fhHxmM0NRohCRFICQx0uWqJ0RzyeDgIDZt2gStVguVSoWCggKcPHly1DFWqxW33HILfv3rX+PnP/85i0ZTpvQbu2SfWjmNcZRDSmgidNVtiModPVau40IDC0M0zUJToxGaGo2M9Qth1Omhq2kbDt/V7bAYTJMPLd39GOzuR8unVQAATVgggpMiEXL5T2hKFItOc9Itt9yCsrIyAMNjuLdt24b77rsPf/vb30aOueuuu7B37148+uijqK6uxiuvvMLC0ZRUNfWNWU71XHW3x3/fDNxzzLkdR7D47nWIyIoHMLxyQuk7x1kYohmkCQ+EJjwbicuy4bDaoatpx6dHKmBo6kKQzTqlxzT26GHs0aP93PBkIGWgGiFJkQhOHA7fYWkx8JHxIye6ur73ve/ho48+AgA8+eST2LZtGwDgxRdfxIIFC7B9+3YAwOuvv47f/OY32L17N1599VXU1dVh9+7dXMGEJu2VPRW494Zc5CSHAQAaO/V462A1AzfNLrvZhk9f+Aia8EDIfOUwdPaxKESzSO7ni5DMOJScaIUuyg/BNgvCLSaEWcwIt5ggm+KEHIveNLxVfdnwsoW+SsVwAE+KRFhqNMLSYiD340syzZ5nn30Wf/nLXwAA3/rWt/Dwww+Pan/ooYeQm5uLr3/96+jv78fPf/5zPPLIIwgMDMT+/fuxbNky7N27FykpKSwmTZjZasez71xARLAavr4ydOgGveL75qv7HGXUzdBum1ylhGhcZ6q6oRsY3kinX6FEv0KJugAgwGcI3yqMhbVVC11NO0y9hqm/ubbYoK1ug7a6DbUAfGQ+l4efDPd+h6VHQ6FW8mTQjNi/fz9+8IMfAABWrFiBv/71r5LHrV+/HiUlJdi8eTNqamrw5JNPjrRVVlZi8eLF2LNnD1cwoUnT9ptm5oG5SgkRkZsEbsHOknnz4pBzbc7l13TnqCUH+xq7rux3xJATvQ1d6G3oQv3RUgBAUFwYQi/3foelxUAZqObJoStWVlaGm2++GUNDQ0hPT8fu3buhUCiEx2dkZKCkpAS33nor/v3vf49q6+3txfLly3HkyBGsXr2axSVi4CYiGl9dWz8qGnsk2xZlfb72to+Pz/BulJlxAABz3yB6G7vQ19h9+e+uK34uA209GGjrQeMnFQAA/8hghKV9HsDVoQE8YTQp3d3d2Lx5MwwGA4KDg7Fnzx6EhYWNe7/g4GDs378f27dvxzPPPDOm/Wc/+xmOHTvGAhMxcBMRjU/Uu50cE4S8VPFSf6oQfwSrEqBJj0OiXAb7oBkDTd3QN2vR3zQ9AfyzlVCaTw6vhKIMVCMoLhxB8WEIigtDUFw4/KM4iY2kmc1mbNmyBc3NzQCAt99+G5mZmZN6jKeffhoLFizAfffdN+p2Hx9OACZi4CYimgCDyYYzVdLLUy3OGn9nybq2ATR1fnH+hQyIisL85fNQ6K9AT13H8LCRaeoBt+hN6K5sQXdly8htcoUcgXHhwwE8/vLfcWGQ+cp5gr3ct7/9bZSUlAAAnn/+eVx33XVTepx7770XWVlZo4aQ/PCHP2SBiRi4iYjGd6ayC3rj2GUAVX5yLMoafx3toSHpyToymQ/8AlSjNt6xmazoqW1HT13ntAVwAHDYHOiTeLyA6JCRXvDhHvFw+AWoeNK9xKFDh3DkyBEAwPbt23H//fdf0eMdPXp05N+PPvoobrzxRhaZyFMDd2BsGGIWJPMsYnisZ2dpIwtBdCWBu0o69C7KikJo4PgrhjgEgVsusd62Qu2H6PnJiJ4//Bpmt9jQU9eBntoO9NR3TlsA/4yhsw+Gzj60na37/I1EkAZB8WGjesT9I4J4IXigz8L2+vXr8Yc//OGKHmv37t149NFHAQxvmvOrX/2KBZ4h8REByM+IYCEAtHYbcKFWy8B9NQTFhSJzwyJehQBaSqoZuImuwKXGXtS29ku2Lc6a2C6RjqEhQeCWjf9irFQgal4iouYlAgCG7A701HZAV9cxPBSlvnPav2fzgBHmASO6Kr4wJMXPd8y48KD4MPhM4HuguW3evHnYtWsXZFdwLi9cuIDbbrsNTqcThYWF+J//+R8WdgbFRfpjy4oUFgLAyfIOBm4iIncn6t1OiwtGTnLoBAP3xHu4xyPzlSMiOx4R2cO7zjqHnCM94Lq6dgy09sButk57HRxWO3obOtHbMDrgB8aEora/iReKm9JoNNi3bx/8/f2n/BgdHR3YuHEjTCYTEhISsGfPHiiVXCueiIGbiGgCegbMwtVJJjJZciSsOgSBW37lKzj4yHwQnhGL8IxYZGL4kz2jTo+BVh36W3UYuPzHop+ZzST0Hb3QNrfxYnFTd911FxISEqZ8f5PJhI0bN6KjowP+/v7Yt28fIiI41IHIbQO3f+TEl7TiLmyf89NMrBZKTpIiGuPTik5YbI6xr0cqxYQmS44E7mns4Z4ITXggNOGBIxMxgeFhIgOtOgy0fB7Er2RHTPIMcXFxU76v0+nEbbfdhgsXLkAul2PXrl2YN28eizpFUSET38BKo1KwYF94PZ6IAI0fA/eEChUdgqX3b0Rvw/gThhKXZ/MK/OwHODcJ2VsLMSQRGj6jDg2AhhOiiEYxWewoLm2XbFuUFYkg/4m/eF/JGO7pogrSQBWkGRkLDgA2o2VMT7ihq58nnybk4Ycfxu7duwEAf/rTn7B+/XoW5QrEhPvjwZsLUNfm+mfQxwdYOT+WBbtsflo4vnptGmz2IeEx4UEqRIbMzR155+SQkoiseERkxfPqmqT0r+SzCESTdKKsHboBs2Tb4kn0bg8H7pkbUnIlFBolwjPjEJ75eS+nw2bHQGvPmCA+W3S17fjk6fcQlhaN8Iw4hKXFwJe9eXPOyy+/jP/+7/8GADz00EN44IEHWJRpkJMcOuG5IfS59UVJbvvcOYabiLyWY8iJ4tIOyba81HBkJoZM6vGE63DPwV345ApfhKZEITRl9JuKUQH88rCUIbtjRp5Df4sW/S1a1B8tAwCEJEUiPIM9ejOhuLh40vc5fPgw7rnnHgDA1q1b8fTTT7OQRAzcRESTDCGl7WjXDUq2rZgfM+nHc0rnbcjcaNfroPhwBMWP3sLe0NmHgVYdtHutwFsz93/3NXWjr6mbF+YM2Lt3L+6//3688MILEzq+uroaN998MwBgwYIFePPNN1lEoivAhVWJyGudKJPu3c5KDEVBRuSkH29IkLh9fHzcuk4B0SGIW5yOpJU5vGjc2F//+lesXgTgF7MAACAASURBVL0aOp3roUO9vb3YsmULent7ERMTgw8//BABAQEsIBEDNxHR5Jyq6ERjx4Bk21R6t4Hh1Rw8MXCTZ1izZg2OHTuGwsJCVFRUCI+75ZZbUFNTA7Vajd27d1/RcoJExMBNRF6suEx6ZZLUuGAU5kRPMXBDELhZb7q6lixZgsOHD+OFF15AQ0MDli5dig8//HDMcffeey8OHToEAHj99dexZMkSFo+IgZuIaPLO12hR1dwn2Tbdvdsypm1JoUlRyP/GKsQvyYAqxJ8FmWE2mw0A0NU1vOSuwWDA1q1b8eSTT44c88c//hEvvfQSAODJJ58cGcNNRFeOkyaJyOuIercTowKxIm9qq2QMsXd7UmQKORKKMpFQlAkAGOzqR099B3Q1HSzODLhw4YLk0Kaf/OQnOHPmDG6//Xb86Ec/AgDceeedePjhh1k0oul8zWMJiMibVDT2oLROetLYVHu3Ae8Yv30luxV+WWzs6Dc2/lHBSFyWjYXfXMOLVFCjK+FqaMjOnTtxyy23DP8MrFiBl19+mcUnYuAmIpo60brbMeH+WHGFu7qFBanG/AkPUjEAznB491TTWaNt27bhmWeegVwuFx6TkpKCDz74AAoFNyAimm4cUkJEXqOurR9nqrok21bkxcBXPvU+CF+5DMvzYjy6foGBgcjIyEBNTc0VP9aiRYt4QY7j2muvnbbHWrp0KTZv3ozs7GzceuutMBgMo9pDQ0Oxb98+hIZy90OimcAebiLyGicEvdsRweor7t32FuvWrZuWxykqKmIxxxESEoI77rjjih8nIyMDmzdvBgBs3LgRxcXFSExMHHXMrl27kJmZyaITMXATEU1dS5dBOFlyxfwYqJX8wG8itm3bNi2PkZWVxWJOwG233XbFj3HXXXeN+jovLw+nT5/GY489hptuugmffPIJ1qzh2HmimcTfMETkFURhOzhAyd7tSbjhhhuwbds2vP/++1N+jPvvv5+FnMSbk/T0dNTW1k7p/nFxcfjOd74z5vbIyEg8/vjjLDDRLGEPNxF5vK5eo3Ab9xV5MQjU+LFIk/DDH/5wyvf99re/jRtuuIFFnCC5XI7vf//7U77/j3/8Y05QJWLgJiKaecVlHbDaHGNu16gU7N2egrVr147sRjgZN954I/7+97+zgJO0ffv2KfVG33777di+fTsLSMTATUQ0s/oMFpdjt8M8aNm+2Q7dpaWl2Lhx47jHBgUF4fHHH8euXbtYuCl67LHH8NZbb02ot1qlUuEnP/kJ3njjDRaOaI7gGG4i8mgfn2+D3mgbc7ufr5y921coLy8Pe/fuxd/+9jcUFxejpqYG1dXV6OnpQWZmJjIyMpCRkYG7774beXl5c/J7+GLPsVGnh6GjF/rOXpyrL8fF5so59Vy//vWv45prrsFf//pXnDp1CqdOnRrZqj0qKgpFRUUoKirCHXfcwUmpRAzcRESzo103iMNnWyTbVsyPQXSohkWaBvfeey/uvfdet3zua9aswdq1a0fdZh4w4itr1wLNc+/5xsXF4bHHHhv5uqqqCgAYsIkYuImIro4jZ1thkRi77ePjw95tElIFaaAK9neL58qgTeQeOIabiDxSTUsfPrnYJtl2bX4s4iMDWCQiImLgJiKaqsNnWyVvVyt9sWZhAgtEREQM3EREU3Wuuhvna7ol29YsjEd0GMduExERAzcR0ZSJJkpGBKuxZhF7t4mIiIGbiGjKPr7QhtrWfsm2NYviEaBWsEhERMTATUQ0FWarA0cEvdvJMUFYy95tmoO0la2wW2wsBJEH47KANK0cTjvsQzbYh2yj/m132uC4/G/AB74yxed/fBRjvvbx4XtBmrwjZ1vQ0WOUbFu7KJ4Fojmpt6ELJ//yITKuX4jo+cksCBEDN3kr+5ANRvsABm2f/7E4TCNh2j5kh2PIBiec0/L/yX3klwO4H3x9FPCTKxHgF4IARQgCL/9N9EXafpNw7HZeajgKc6Jn5XmYrQ5YbZf/2IdgsTkQHaqGRsWhLCTW36LD6ZcPIOXaXGSsXwg/fxWLQsTATZ7KbB8cDtQS4Xo2OZwOOBwOWBzmkdu6TaPXVP5i+A7wC0GgIhgqX3+eRC915GwrDCbpj+XXLJyd3u2SS13o6h3bw65WRjFw04Q0fFwObXUbMtcvROzCNBaEiIGb3JnT6USvpQu95q5R4XrI6XCb78Fg64PB1jf6gpYpRoJ4qCoaUeoEyDg8xeM1dgwIe7eX5sZgXkrY7Lygyn0kb7fbh3iSaOKvbZ19OPv6YWir25G5fiFUIexIIGLgJrfgGLIPB+zLIbvPovXI79M+ZEOfpRt9lm4066sBAFGaBERrkhCuioWfXMmLwQOJNrmRyXxmrXcbABS+0m/ubA4Gbpq85pOV0FW3IWvTYsQtTmdBiBi4aa6xOizotXShz9KNfovWYwP2RHQZW9BlHO79jFTHIVKdgHB1DNS+3NrbE5TV61ByqVOybc3CeCRFB87eC6pcOnDbGbhpiow9epzbcQSmXgPSrytgQYgYuOlqMjuMI8H6agZsmY/sCyuP+EEu84Wvjx98Zb7DEyBlw5ecfcgG25D181VMPvu30wr7kH3Gnl+3qW1kLHi4Kgbh6liEq2IQ6BfKi8hNHRH0bgdq/GZ9GUBh4OaQEnIhNG38Cb2Ve07D2GvAgluvYcGIGLhpNvVZuqEztUNn7piVgK3y9Ye/Igj+vkHDfyuCvrCSiC98ZQrIfORX/P844RwVwm1DVuitvdBbezFg7R0zbnuqdOYO6MwdAIBgZTjiA9KREJDBC8uNnCzvQEVjj2Tb2kXxCAua3ZUeOKSEpiIiMw5L79yEmv1n0VPXKTyuubgSph4Dlt6/kUUjYuCmmdRj7oTO1A6tuR16a++0P74PfC6H6eCRUP3ZH7nP7FwuPvCBQuYHhcxv5LYwVfSoQD5g7RkVwvXWHgw5px5q+i069Ft0aNHXICEwg8HbDZitdhw+Iz1RMjbc/6ps4c4hJXQloTs8IxY1+86hev9Z4XHaqlYc+f/eRtF9G6AJD2ThiBi4abpoTe3QmduhNbVj0NY/bY/rJ1chVBmJYGXESKjW+M79F3Af+CDYLxzBfuEAhjfbaTfUQ2/tg9lhwpDTjkG7Hmb74KQfe8Dag3LdpwzebmBPcSNaug2SbWsWxUOpkM/6cxIPKXHyhNH4r20+PsjcuAjBieG4uPOT/5+99w5uLU3P/J6TDzJAAMw53NA3dc7dak3o1kgajaSZ1a4lSyp5JdvSyluy1uuyXbXlsq1d25K95V25tsou26WwO9JqRxMUO2hCd0+He7tv35wvcwAIEiDSycl/gASJiwMQJEESIL/frVsM5wA8+E56vvc87/tCK7iXY5VWcnjv976Jp//hFxGb6CUDRyAQwU3YDbZjlUV2WklANotNeV8fF0JIiCIixBEW4vBxwbYfK8PWsFScgWFrUC0ZHtYHHxfCQGACBX0NK8oiUvIi8nqaCO8jxO2ZDL53ed512Xh/GC+dOxwRUqssILGUEHZC52ODeOpXPLj5jQ+QX3K3TNmmhUv/15s4+7WXMPj8STJoBAIR3IRGMG2jHMVOKwmolryn96NAg6FYCIwIPx/GSOgxBPmOIzVmqikjIc3AtA0U9DXYjgXbsWE5paTLAB9BgI9gNHQWslHAqppAekvSJBHe7YllO3jz45mayw+yDOCj8DWi6oZhkR1H2BHhwThe+M2fxOU//C5W7y3WXO/mNz6Aki7g5E88TQaNQCCCm1CLZXkOKXkBaTUB3dJ2/T4C40FIiEJkfDBsHbZtwrB1AICPC0A2CkdKcEtGHsvSHEzHQEHPwln3bzuODduuFjdeLoBBLoDBwAmoloy0kiw/QdgYJyK824M3P57BdCLvuuyZ0114fCLecoJb1YngJuwchmfx7K+9gWt/8h4WLz+sud7k969DzhTwxC/+KBk0AoEIbsJWsZiU57AszaK4B0+2h/Uj5ulF3NOLmKcXgIO5/AOoloS8mQHHCDAsDaopgwINw9bA0e3f+CWvpbGiLJUi20YWFErR7IKehQ0bDhzYjlWzYorIeNHnH0WffxSapWCxOIXF4iSUBqw7G8J7VVnCaOjskXtq0Oo8WMjizYuzrssCXh4/9tzQoW4fX6NKie04sCwbDEO6nhJ2zoX/6FUIQQ+mvn+j5jqJa9MwNQPP/OrrZMAIBCK4jzcpeX5daM/Bwe6SqETWVyGyKVBbxOAaDFuDbBRAUaVqI5KTg2Yp8LA+ZLVVxD19bT2GaSWJrLYC3dYg6TnQFIMAHwZNMaApGo5TGlfLMRsqUSgwHoyGzmAwcAKLxUksFqcaKjuYkheQUZcxGjqL4eBpcnAfEG9+PFtz2Y89N4TOiPfQt1HkGdeItmbY8BLBTdglp37iGYT6Y7jyx9+vuc7K3QVc+9P3cOEfvEoGjEAggvt4IRuFksiWZ1HQd1c/WmA8ZYEd8/SBpqpv2rZjI6Msl5vJeFg/KFAQWR8K+ho0S0FBW0NU7G5KreyDxoGDlDSPolGaQMhGAQzNIsCFQa2PB0VR5dKAlm2B24G2YWkOQ8FT68J7CovSJHJa/URL0zZwf+0KMuoyxkLnEBKi5IDfR96+NIf78+6lMM+NxvDq460xmRS4WoLbglckl1zC7um5MILQQAzv/963YBnuDcIWP30Iwe/BqZ98hgwYgUAE99EnJS9gWZ7Dsjy3q/rQPCNuEdm929bAzmorsBwTilkETdEQWW9ZSDI0C9WUITBe5LQ0ImJnW42l7dhISjNQTAmKWYRqyuBoHj4+VBHhp0HDxrrgdnbXrZKi6JJHOzCOJWkai8VJrKmpuq9ZVZbWRfdZjITOkIN/H5hN5vHmxRnXZRxL441DtpJUnLs1fNwaSZwkNAFvRwBv/M+/hPf/t2+hkHSfgE794AZ4v4jR186RASMQiOA+eihmEUmpJLLzembHr+dooUJkszTX0Ossx0ROW4VuqbBss6rcn8j4IBk56LaGrLaKsBivEKqtjGWbWJKmoVtq6TNYGnhGdC1pSFE0nPW28LsV3Fvp9Y2g1zeCZXkei8VJrNapbmI7Fh5kr5WEd/gcwkKcnBBN5M2PZ2HUaI/+xnNDGOpunfrxtep/60RwE5rIK//Vz+DDf/2XyM6tuC6/+1efgOFZDL1ILG8EAhHcR4QVZRHL0hyS8hxsZ+c31binD13eAcS9/RXdFRsloyzDdmwoZhEMzYJnKttZ84wAxaShmhJ4WkBBX2uLZD/dUtfL/uko6Nl1q4wPIutzXZ+m6C2WErNp29HlHUCXdwCLxSlMZq/XLdmYVpPIJEuiezR0lpwcTeD7ny3g5rS7vWe8P4w3nh1qqe0V+BoRblKphNBkXvzHX8a7v/vnkFLuyfe3vvkRaJrGAKnTTSAQwd2u2I6FxeIUlopTyO2wqQpQKlPX5R1El3dgT+LXsDXk9QxUS4bt2AhwIdf1RNYH2SjAtA1k1ZWWF9yKKSEpzcByTBT07HrkPgSeqV1lhULJtO3AgeU0X9z0+UcREeJ4mLuOpFQ7ec+Bg4fZ68ioyzgReYJUMtkDS6tSTSsJgJaykpQFN8dA5Bl4BA5ekYVHKP2PBASyQwlN50f+6Vfx3f/xT2p2pbzxjQ9AMTT6n5kgg0UgEMHdPuiWhiWpVM1CMvI7fn0pWloS2hS194oFaSUJBw5UUwJH8zVtKDwjlvzPlgyW5iAZ+ZbtNFk0ckhJ87AcCwU9A9txEODDYLeJ/m8kkzpbmt80Gy8XwPnYSwgLcUxmr9et4Z1Rl3El9S5OdzyDTm8/OXl2wZsXZyCr7vvy808P4NRgpOW2ebgniOGeINl5hIOBAl75Jz+D7//zP6uZSHn9378PiqHR9+QYGS8CgQju1kYxJSwWJ7FUnNpxF0g/FyqJbN8g/DUi0LtBNWVIRh6qKcFxHHh4f51rMgWB8UI1Jdishay22pKCO6utIq0kypFtAAgKkW2TRoFSlRKglGRp2+a+budg4EQp2p29jhWldhc4zVJwdeU9nO54GgOBE+RE2gEfXF/Clfvu/tS+uP/Qa24TCK0C7xfx0m/9FN77vW/WXOfa198FTdPoeXyEDBiBQAR361E0suuNUaZgNtCRcFP80RXR7P1gVVmC7VhQTRk8I24rSsV1wa1aMmiKgWYpEBhPy4z1qrKEnJYuebaNHGjQCPCRijKIDpxSN0nHBkOzFcmfm5YSe18sJY8S4CN4ovNHMJO/g4fZ63X9+3cyn0K1FEyEL5CTqgFWsgr+9mL9mtsiTy5fBMIG/q4wnv+NH8fH/+Zvaq5z488/gC8eRLCPlDAlEIjgbhFy2up6PeapctvwRgjyHWWh7eX2r3LCRj1qxZQAlLpObj8JoCAwHmimAg/rR1ZdQZdv8NDH2oGDZWm+XElF0ksJQAzNQDLycFAS2OX27bBBgQbHCBVPDDaEub2PlhI3hoOnyxaTtJqsud507hY0U8bZ2AvkBNuGNy/OIlfUXJe9dK73UNu3EwitSsdoN5785c/hsz/8nutyU9Fx/+0rePpXvkAGi0AggvtwSatJLBWnkJBmGn4NBQo9/pFSpZED6OTowEFaScJyTOiWCpH1VkSBLduEasnlqh5bq5aIrBeapUAzZVCg0GHru6qM0ixsx0JCmoFqylAtGYpRLE8OLMcCTdGgKQYszYEGDdMxoZoSGKpUdYUGXZ7YUGUPt9PUKiWNEBZieKrrc5jM3sBkrnb75SVpGqol4+muz5OTrQbvX1vEpdvuE5doUGzJREkCoVXoPjeMs197CTe/8YHr8tStOUy9exOjP0KqKBEIRHAfAil5AYvFKawoCw2/hqFY9PnH0OcfRYA/uOSt/LrtYqOF+0aZPN1SoVkKdEstbR/NIq9nwNMivJwfLM2DphhwjADVUiCyPuS0VcQ8vYcy5qZtYKk4DcPWADjgaB6CEKubTFo0smXrDEcL0CxlvdGPr2wvcWDDgQPbsV27cu4nY+Fz4BgBdzOf1lwnoy7jh0t/iZd7v0xOvEd4sJDFN9+drLn8jeeGSLUPAmEbBp8/CV1Scf9vL7ufZ299ho7RLoQHyJMiAoEI7gMiIc1gsTiJjLrc8Gt4WlgX2mP7ahtxw3ZsZNRUuYW7yPqgmQq09bKALM3BywWgmjIcxwHPiKBAoaBnwdE8PFwAIuNFwSq1e8/ra+gQuw683btuqViW50FRgIf1gaYYMBQLhmbXvy/9TFMMGJoFQzEwbRPzhfsAB0hGHh7Wt959UgJNMeAZsbIWt2OCpg4+ej8YOAGO5nErfbGmr1s2Cvju3J/h5b4vt5SP/jApKga+9e4kTMvdwvXkiU68cLaHDBSB0ADjn7+AwlIGiWvTVcss3cSDt67gmV99nQwUgUAE9/6yUHyIxeIkclrjNbRF1os+X0lob7ROP2jWtBRsx4JilqwX6rqHm2N4+BgfWJqDYWtloe3AgY8LwrA1yEYReS29LkyZ9XbvHuS1DMLiwUY6eEbEQGBndWELxmbFik5v33oEm4EDG5KRB0XRpW6TW5rfHJZdpsc3DJHx4sbqhzWr2liOiXcXvoXnet5AiCdJTN969yHmUwXXZV6RJVYSAmGHnPjSU8jOpqBkpaplK3cXMPm96xj73HkyUATCAUAftw+ckKZxKfk2bqcvNSy2vVwAE5HH8XzPlzAWPndoYtu0DeTUzRbuG8I1KETh58LgGRFhIY5u3wh8XBBeLoBObx8CfAQcLSAkROHl/DBsDbZjwXYsGLaOrLYKB07L77vieplAAAjwHej2DYNnRPi5MBiaRVHPwnEc2CgJbts53M5+EbETL/T+OAJ8uO56FxNvoWjkjvWF6J1P5nDpTu2nTF95eQy9MR+5YhMIO8AXC+LEl56qufzBW59hbSZFBopAIIK7eSzLc/h0+bu4sfoRstpqQ68J8BGc6ngKL/R8CSPBx8DTh+sdzajLcOBAMSUIrAchIQYfF4TAiIh6ejAUPIWopxs0tVkqj6E4dHr7MRA4AS8XgMB4ERJi5UmDakqwHLNCzLak2DZyMG0DAMDRPHxcEDRFo9c/Apbm1ssHMrAdazPC7ZiHvt0czeOFnh9Hh9hVd70Pl/4auq0dy4vQzak0/uKHUzWXf/6pAbx4jlhJCITd0PfUOIZePO26zLZsPHjrMzJIBAIR3HtnRVnEZ6kf4NrKDxv2aYeEGB6LPovne34Mg4GTDTVd2W90S0VBX4PtWAgKEXjZAETWi07vAIaCJxEWYhVl8TbYSEDkGQE9vmH0+kchMB54WD9CQhQ0RcNyTGS1lZbejwV9rWIitDmhYNHrGwFDMQjwEVAUVeHhbhWe7vo8ev2jddd5f+E7FfvuOJDOqfjmuw9rLj87GsVPv0q64xEIe+HEl56qWXt79cESHr5zlQwSgUAE9y5v5GoSV1fex5XUu1hVlhp6TYfYhXOxF/Fc9+vo949XNFU5bFaVRGmHUQx8XAi9/hEMBCbW7QqV27m1bvjWaDdQSlAcCEygyzsAgfHAx4XAUAx0S4NsFFpyXz66bf5HLBocI6DbN1whuh0cfGnA7TgbfR4nI0/WXG45Jj5OvnmsLkDffPchVrKK67LOiBdfe20CBAJhb3AeHifrWEvuv/0ZMpNJMlAEwj5y5JIms9oK5gsPdlRHO+bpRZ9/bN86Qu4V2SxCNSUE+AjCQhw8U9/astWPTdWYU/n5MHx8CHktgzU1VY5yH3TVlUYoGpvRbR8XdE2E9LA+dPoGsCzNwceFSrW4HbPlPstQ8BT8fBiXl90bUxT1LK6uvIfH468e+YvPX30wjeuTte1dX31tHNGQSK7SBEITiJ/qx8QXn8CDd6643TQw9d5NdIx1k4EiEIjgrk9ez2C+8ACLxcmGX9MhdmMwMIHOFhXaG1i2icHgSbA019D6bpYSNyhQCAlRBPgIstoKsuoKNEuFwLSWyClUJEvWrnfu50Iwxe5yt0frkJMmaxEVu3Eh/gqurbzvujwlL+De2md1o+Htzqd3l/HWpdm6Yvux4Q5yhSYQmsjEG09gbS6F1XuL1dedW3NYubuA+Kl+MlAEAhHc1RSNHOYLD0r1mRskyHdgMHBiW09tq7BdlYuqYMVWS0kDriGaotEhdiHId5Sa5rSQ4N6aLMmuJ0vWIyzGYdg68nqm5SwlW+nyDuB0xzO4k/nEdfls/i5YisNY+NyRu+gsrhTxrfdqT4xfudCH154gN30CYT84+WOlUoGmalQtm794nwhuAoEI7kpks4iFdaHdaCTTywUxGDiBwcAE0EL+7GbjYGuEu/HPydJcw1H0g6IyWbKxiUfc2wfTMcodN1uVgcAEdFvDZPa66/LJ3A2wNIeh4Kkjc2zatoNvvjeJvKS7i4HBCL762ji5MhMI+0RoIIaRV8/iwdvV1pLkjRmsPlhCbKKXDBSBcNwFt2Yp5Yi2YesNvUZgRAwETmAwcALsITVCOVBR42zxcFPtmxdbatZT2CK4Iw2/tts7iCVpuuU/41joLAxLxVyNJzT31j4DQ7Po9x8NEfrNdx/i/tya67JIQMBXXxsHQ1MgEAj7x+DzJzH38T1o+eqmXPMX7xHBTSAcd8E9V7iHmfwdqKbc0Po0aAwETmAoeOrQmtUcBlsj3HQbF6LZGt2ulSxZC4qi0e0bggOnparNuHGq42noloqkPOe6/Hb6EliKQ7evvTstfnB9Ce9eXay5/KuvjaMnerSa25iWjYJsoCjrKCgGirKBgqzj2ce6EPAe/ck/oTURgl4MPn/SNcqduDqNoRdOkwRKAuE4Cu5VZQkz+TsN19EGAA/jQ8zbCz8fgsB6jtVOdRpMmmx9wd1YsmQtWqF+eqOci70IPaXVPMbvr11BkO9oySoyjXBrOo0/+/6Dmst/6uVRXBiPH7lz8bP7K1h1KXuYK+pEcBMOle2i3ERwEwjNpaXVmGwWcDt9CZ+lftCw2PayAQT5DnhYP3RLg2rKWJbmj9VOtevU4W4Xdpos2e5QFI2z0Rfg50Kuy1VLxsPstbb8bNOJPP74rbuwbcd1+XNnuvHFZwaP5H4N+dxFdU46nl1FCa3DRpTbjcXPJknLdwLhuAjumfwdXEq+g4Xiw4bWj3l60OMbRliIgaU4iKwXhqVBMYuQjNyOouPtTiN1uFud3SRLtjsi68WZ2PPga1SJScpzmMvfa6vPtJyR8Udv3oGkGK7LR3qD+NoRTpIM+d1r5ueKOgiEw2bw+ZMQgu52y/mL98gAEQhHWXCn5HlcSr6N+2tXGqoyERE6cT72Ek51PA0vG4BpG2BpDh7WD54RoZoydEvFmppCcYtF4UgL7ja3lOwlWbLtBRofxZnoczWXP8heQ05Lt8ekSdbxR2/ecbVUAIDPw+Grr01A5Nkjuz/D/loRbh0Ouf8QDpl6Ue6FTx4gO79CBolAOGqCu2hkcXP1I1xdeR9ZbXXb9X1cEI9Fn8Uz3V9At2+onEhpOiaY9dJ2Pi4IluYgGXmYtoGUvNBwwmU7YzvtnTS5l2TJo0Dc04fx8AXXZZZj4mGNMoKthGU7+MO/vYO55ULNdX7ucxMY6goc6X0p8ix4jnGZFDsoSCTKTTh86ke575MBIhCOiuC2HQtTuZu4lHynoTJuNEVjNHQGz3a/XlEqTTXlUitvxwFLbdaS9vNh0BSDopGF6ZhISDMw7KPtn9xtHe7WEdx7S5Y8CoyGziDucS/NlVYTmMzeaOnt/4O/uY17Ncr/AcAvvH4KT57oPBb7smaUu0h83ITDp16Ue/nGrGuDHAKB0GaCOynN4lLyHTzMXi8nyNWj2zeEZ7tfx3j4QlXUU7Pk8ntwW5q3UKDKoq2or8FyDCwVZ2C3aNvvpgjuNq7DfdySJevhdpxvMJm7gbSaaMnt/vo793D1Qe1H0X/vcxN4/szxqYAQ8tXwcZMIN6FFqBXl1iUVK/cWyAARCO0quPN6GtdXfojrqx8gr2e2v2EJUVyIv4zzCrN6sAAAIABJREFUsZcQ5DuqLwqWCtuxYdoGaIquEpk0RcPPhWE7Ngp6FqatISHNVCQXHhmxvf5vY7JBtVlHzeOYLFmLAB+paS0BgIdr11uuff233pvERzdrTwS+8soYXr3Qd6z2Y4hEuAktjhD0ouuse6Wg1fuLZIAIhHYT3Kat42H2Gi4l36nZ5GMrHC1gIvw4nu1+HV3e2mXDVGvdv20bZf/2o7A0Bz8fgmWbKBq5I1susJ0TJo9zsmQtBgIT6PGNuAs2PY0HLVQq8M2Ls/je5drn1JdeGMYXnh44dvswXKNSSV7WYVk2uQsRWoLoeI+74L63RAaHQGgCB1YeYKk4hZn8HRSNXEPr9/vHMRw83VCjD9WU4cCG7VgQKE9dAe9h/VDMIhSqCADIqMvoELuOzA61nfb1bx/3ZMlaTITPI6etQDaLVcvmCvcQFuLo9h1uHet3ry7irz+snYPxhacH8OPPD7fg+WLBckxY9vpXx4Rlm3Bgw3HWnxc5TuXPcMDSfE2P/aPwHAOvyEJWzUcmx0Aym4PKVD6yp0Ctn7vrT6iorU+rKJRO682nVxRFgaHYtu9ESjhc4if6wYpclWdbyRaxen8RsRN9ZJAIhFYW3Hk9g6ncTaTkxnxgHWI3hoOnEGvwZgaUItybvl+u7roi64XlmFBNGTTFYE1NgacF+I+IfWGrTabdKpSQZMlax6wP4+ELuL76gevyh7lrCAsxiKz3ULbv0p1lfKNOF8nnz3TjK6+MtcRYqpaMFXmxLKx3S61a6TWva0ERslo9YcrkNXgj1efw1jyMRpxvbBMnp1O5W2AoBgzFgqHZR75nQVNM+fvSzzQ5SY+CGBA5RMd7sXxztmpZ6vY8EdwEQisL7uncLUzlbpWqh2yDh/VjOHgKA4ETO/obtmPDsLSGBTdQip7ajg3ZKIChGKTkBbA0f2iCpamCu00tJSRZsj7dviFktVXMFaqbUchGAZO5G3Xrd+8XN6bS+OM379RcfnqoA7/w+qkdntMWLNvcEnG2wNBsc44Jx2movv/2b7Oz/I9oUMRCyk1w61WCezc0K1fDdiw4jg3TsWHCAKzG/nZZgG8R6FFPDzlx24zoeI+r4CY+bgKhRQV3Rl3GVO5mw90dh4KnMBw8DYHx7PhvqaYEoLZ/27B1OI4DjuYqBKifD6GgraFo5BDgI0hIM+gPjLe9jcHeWhKwjSLcJFlye8bD55HVVpHXqxvfLBYn0eMbQod4cNU/7s2t4f/+Tu3yhL0xH37jZ89XiDnTNkr/HaP8vWUbMLfYOdzwsoGmCG6aYpozscXOvNexsPu1LS/psGyA2eOp2iz72FZLWuNj4ZT25RaBTlM0EdxtSNdjg7j97Y+rAyKpHPJLGQR7O8ggEQitILgtx8RU7iamc3fQyHPQTm8/hoOnERbiu/6b5YRJx6wS7KopQTElOHBgOxY4mgdLc2BpHizFwc+HkdczKOhZhPgOLBWnMRAYb9pN+TDYGnmj28TDTZIlGzxZaQ4T4fO4nPq+6/LZ/L0DE9wf3FjCn/5d7aYYPpHDf/0LT0O3VCTlOVi2sSsxt/Xa0gyaJrh3GOEWOAZekYPsUtM4X7AQCe1tu5o1uW5WuVSG4sgJ24Z4OvwID8aRnasu65m6PUcEN4Gwl/tPs94oJS/g0+R3MZ27va3YDvBhnI29gMfjr+5JbJdEtVvDGweSkUfRyJVvICzNgWc8sB0HillEXs8gp60CcOA4NgpGFoatISnNtnW5wHa0lJBkycaJenowFjrnumxFWURCmtn3bfiLH07VFdsA8N//J8+BoUvJf4al7Ulst6Tg3sU1Ihp0933ni3uvVNK8CHdzBDdLs+RkbVPiJ9292su35sjgEAh7uS7u9Q00S8FU7ibmCw+2vymAwmjoLIZDp8FQzbkga48kTDqOXfYDB/hIOXLqOA5E1lv2OlqOWfk42zZR1HOgQCElL6DL257ly7ZaStolaZIkS+6MoeApLMtzrhV/5gr30O0b2pWn13ZsGLYGwy41ZPFzoap1/r+/voUr91fqvs/v/KcvwiOUzm+2SZHORhpjNSa46aprkpv/mKYYUNRGbRB683uKLv1mF5PZaEjEfKqy1T1DseCtboyFeyv2w6ak30ygLP2m8mcHDuCgaYmLe50Ybf1chPak88wQHrxzter3uflVaHm5Zht4AoGwj4J7qTi9Xuovu+26MU8PRkNn9xzR3sqjDW8c2MjrWThw4OfD4GgeFKhyRYFObz9oioFqylAtGZopw2E2b16lx94WinoWPC0gIrZf6+l2i3CTZMldnLQ0h6HgKdxKX6y+KWppzOXvYSh4qoagskqi2tJh2Bv/Sz9vjSLzjFgluH//G1dxf77+uf7f/MdPI+TjK45BhmJgNSFyajtWUyLU/eu2sYOusBENVUa4BY5BNCQiFvLUnRQcZO8qLxfASOgMbMeC7diwUUqitNaTKTd+X+nD16uEeiPJ64TWJNQfhRj2Qc1KVcsyMyn0nB8mg0RoKrphQTdt6IYFzbCgGzZ00yr9/pHvNdOCh2chCsz6VxYenln/WvqZZ1tT++xKcEtGHtP521gqTjUU6RgLn8Nw8HTTN35rwxuAQkFbAygKQT6yniXfDdM2160jgG5riIrdZVHnoFSxYKsA34juZdRlcDTfduUCK9q6t0GXSZIsuTv6/GNIynNIK9VdHWcL9xARO0GB2hTVVklYN2oZ2DgPNvjdr1/G/HKh7mv+6c8/hb64v/oaQHOwrJ0JbpbmyqJ4IwLdLHaTnN2Uv8sxGOwKwO/hEAt74Pe0piilKXrHExHHsWHYOkzHhGnr4GmBnKRtTNeZQcx+UF19qLi8BoAIbsLO0AwLq1kFqzkVqzll/XsFq9nSz82GoaktArwkzONhD+IRT+lr2It42APugIX5ju9i84X7mM3fdW3CUXXSegcxGjqzbzaBrQ1vSoPMwM9FwFAMun1D8HIBSEa+LLg3KppsFaQC44HAeBBCFADKNbpVS0ZBz4JnxB3X3D1MKiwlLR7hJsmSe2M4cMpVcKumhHuZy3tKoHQcG5ZtYq1g4N988zpWsvUviv/rr78Er1i7y+tGKT6GZsHRPBiK3UxgpjmwFAeG3rRzHFXOjkaP5OeiKLp0rSSn5ZEg2Od+nBaXc2RwCHWZXMzh3vzapsDOKijI+oFug2U7kBQDkrJpRXywUP10NuwX1gX4wYjxhgV3TktjtnAXSWl223VLLdkvoD8wvq+DqpqV/m0/HwZLcejxD5ejWCLrq1jfduy6QpShSvV+29Xa0E6Wkq3ebZIsuXOinh70+cewWJysWpbV0vBz4T1NFu8trODf/u0UCnJt/3RHUMT/8A+fr/s+MU8PKE9vU5uzEAiE/cMXC9UQ3FkyOIQKFlJF3Jtfw/25NTxczEE3rLbZ9mxRQ7ao1RXjI71BjPSEMNAVqLBL7pvgnsnfwWz+LjRr+9B/r38Eo6Fz8LL+fR2oDS+qaZvgGRE+LgieEdHjG67wDzIUA4HxlLddNaWG2sW3K05FHe7WtpRU2klIdHs3bCRQPppU6MBGVl9Fp6d/V++bSEt4+/0UCnLtaPOJgTD+i6893tAEnEAgtJHgjgeJ4Ca4spJV8HAxi8mFHB4uZpHOqUfyc7qJ8c6IB8M9IYz0BNEb86En6isXCNiz4M7rGSSKM4it+bZ9I5HxYiLyOHp8wwcyGKopr9/MObC0D14ugC7voGv0WmR9ZcGtHHHBbVfU4W7dCHdlsiR3rJIlbceGbqnQbRW6pZW+t1T0+UfBMTsTp34uhKHAKUzmbrhOaAJcGJ4dTH5pisFcQsEH17JQtdoe4xfO9uDnv3iS3H0IhCOIEPCAFXmYaqUVwLFtSCs5+OIhMkjHiKJi4JM7y/jsfgozifyxHYfUmoLUmoJLt5MAAJ5jMNITxECnHz0xP3qjPvTEfDsT3KZtYLE4iYQ0A9M2EMNI3Y3oD0xgPHTuQL3OGwmTLM0jJEQR8/TWXNfD+jZ93JZ0pA+IdrGUHJfotm6p0CylLKp1W6tZ4k6z1R0LbqB+mcCstloluBmKBcfw4GgeHC2UvjI8OFrE9y8v4tvvpwDUPpd/8sURvPHcELkLEQhHGF88iNz8arX4WiaC+7gwnyri07vL+PTuMvLS/vqweY6B38PB5+Hg3/Jf4BgYpg3dtGGY1vrXUkUTo8bvdNPecXOyXd3fDQv35tZwb25Tz3SGvTBys4iFRbx0rnd7wc3SHNJKYtvat142gBORJ9Dp7T/wA2Ejwh339iHI1+9+5dmhj7utBXcbtHY/ismSGxVvNEuFbinQLAWapVZMgBoR5+B2fiOrVyZQNgtwYKPbN1wW2LWO/b/8YBpvX6qfo/HLXzqNp091kTsRgXDkBXfIXXCn1tCFQTJAR5gbk6v49G4Kn91PNeX9KIrCUFcAI71BRAJihaDeENg819xk+ZykI53brIySXk/iTOcU5PZx8pDKykgtrOGl849V36trvWgkdBa30h/XfNOh4CmMh88fWoMD3VLR4x+Gl93eHkIfIx/31nq4rdra/aglS6aVBLLaalOO6d1Sr0zgqpLAaOhc3Unmn7xzDx/eTNT9G7/9D57ESA+pk04gHBfB7QapVHI0UTQTn95dxid3U5he2ts+jgZFDHQF1kV2CCO9wQPXIyEfj5CPx2hv9XFsmHZJhG+I8Ue+GubeG4A92l+hruAO8GEMBU9hNn+36vcnI0/uqeTYXrFsE73+kR1ZWDzHxMddWYe7NSPcR632drOsO5q1t+STWmUC83oGc4V7rrXwC7KOP3nnHm5Mpeu+9z//z15E0EuqjBAIx0dwk8TJ48L3Ls/jB1cWsFbQdvxagWcw0BnAQKcfA50BDHUH0RnxtPTn5VgaPdFS0qMbybSMmWQeM4kcphN5LK3uzIoc9NYokVvvRT2+4Ypo5EjoDCbCFw59sBiaBbPDEuIi6wOOgY97ax3uVvRwVydLtr8XsFmNVPY6/69XJnA2fxfd3iGI7GZb5qVVCX/05h0srtSuqR/yC/idX3uB3JEIhOMmuElpwCPP5GIOb12cxZ3ZzI5fe3Iwgscn4nh8It6yTbx2S3fUi+6oF8+fKQWWHcfB5GIOU0s53JnJYD5VhFan/GHIL0LVTYg827jg3hDdHsHEyciTTW3LftAcFx+347R245tWSpY0bL0pdpadCm6W5soNlXhaBM8ITRPtg4GTSEgzVR0lNUvBbOEuTkaeBADcn1/D73/jWt33Gu0N4b/8+0+QuxKBcBwFd40It2WYUDIFeDoCZJDaFMO08dalWbx1cXZHr+sIimWRfdzshTzHgGcZTAxEMDEQgWHayBRUrOU1ZAoqcsXNpwOxkIj55SImBsI7E9wBPoynup9q+8E6Lj7uVq7DfZjJkuUOoqYM1ZKgmjIExtOU5kwbbcjd2qazNAeR9UFkvBBYDwRa3NcnDwE+jMHACczkq9syz+Xvods3hIfTFv7gb27XfZ+nT3Xhl790mtyZCIRjCitwEIJeaHm5apmcKRLB3aZcn1zFWxdnMbdcaPg158ZieHw8hscn4k1PbmxlbNvB7HIB00s5qHrl/Z1jaXRFvOiKbD41llUTmYIKIyu51udmj9OBdhx83FvrcLeapeQgkyV1S4ViStAsGaqpwLCrvWmNNHJqFIERoZgSRNYLkfGWRTZDH/wpthHlfvTzOXBwaeYK/uJv6m/TF58ZxE+9PEruTARCC5PXMyjoWfi5EHxcsKLhW7PwxYOugtvSTbID2oxcUcNbl2bx/rWlhtbv7vCWo9l9cf+xGivLdjCbzGN6KV/XOvIoIT+PxydiyCQUMDR9vAX3cfBxt7KlZL+SJW3HWo9clyLYmiVXVGuph2bJEBjvnreh09vfMq3LRdaLwcAJPMhWW0YcIYWung4sJ9wTjn/ucyfwyoVecnciEFocychDNSWopoRVZQki64WPC8HPhZomvlne/X0sgwjuduKzeyn85YfTWM1uH2TiOQZvPDuI1589nr0WphN5TC5koe+gUgnP0hjtC2GoOwiGpnB52V17HbsI9wZH1cfdqnW4m50smdfXoJkS1PWmMrtFNZWmCG62xUobDgZLUW63Zjij45Kr4P7Pf/oczoxEyd2JQGhxbMeusOdt3NNUU0ZaSUBgPKXINx/a05NEpoZ9gAju9uGjmwl8/Z17Da37+EQcrz87iIHO42sXKkh6w2KbZxmM9AYx3FMS2tvqhOM0kMfBx92qdbibnSyZURKwHGvP76NZMoCjJzIZisVg4ARuZz6pWhaLaxgcljE3sznR+G9/8Rn01mlJSyAQWgfZyG9zXSs130qryZL45kPwc+EdR76ZWhFuYilpC35wZQF//oOH264XDYl4/dkhvHi259iP2Vh/CAt1KncBpVKIoz0hDHYHGhLax1JwA0fbx+1gaw1uCmiRpMn9SJYUWR+kbW46O52gHDXUXByZNI+OaHVXrdHxIpYWPDBNCr/7Gy+7JngQDgdFMzGbLCCTV/HiOXIDJFQjmY0nvGmWAk1RkFaSEFkv/FxJfDeSX8Lw7hFu27DITmhx3ro4i7/6cHrb9V650IvXnx1C2C+QQQPgEzl0d3iRzFTnLngEFqO9IQx0+kHTO9dXx+4ue5R93Fv9262UMLkfyZIi692x4KZAlZIaWS9ExgeR9YKmjmbG9XyqgH/1H66it9/nKrgDQROPnVHxa5/7ErnCtsS5CyxnZMwtF7Ca2/RZLmdkdHV4yQARKifTprTL15VsJ6tKAh7WhwAfqRsAIRHu9uTff/c+fni9fnLkcE8Qrz87hHOjxEb4KGP94QrB7RM5jPWF0Bf3Yy/GgWMZ4d568TlKPm67RRMm9yNZshHfNUtz6xVDSlVDmlXrutVJrcn43X93GQCwtOBB/4CCrp5qn/v4hAzZLMDLkvJeh83le8tIrVUnNM0k80RwE6oYCp6CYhZRNPKQjBwse+cCWDEl0BRbX3ATD3fb8fvfuIb782t11/nSC8N449mhHdkhjhMhH4942ANFMzHeH26a3fLYCe6j7OOutpQcPkUjC9WUYdg6HMeCYkpN6S65tWPixuflGbFUjm+9NN9uMvUtxwRDte9pkZN0/M4fXKr43fSkz1VwG7aG2fw9nO54mlxhD5nemN9VcKdzKvKSjqCPJ4NEqMDD+uFh/Yh7eqGaMopGDtKW5PRG2C4AwvAsEdxtxD/7fz5Cdpv27D//xZN4gXi1t+XCeKzpNcePpXHzqPq4W8VSoqyXqlLMIlbkRRi2vi6SfZCNItCEQDMFCiEhCobiyjaR3U4ylqRprCpLSCtJDAZOYCx8ri33v6pb+Bd/dGnLtKvESkrAwpwX/YPVnrT5wn30+IbauovsUaAn6sOdmYxrzdfpRB4XxmNkkAh1AxAi60XM0wPVkiHpOUhGvnztdYOmGPi44O4Et0483K3GP/k/34dex1tP0xR+/afP49RQhAxWA+xHg59jKbiPqo/7cCwlDlRLgWKUBLZqyWXhbzlWxQVfYEQYtgbLNpvSECbmaU696IXCQ2S1FQDAmpZq08kW8L/8208gq+6Rp+lJn6vgBoDZ/D2E40RwHyYUVfJU3purfhS8uFLEqaEIhGPU4Y2wh/sb44Xo8SLq6YFmySjoWRT1HCyn8trgb+BJI8O1d4TbckxYtln6uv69AwccLYCjeXCM0HIdmXfD//6nn9UV25GAiH/0s+ePvD0tmZHR3cKf8dhGuDc4Sj7ug6rBXeriWIRiSlBMybWleWm9zUfkHM2XExQVswh/Exvf7JW4p68suLPaalseD7/39ctI52rXI5/o7sdgoANzhep6rMvyHBaKk+j3jxG1cogMdgXwYCEL23aqJ0XJAk4MhMkgEXaEwHghrItvxSiiYGQhGXk4jt1QtajaEe7DEdwbHYRVS1p/kipDtSTollolrk3bAuBsL4JoDhwtgKcFcAy/KcZpAWEhhqAQ3deuyHvlT/7uHmYStQsIDPcE8ZtfvXBkJ+yOAyyuFjG1mENRMXBuLIaBztbsjHksBfdR9XE7FW3dmz9rX5bmoJhSVaSk3sVxA35LwqJiSq0luL29eJC9CqDUtTKvp9vKYvH737iG+VTtMmGPDXfgl57xQjMcJGjBtc39w+xVhPhoUzuAEnYGx9Loj/sxt1xwEdx5jPeFdlWKikCgQMHLBeDlAutNc/JVeTA7Edz2PkW4bcdCVltd7xosbdoT13+2neZbWUzbgGkbUFC79rKfCyEkxNavkaXKLq0QlHn3ygI+vJGoufzCeBy/+uUzR/KYtmwHc8sFTC/loW6ZAE4t5ojgbjWOoo/b3hLhpvchwm3Y2g7Etla2uNAUDZ7ZrPFpOsbuP6NjIa0mkVYSUC0Zj8df3fPn8nNhiKyvXGprTU21jeD+f//qVt2M9FODEfz6q6VHxwLrw6BwApO5G67762H2Kp7ofI2ok0NkuCfoKrgN08bccgHDPUEySIQ9QVN0wwGPWmUBt8R2YNg6bMfaVRUo2Swip60iq60ip60ir2dacsyKRg5FI4dFTJaEE80hyEcR5COIeXrRIXYd+DY9mM/iG3Wa2rz6eB/+3o9OHLnjVzdtzCzlMLtcgOHSEVJSjZYtp3psBXeFj9s8Gj7u/U6a9LB+aA22Ud9qJ/GyAQT5CDysHyLr21X1kM0LdAFXUu+Wf9YsFQIj7vmzxT29mC88AABktBRG0PpRga+/cw9XH6zUXD7RH8Y/eq3yxjpmBZEVu5FWk1XrryhLmMzdxFjoLFElh4TfwyEe9mAlW12x5OFCFgNdAVLKi3BgGIp7xQshsCmus+oK8noGIutDWIjVTMTciF6XBHYaOX0FuqW15biYtoGMmkRGTWImfwcRoRNdvgF0eQcPpPxsUTHqtms/imJbVg1MLuWxuFJ0td1VXCsXc0RwtxIVPm5Lhu1Ybd8ExT4AwZ1dn6TUg6N5dPoGYDs2dEtFf2C8aR44PxeGwIhl4Z9Rk+jxDe/5fWOevrLgzmmrcOC0dDLNt96bxEc3az9KHOsL4R9/zt2jeUIcwyVt1fVpxWT2OkJ8FDEPKRt1WAz3BF0Ft27amFrKYaKf2H4IB4OWV+oKbtuxy30WVFNC0pTA0TxCQgwCI2CtDaLXzWBNS2FNS+Fh9ga6vAPo9g4iuo/X0H/39t2KBlkV97KQ50iJ7UxexdRSHqk1ueHX5IoaMnkVHUGxpT7LsRXc1T5uue1tJVvrcNP7IBY9nB8UqIq/AwAMxcLDlWrCeln/niLYjdAhdiMhzQAA0k0S3FGxCzTFwHYsmLaBgr6GIN/Rkvv5u5fn8b3L83UF2299vva2B0xgPHwe99Y+c48OZK8h1OKJQkeZeNiDkF9Arlgd/ZtazGGoOwiepclAEfZfcBfqC+68nq64H6iWhIyaxHT+VsNPQ/cLiqLBUCxYigVDs2DWv1q2CdMxSl9to2GbZCOYto7F4iQWi5MICVF0eQfR5x9r6rX0O+9P4uZUuuby/+6Xnmn7485xgERawnQi73odrIfIMxjuCSLUgr0L2ON8MTlqPu5HLSW6pUI2iwCcpniSN1qjq5YCD+srC2yeOdhZZHSr4FaSNdezHQtFIwfD1sHTAvx8uGbUmqYYdIhdWFVK7XDX1FRLCu57c2v4znuTNZcPdgXwmz+yfbmvIcODrHcQy/Jc1bK8nsHD7DWc7ngGhMPhseEIPrpZfWxbtoPJhSxOD3eQQSIcgOCW6wrujLKMgr4G2SxCMYtNFa+179t+eLkAfGwpCdTLBsDRQllUs+tfG39i7cB8RITrtoq8voaCnkFeX9uV7TSnpZHT0lgqTmM0fBbd3sE9f/bb0xn83ae1gy2/8hOPgWvjybhl2ZhLFTGTyEPRdnYs+T0cRntD6Iv79qVoBBHce+So+bg5WoCXC0AxJKTkeazRpZrSDMU2LQmw0zuwrxFsBw6S0izSahKPdTzjetHc+qhOs2RIRr7CN5hWEpgvPsSKslgxCfGwPjzW8WzNR31xT19ZcGfUFIaCp1pq/xYVA99+f7Jmoau+uB+/8sY4BGQber+TdgRZZqU86dzKfOEBgnwUff5RojoOgUhARCzswaqLtWQ2WcBIbxAiz5KBIuyv4HaxlFDdNNLhZcwlHyKvpffn3sx4y2J646uPC8DLBffB6keBpTmw4ACm8n6wgWrKKBhrKOgb/7OQzUJj120ji+srP0TaP4bR0NkKO+uO7o0O8Nal2ZrLXz7fiydPdLb18ZaTdNyZ2Zn1KBIQMNoXQlek9WuMH/sId/mEalMfdymKXYBsFKCacvnxHkdvVgWxHBOapTQlmWO/7SKWbeDG6ocAgB7fMKJid3V0hfHAxwUhGaXao2k1CR8XhOPYuJP5FAtF98xtxZTwWeoHeKb7C64TkLinF3fWv8+2YAOcb78/iYWUe+mqnqgPv/LjjyHmrOxgwunHuO88bqUvui7fsJY00iCD0HxOD0Xwvovgth0H9+ezOD9Guk8S9llwF2RAoED106AG6NLXCIUEZoAm5TsKjAchIYoQH0Vw/et+32d2PAFY7+S5VYSn1SQS0jQSxZkqm6Ubi8VJZNQkRkNn0beLngdvX5rF1FLOPXgyGMHf//yJtj/eOoIiAl4eBVnfdt3OiBcT/SGE/ELbfL5jLbhLPm4vNEsuz2Jb3VbiODZkswjZKEA2CzDtxkrsyUbhQLKn9wpDbR6SaSXpKrgBICr2lAX3mprCYOAEHuaul8V2kO9AROwEz4go6GtYlubgrP+7lb6IF3t/oipSIrI++LkwikYWhq2jaGTh51ojQe0HVxZw8VZt+8zPvDqGrh2I7Q36NBZZ/xgWi9U2Fc1S8DB7rSmlFwk7J+Dl0RvzYWm1+unbQqqIk4Ok+yRhfzBsHavKEuQLMtheHhCbE1WmQUNgvRAZDwTGCz8fQtzTV9fu16pExW5ExW4MBx9DQppBQpqGatZP7FNMCbfSF5FWEhjOJro3AAAgAElEQVQNn234/jK3XMDbNaLbkYCAX/yxU0fm2BvrC9WtvtXf6cdYXwg+kWu7z3bsn0l62E3B3ao+btM2IBl5yEYeiik1NJuuEtxmERG0/uMmiqJBUTQcx0ZaTQB4fL0E0zJYmivXO416ustdE9e0FBSziJncHQiMiHOxl6rqoi55enFz9SMAgGTksaosVUQrNoh7elE0smUh3wqC+8FCFt+u49v+8ksjOB0o7Pr9T1hhZLc8MdhKSl7AVO4WRkNnQDh4TgxGkEhLFXWPw34BZ0ajRGwT9kVkb/w3bB0YBbAHIcwzIjyMDwLjgcB6wdPCIwEkByvyIrxsAAzdnnLEz4UwEb6AkeBpLEkzSEgzyG1TzSspzyGtJnG64xl0+4a2/RtvX5qD7lJzGgC+9toEQj7hyByHPVEf7s5moOqbTY4EjsFQdwCDbZ4wfuwFd6v7uFfkBeT1tT2/T6lLV3u0LGcoFqajo6Cv4WLyLeS1DBw4iG9pMNAhdpWFuW6pmMzdBCgKT3b+qGvL4l7fCBYLk1hbt4okpVlXwR3z9mI6fxtAycc9EDjcx3SKZuI7703CqlF39PGJOF7fY0d2jhEx7j+Pays/dF2+YS2p9bSBsH94BRYDnQHMLRcg8ixODUXQG/ORgQHwFQDvAg1mLBwOvw3gX7abyN7LtYTmERG70CF2gaP58n2nHgE+0rZiu0JM0TwGAycwGDiBlDyPmfxdZLWVumN/ffUD2I6F3jq5Mh/eSODaQ/f3+corozg/frSsZRQFjPSEcGc2g4CXx0hPEL1xH2iq/fsPkAh3i/u4uT1UAKFAQWC98K5ndbey2LYdGwvFB0grSVhbbDK5LUk5xpbfMxSLEB8tX9CWilPo9Y24iu2y6PaPlAX3quJewzosxMHRPAxbbwkf97ffn8Tssnv0OhoS8TPP9QAo7PnvdCkOhoKnMJu/6y66164h1NV63srjwMRAGALHYLQvRJrebBHb/wzAzwD4rRYV3b8N4OcB+AD8T0dYZIeEGCJCJ2Kenqoni7Zjr1frWK1ZwSQidh6547PTO4BO7wDuZD7FfOF+3XVvpj+G7djoD4xXLVsraDUTJYd7gvjC04NH8vwe6PIj4OMQC3mO1Oc69oL7UR+3Yko1O2UdBj4ugLSS2MEsmysLbA8baIuIdmlWS2Eye6Pq4u/jghgLnUOH2F3RHh4oVSvZGkHo8NSPwMa2RLQNW0Nez1SV/qNAIerpQVKahWapkI3CodmM3ru2iA9v1N73X3l5DB10oWl/b8IKIStEKyY55YmPnsadzCc4F3uRqL0DRuAYTAyQZjePim0AOAvg/2hB0b0htje2F4csupspsmmFQXd8EBGhE1FPD0TGW+f+SiMixhEWosjpGWTVlQrhHeDDR3oSf7rjaQT5CO6vXak75rczl2DDwmDgZMXv3740i0zevZ75Kxf6juy4sQx95MQ2EdzrbPVxq6bcUoKbo4VyxLWGVIXIeuBlg/BxgQOvid0IDhyopgTTNsAzAgSXCzQFCp3eAeiWBoaikVyvD207dk2PW1TsxiSuV4xVXeHCiOWkSKCUZe5Wazvu6UNSKkUV1rTUoQjuqaVc3XrbX3xmEE9E5ab+TZpiMR6+gMvL33NdnpBmwNI8Tnc8TS4ahEMX22hR0b1VbOOQRfeKsoRleQ4r8sKeRLYza8NZKv3v7h/H2Z97YYcBFRphIYaQEEVeyyCrrcC0jSMZ3X6UPv8Y+vxj+HT5u8ioyzXXu5u5DNuxMRw8DQC4NZ3GD68vua57YiCMZ093tcxn1E0Ls8kCOtebdhGI4K7JVh+30oI+bh8XrGipTlMMfFxwi1Wk9ZKnDFtHQppBSp5HTktXRDU8rA9DwdMYfMQffSb6HABANgtlwa2YRchmEV7WX/U3QkLJ4rBRqUVvoLNZ1NO9KbiVJEaCj1WtE/P0oNPbj6jYcygtzjXDwrffm6yZJHNqKIKfOr0/+zwqaRgLncNk7obr8vnCfbA0h4nwBXLhIBy62G410e0mtg9adCtmEUl5DsvS3J7aqYuqB/KVApxpC056M4dEOL37yCMFqlQCUIhCNgrbBkmOEk93fR4LxYe4nb5Uc537a1dgOxZGQ2fx6d3alsZWiW7nJR3TiTwSqxJsx0FRNvDEiTgIRHDXZKNroof1QWT3XjxdNgooGjnEPL1NsXR4uQBks1gq/M8GShOEFsV2bEznbmEmf6emZ08xJdzNfIqctupqUfCyAXhYX3nyk1YS8AYmXC/eEaELK8pC6eTXM+hD/UYtUbGn7FPOaiuunn2OFg61FN7ffTKH6UTeffLl4fCVl8cApPft749ZQag1SgUCwHTuFjiaw7DLZIVA2C++A2CsjqA9bNFdT2wDwE0Av7+Pf39FXkBSnseyPAfbsXZ9r+n09CPu6cHMf7iD4rXqhP1AT6Qp29vunZ13Q79/HP3+cbw9+/Wa6zzMXoemsrh8zz0afnY0iscnDk/U2o6DxKqE2WQB2UfariczEjSjg1RQIoK7NjTFoNc/socD0IJkFCAZeShmoZyV7WX98PN79156WD8GXASnG5qlIK0kkFaTCAvxhl/XDEzbwJXUu+XERKAUhY6JvfByAZi2gcXiZDnqkpBmEBE70e+vThbpELvLgi+jJmt+jqinuyy4M2py222MiHHQFA3bsWE7Fta0lZaqvrGSVfDe1cWay7/y8ij6mfS+b8cZdEPzyDWTS++vXQVL8677jkDYLzYqfrSa6G5EbO/HNslGAcvyHJLyHAq7rGbF0wLi3n7EPX3oVCzABiBpuDrnXhkjPEAaLu2VV/t+Gu8tfrvm8rnibfBCGJpaHbA7rOi2ZpRsI/PLBWiG+4TOcYCZRB4nByNkJxPB3VxxKRm5dZHtbkORzEJTBPdOmCvcx3TuVll8H6Tgvrt2uSy2vWwA52IvIiREH5nhj+Fy6vtlL9tU7paraItWCO5lOHBcGyNsFcuSkYdqyXWTeDba3G/8/bSSqCm4LcfEmppC0ciVfXX7zXtXFyFr7k8GXrnQhxd69APbnxeoQVzkZBQN9+5mt9OX4GH9pFwg4ViL7sMQ2yl5vmQbkefhbFN2zw0KFOLePnR6+tGlWGDAA8qmiDIkFcpadVdbzivAGw223DEhmwV42faJmIusF892v45Lybfd9w+r4sSpAm5crezy+8SJTjw23HGg27pW0DCTyCOZkeE42/cAmVsuYKI/DJpUVCKCe28iW0dRz6Fo5KBZSgPRhzwABzjADlpRsbssuGtZJhrFsDWopgyGZre9mKmmjERxelOsxV92LdFHUTRORp7CR4m/WX+dhKy2UtVqPbql4ohh68hrmSrxDpT87SLrLXf4yijJujVNN8aoLLhrRMWT0ixupj+C7digQKHPPwaO5vd1382nCjWj27GQB18+ebAVZxiaxRPcGD6ybsKskXB1JfUuXur9CXhcPPYEwlEX3QcptiUjX45mF/XdvWNE7ESnpx/dig2B9pXas9PV94d0zj35PtSC0W3dUpEozoCjBcS9vW1zLQoLMZyPv4zrNfofDI9KWFkWkExs7otXL/Qe2PYtpIqYSeaRl3YW5DFMG+mcinjEAwIR3DsWnRsiu5GkvK3Yjg3FlA70AhAW4oiK3YiInegQu0Ht0EOuWTJm8/exLM9BMTcjHAIjYiBwEsPB066+9Ky2Uu6AKTDeuvWwA3wYAT5SfgS6qiSqBDdHCxXrZNSkq+DeENCLxamygN5OcHd4uoHsNQBAQV+DbmlVJQd9XLBsDXLgIKMm0eXd35qn711dhF0jgvDak/3wiOaBH/8e2oNzsRdxJfWDGse4hYvJt/Fa/8+SiwXhWInugxLby+sJkEl5fj2AszN8XBCd3n50UxEETADG9nf+7Jx7wl4r2klWlaXyvXqpOA0vF0DM09MWCZnd3kGokSdwf+2K6/KJUwWspARYFoXnznRjvH9/n5iruomZRAELqULNpP3aARoKfXE/hnuC8HtIvwYiuBsWyhay2iokI79jke0Wldip4HbgAI6zY7EMlOqePtX1uV1ta1Kaxa30RddkR81S8TB7DRk1iSc7X6uKmhu2Xq6e8mjzg0cxbQNe1l8W02k1gXGcdxXSm+skMVKjvXjHI4J7O4J8R0WpxYyarCo9GOAj4BmxvP+Leg5d3v075h4sZPHxLfdtH+0N4UcGzEM7H+KygdMdz+BO5pOaEaYfLv0lXu79Mrl4EI6F6N5vsa2aMhLrbcI3qirtSPxQTLn5SpdiAdbOnrJmZ93926GB1qpAIZuFKkunbBQwZxQQEqLoELtasorXVoaDp9cDXfeqJzgRAydOFXDnVnDfvdtFxaibP1QzKCOwGO4JYqDTD5ahyUWJCO6dQmFNXdlVNAEo2Sa8rB8+Lrijmt6LxSmsKAvIqMs4E30eXd6BmhfjjJpEj3/E1dfcyIRiqTiNtJpAXl/DS70/CcnI4Ub6IziODZpiEPf0wseFYNo6luX5soUmoy7jdvoSzsYq67D2+kfQHxivuT1FI7vedCGBNW2lwneY1zIwbR3sI5aNqKcHM/k7pRuAVmqYwFCsqzDfKv4K+lrdCDsFCh1iF5bl+bJId6v1PRY6B4ZmERW7ITD7+3is3oXutSf6AciHekYM6DzU0GOYzt12v/EZBVxMvo3nul8nlw/CkRbd+ym2s9oKEtIsEtJMTRtXPTYsIz0KwFMeQLGxG0tjdq6W4G6tCPeqXLsxWE5Lo6jn0OHpcu230EqcjDwF2ShiRam+D4yfLMLHxDHUtb8edb+Hg9/LoSgbDa0fC3sw3B1AZ8RLLkJEcO8emqLh5fyQjcIOXsPAxwXg40Lwsv5dRadXlAWk5IV1EZhwFdyGrZezm/18eFcXEoqi8SB7DYatlf/WbP4uHMdGn38MJyJPVPiVx8MXcG3l/XL0eEmaRo9/pELouglh09YxX3iAJWkakpF/JALDwoYNx7HXLRvL6Hzk80aEOGiKge1YsB0ba+qKa11snhEr7CdpNVlXcJdEek+F4HYVmQeUcHpzKo2rD9xvcI9PxJve4Ga3TFgRqL5hJKSZGje4VdxY/ZB0oyQcWdG9X2K7qGdxJfWuq+DaDg/rQ6d3AN1CN0KK0ZBlpB551Q/brK5CIQa9EIOtI64kI1e+h9XCckysyIvIa2nEvf37HjjZCwFqACtw3//9Q4UD2Ybh7iBuTtWugsUyNPo7/RjqDsAnEtvIjrUlGQJ3GolMczSPsBBDr38UI6HH0OkdgI8L7kpsAyVrxAYZxV0EMlsej6WVZB3xvoRb6Yt4f/E7VQKJAoW4ZzP5YqEwiTU1hR7fMM5En6tKDmRpDhfir0DY0sVyKnez7meZK9zHe4vfwYPstbLY9rIBDAVP4anOH8WPDnytwnriJnppiqnwdqfVRB0B3V33varW93TDw/rRHxjHyciTh3qsbR/dbh3OUX1VfvutJKQZTGZvkAtIi5DOq1halY7FZ/2XAL5eZ/mG6N6tC3Y/I9vL8vyOxDYFCl3eQZyLvYiXhXM4aUdLYvv/Z++9gyS5rzvPb1ZmVWV5293VdtqNtzAzAzMA4QgQAAmKpESJoqSTQhJ40unkTrGKlVYrrr3bi41YLXVH3oa04t6tpJXoKYqiA0AShB0DDGYG4037Lu9dVqW5P6q7pmsqf9nd066q+n0iJgaoX1ZN1cvKrG++/L731oF2yW47zB70OIZWNBpeUsqYyV1HrDR71z3KN5qrN0yIzOsXqyrmeEO73Y2iv0vfFuIQzTgwGsCT9w9i37CfxPZdQhlug4NZ72rTbLLCafHAafas+xj1paKxKOdRkvNN/m8Tx4MDBw3agq+5NnykqkpQVLk+FCe84P8Dah7lXsfwHYKzF3OFWwvivJZVX3wt3S+KyYxRz8G6j7fWLi8Np7n55+tC/M36a3Pg0O8aw6BzF1x3tEj0WbuQWOjzzLp4qHUUqa3FirNMcRwQQ3X7SaochaqphkOHbIITj/S/sOXfs9OXI7g0qT8N7tHD/RgT0y13bBwz78KrShFlRjvMG5nzkNQS9vmP0YlkC7k1n8XlySQADqKFh98tdvxn3qhM91b12W4SvdYAuu2D6Cuh1mWkDGCdPcrt4t8GAKfZU5vEXI41WRX1yEpJFCpZBGyhZe+Cbrrgnkohr9rR06tfNzaXvwWftXtD3wNv4jDQ5cREOAuOA3r8duwIuRHYBueOzYAy3KwvHsfXxavZZIVP7MagayeG3LvgF3vWXWzXRL67YdIlK1PLm2rXSWkpimups3hr/rv40fTXcG2h88ad4l1PzN7ZO7lmifEYvr8+50hDNiFcmGraZip3tS62BZMZR0NPYZ//WJPYXhS9ty8wcrr9zJe2ByzKufpFhKxWMZW7Ui989InddYFdK3qNtcX3jJXddtjMePxwd8u+70fFI4brM7nrOBt7lU4kW8S563FcmkhC0wBN03D6chS5YmVbfPb1znRvtdjmOQGDrp24v+cJHDfvwUjVAesGThtOtVGHksWkjk/sxpBr14rmXiiajGhxBrP5G6goUkt8hnCyiBuzGUTmRWaWe65wizkTYT0ZCrkw1u/B4/cO4t5d3SS2SXDrUxtGk1231wuIPRhwjW+oyDYSwncK5VwlhYnspXq7OlVTcSt7EdlKcsEHHdUVqmWl2BSXRd/z0pP6cgWYPCegy3a7UnrRb76UyYUsMwCMew8Z2g+qdxQFLbZ3Worb4od9iTA/H38DP575Bn4481VcTp6pZ78X7ScuixfD7r2Gw29ahZMXw8wR7o/fM4Ag0i39/p92PmzYeitanMHb4e/V20USG0+5IuO1c3OYiTUOLZEVFScvRlCuKG3xOZzOtbVSXY3oZv1bDodj08S2aG8+juyCC2Peg3jEehB7tW74CxsvDhWpikJUX9R5WnzCpGAyo8c+iH7n2Iq82mW5iOnc1fpMhq3k6tTtKaGTE/q/XZqmYm7JrIsNO/ZsZuwe8kG00Hh2Etw6IjstxTGbu4HJ7GVEi9Pr9gMvCo5NL7IIiLeLApPlcP2z1Podfw9XU+82eNDMJisGXOM43HUCD/U9V3/cytsbfOh62fKl4l7WVub/Wyq489V0g2iWlHJDljpoM27Sn5UaizPmC/onkzFvY8tASSlCWxhIs7Rt473dj+PB3uewy3cP7ObWnzr23vW47uO9AQeeGG4PYfS4/X7DWGekBH4y+w8rGhRFrMP5UNFQYkwqlaoKTl4MQ1bUlv8cPT09a36NlYruLov+QKtPTE5uWmbb13X77qLX2oV9/mN4yLoPY7IbFmHzkgfJnH5SyR5ww2y3tsUxIAp2DLjG0WXvb6h5amUuLxHcxlnumw2/eVJVwY3ZDF49OwupTS6mSXC3GYoqIyPFMZuviexEaR5lpbggTNVVdRdpNZYWElbVSr3zxmIG12yywLnE+mETHNjnP4Ye+1BTseNqbCWapjI9uQ0/DHf02M4sEc3aHcUoRmNgq6qESHEaHuvtrElaiuNq6izipfn6tEwA6HUMY6//KKwLWWuH2Y1h91481Pc8Bl27bn+Zufb5OoeTRZy7oS+4Txzug1lon+zCCesheK1Bg0xSAT+Z/SaylSSdcTcYp82Mo3t6YOIY7TlLVZy+HGUOWOokwb1S0V389V+HHG88Fmd+//dx6MKFTRHbAOALetBjH8SRrkdxzLwLAxUzTNzml1ix/NveFs9u6+G2+DHk3g23ld3Ja9EuupXki1Wcv+O3gJXlrihlzOZvIpwo4vTlCF45M40rUynkS1VM33FXiyDBffciW5ORkRKYzd/ERPYS4qX5+jjvpi9wJd0Wn0mD1lQxfafVY6lQPhR8GI8NfgL7Aw/UH8tWkszWSEttJSkp0pT5X+p7BoDMCgSRlRdhW+IfLCzxlFkFe8OQAaNbdRfib0HRZOzx3dvweSeyF/FO9Ie4ln6vfhEF1Fr0fWDgp/D0jp/Hw30fxi7fPavqcd5qvHdd/4fNZhVwf6D9ssHHzLsb7n7ciaqpeGv+u4jp2IaI9cXrsuLILraVK5kt4+zV1q5xePrp9evnvpzoLp48iesf/nBddM/8/u8j8p/+06aJbQD4n57/X3DYNITu0tZmKaMXp/W/U8PdbXks1GZK9GPANV5P2Cyl2zFwV7Ms1pMr06mmxyLzIlLxxrvrkmRCNGLFK2dm8M7VCKKpEpZeN09H2jfRSIK7hUT2XP4mJjKXEC/NrSgLW6hm6z7nViRcmMTZ2Kv44fRXMJO/0SyUG1rczTeIcQ4c3FZ/w5AYVocPn7WnfjKR1WpDNnrxZLTUY73SQkO7cNtCsNQqsDhQpn6Vnr3c5NOuKBLejf4IsdIsvNYgPNYgDgYfbPDHCyYzBl072+Z24N1wjmEnOTwehL1Nx+Leww+jzzFiuM270R9hVuc7T6wvIb8d+4bZmb1wsoiz12It665/4okn1vX1lhPdhbffxvUPfxhTv/Ebmy62P/7xj6NX3Xo7QLVQRmZG/7zUvW+wrY8HK2/DgGsM3faB+swIjzXQErU+rL7XVgShKBxSSQsmbzkwcdOBVNKCYkXSrVUrSTLiGbLutTIt1xZQ0WQUKlnkq2ndrhUrQYOGYjW7oorlrSAtxW4PuCmFMbTEFrEouJdOWFQ1pSFzzIFDYAWTEgWTGR5rAGkpXt/uzlv/tbZ7tUx0tDizop7UZv62l+/ODP2ga2e9+LEo5/D2/PfQ5xwFz/HIVBKIFmegagp4TsC+QK1tnNPsxYm+jyBTSYDnBLgt/rayh6yWS5NJTDGyEYfHuwC0763BA1wfBJcFU7krzG3eT7wNSSlh1HOAzsAbyHCvG6WKjFtz+oW5c/ECFFXDvbu6wHFcS733Rx55BMePH8fbb7+9rqIbYBdBFt5+GwWDf2+jupE8++yzrZEIYow5cPZ4Yfe7OuKYcFl8cJjdSJVjW24lAWq2S9bdTqUQwI1YWveiuKyUdLuKTUfyCHpsIFqTllI1xWoOE5lLiJVm71psO8xu9NgHYW9hu8FqrB61CYvNbZoahuQYDHpZWoS52PO68b3cXi/J+RVluZf2OuXvGDrQZetvEP9FOYfr6fdwJfUOwoVJqJoCu9mFo6GnGnp4CyYzAmIIXmuwo8U2wM5u9wWdOOBpfx/eHi2IHe49httcT5/DpeRpOgNvMHt3+NEbYLeQiySLOHUpCkVtvVz37/zO76z7ay6X6d5ssf3kk0/i1z72wZaIN8tO0r13sKOOCRPHI2ALtcTvzKXJFKpy89140SLAZrZDFPQ76LDstK14HBMtKrhFwbFqPxUHDnazC932AYx49iPk2AGnxbupB5OkFHEr8z5OR17GyfD3l91+tVYP3Q4jS0R7SS6gKOeWFfeZSgKKJjdd8S8ttlxarMhiafGbS2fwzcHAgxhx72sa9+6xBLDXfxQP9j57VyPpO4FiWWZ2Jzm8M9gxn3O3GsCwe5/hNtO5qzgbe7VeGExsDPfs6jLspRvPlPB2C3Yv+dSnPoWPfexjGyK6v+3xrHj7WF/3hvXZ/u3f/u2WiXfiun6Ku93tJK0MK7vtcdbuIi+1b96pORZts3argF2DXjxx3yDu39NNQSXBvdIrTxNs5uX7r3LgYBdqInvYsw+9jmG4LL4tu2ItyyVcS7+HZDmCjJRgFjEusmj1uC2odTLPy4wqtwuuhuJFlo/bYw3Wh9VomtpUyFjzXd/+t2KlOUSKU8z3Ple4Vb/7sJgpaNo/nAk7fUfw2ODH8UDvh/BA74fwxOBP43jvMwve7O074PS96zHmAJIj48GO+qy7VB9GPfsNt4kWZ3Aq8jIms1fobLyB3L+3x3DSZDon4c0LYVTk1hLdX/va1zA2Nrbur/voN76Bnt/7vWW3kw+MgP/2v8b+Z46u+3v47Gc/ixcePtwScY5FechSc2tYq9MG/2iIDqANgnW30+usJcGcjGF0HKfB65XxwP4QHrt3AOMDXuqbTYJ79eiNCq8f/LwNQVsfhj170evcHJEtKWXkKmnDPsJuq7+eJa6NXF++kf5yLfv8S4RsrpLSnYjlX0aULwrqpeNgddsD3iGazy8ZzV7/4VGrmMhewsXEbY/jDvcew8Eni35st6WxyHN7ZzT0T7AHRgPo4xId93nHFS/GPAeNRY1awZXUGcp2byC8icOxvT3o8rL9nbliBW+cn2+5TPf169fh96/fHbEf/vCHeOyxx1a28cIN13/5X34XRx9bP3H82c9+Fn/6W7/cMjGOXta3kwR29tHBs1ExTxWRL1UZgrv2uyqYzLDxtxNrNpuCUG8ZY7vyCPWVDC+iidaj5VKNDrMbHLi6r1kwmeG0eOG2+AzF3XpSVSuYzl3FbP4mSvJtT63XGsSBwINNgz4Wu3PUixhL8wjZh4wFt60XNzK1Pq8ZKQ5ZrTaMTXdbaiJ+sctHUqcwMmDrrXd8SJZrXnA9S07AFkKsNFt/HSPxDwB2wYkL8TdxLfUeHGY3ZLWCfDXTUCAZsg9h/I6BNIQxs7E83r+lL6prxZJSR37uMcUNR/BhXEu/13A8Nf0AFWeQLEcx5jmIHe7d9IVZ7+yKicP9e3pw9loM8wn9Ghm/ywqBb70aikQigU9+8pP48pe/fPcXf+Pj+MY3voH9+/cv2/qv/gN5/hbcv/Ifkf3iH+Df/rd/hr/+s6/hv//ZV9f0Wb70pS/hZ5441lLxTd7QT9h07R2gA2eDmI7kmRfHi4IbALw2L2zWFLzeKsyW2xfDi80QiDY6B7fcG+JMcFq8cFl86HOOYId7DwJiaNPEdraSxJvz38H19LkmcZCW4jgZ+UHDpKf6D9UKixgX8ViDdWuFBg0pKaoj4o0z2IElLfhktYKspN9He2nhZL6aacrW2wQnbEuKMwZcOzHo2oWqWkayHEa2kqyLbZfFh4PBh3Co68SW9y9tN95jDLrxOCy411/o6M8eKgPHhJ3LXohStntj4biap3ugu9m6F/TYcHCsdcRQ9k4AACAASURBVG1NX/rSl/BHf/RHcDgcq37uiy++uGqxXRfdZ6/D/Sv/EVwqh1/43Y/jf/03v4KhsdUL0SeffBLf/OY3W05sZyUXcuHmY40zcR1XMLneFKu5ejOA1TIV1a+78rlE8CYOXV4b7t3djQ8/sA9d3VKD2AbQVPtFtD78Zz/72c/qLczP3/YV9/Wxbytp0JCvpFGs5hs8xWvBYXbDYXY3TU5cDxbfb0qKoVDNQOCEut2hqlZwKvwSJKUIwWRBt30AAVsvTDChrNQEkaLJkJQSeuyNJyIzb8FU7uqCaKii1zlseJHAgUNGitWLHS0msWkUuqxW6pnpqlpp6vzAcwJipdm6gLYJDt1WRxbeipn8DSgL49tdFl/DsBkAKMiZejGkiTPhYPBBDDjH4RO7EBBDGHTtxLj3MEY8++Bq0XaLrc6rZ2cRTjZXlx/fF8KhfnPHf37BZEYP5wHvCBoORQJqvfTDxamFAuIgfXnWmR6/HYqqIZWr3VVxOyw4ti8Ek6m1L6KffPJJvPDCCxAEAclkEskke1jX+Pg4Pv3pT+Pzn/88XnzxRXgDblz77ReR+twXVp8ICidhfvsyfB/7GJ5/5ufw2z/7aVg9ASiKgqmpKcPnPvvss/jDP/xD/Nmf/B52D7WeH3r2Uhzxq80Dqbp29WPwON1pYicHqpgv3IKklJGvpiHy9oa71Mvxg5NTSGabk3cHx4N4/qFh7Ai54bSZIZgEJKVI0wwSDSqCtj6Igp12RovB0s93bSkpywXkKqkFq4EKDhy8YrBls56apmIiewnT+esNX1wOHAZdO7Hbfx8mshchKUUMOMex239vQ3HfldQ7mMxeBlAbXLPTd6Shaf5iEeNiQWGiFIbdZdy7NGDrrU/e0y2cXOKtLssFFKu5JjuLXwzVhXK8NMfsbRywhTCXv7nw3uabBpQExF7M5K4DuG1PsfAiumx0S3G9mIvrZ7F3hFzoVDuJHsNVOzzdj+Na5pzhbdHFbHdKimDMc7DpIpFYG3t2+GAWTJiK5HB0bw94U3vcsTpw4AA+97nPAQDOnTuHGzduIBKJIBKJoKenBz09PRgbG8OhQ4egaipipVlciL+J3D//97D85T+yv29HxiHv3wHxb17Wv2A8ex2WX/rX8H39yxBsFvzpb/0y/vS3fhn5YglvXJqqvwcA9ffx6N5BiPbWFkSs7iTk3zbmVmICc4kyHDYTfB5gNn8TfrF7xf29WRnue3d1Q7Q0SjO74EIKze2B01KsoQED0eJJp9Ve0eUqKeQqqaYJgrXMcaZlsp+qpqKilCEKdshqFWeiP0RG58ddg4ap3FXwJjPChSn4xVB9IMtSdnoPY75wCxVFggYN0eI0hly7m0VrflG0hjHo2mn4HpdaRgrVLCSl2DB+dtHqsWhtSZTnmwR3wBbCRPbiwsEXR66SqguTXCUFh9kDE2dCQLwtuPWyi36xp+6dr7UqjDe0JiTWRjonIZrS753aG3RsK8ENAL6ihPuFMVy1BAyH5ADk7d5Ixvo92BFytaRveyUcOnQIhw4115IkymFcTp5ZmOmQh+Pf/DXE//odQ7Gd/eIfQPO5ANHC3Lbw9tu4/rGfwfjXvwxh4Ra/027D0/ftBtB+3025JLH927v76QC5g2yhgnCyiJvhMBL52kApj8sEn4cHoCFZjqAo5xGyD4E3seVVNFWEVFEMEjBoEtx6sNoBE20quFVNRa6SQraSWnaser6a3nLBXahmcTl5GikpBrfFj2OhD+JK6h1kpDgEkwUh+xBcFh8UTcZ07mo9I73Yf5o1adHE8eh1jNSz3NHiTJPg9ttCdcGdMChiXMRp9sDCi3VPeKIURp9z9A4Rv/Q1wxi8Yyqlz9oNwWSBvHABdCb6CgJiL4pyDhkpgft7noBfDMEv1hr9e61d8IshqJra0OHFbLLAbfEjU0nU3wsJ7vVjjlGkZjXz6OcSwDb0w5s4AXu0IDzBAK6lzqKsFA0u9mvZ7mQ5jH5nbUQzsU4/AnxnDJrKVpKIFWcRLc00+P9XJbYBuP+PfwGrfQC5P/+LFYvudiUWN0Opyk2PewaDcPX66eAAkM5LCCeKCCcLKJZlKJqMrHR7emsmr0JWNAh87RxelguYzl1Dt2OAKZRZBZMD3U44xGZbit28ugE4RJsJ7qpaQa6SQqmah7+4stYzxWoOiiZvaZ9lK29DSopC1VRkFjK+c4Vb8FiDuKfrA7AsGUve6xjGG3PfbsjWG10wdNsG6oJbb+R6oCFLXCtiXO52j8viq0+ATJR1BPcSEa/XicTEmbDDtave8aSiSJgvTNTXU+UY/GIIVl7EE4M/0/B+78RvC90W3OUwxnCQjpD1Etxx/RNsX5ez5X2zG01vmYPPvBOXrUlEi9PGAqE0i1hpFgExhH7nWFPnHmJ7UZTziBVnECvN6t65W6nYdoeG0W0bRG9Zg8g5gT/9Y8wITmZxZaeI7sQNfTtJcBvbSTQNSGbLiCSLCCeLKFcaL0h4ToDd7EKxupBd1oB4UkGo67buUTQZ8/kJeK3BhmnOi7DsJKN9+n23WcJ9sbaMaHPBrWrK7S/UKshXMlvqKRJMZnit3UiWw9Cg4VLyNDhwONx1okFsL4rzYc8+XEudXfIoW/x4FzqLKJpcH7m+9GAym6xwWXx1T3WiHF42FpYlhZV63U38YqjB6pGVEvDcUUQ26jlQLzKrZygsAfS7xtDvGF0izo0b4wfEUD3Tr9eqkLh7ZmL6grs/6KDgABAFJ47AiVveAK6lzy4vFMphJMphTOeuot851nShSnQuVVVCtFi78IoVZ+otZFcrttV7dsH9pc9j58AB+AtlQG78RRz449po+U4V3ZqsIH5lVv+3YJsJblXVEEuXEEkWEUkVdcet36kdBJMZ+UqtXW4i1Si4F0lLcZTkIkKOoYbf0unI6gS3jTHivUQZ7s4Q3FbeBt4kQFHlFb2QTXDAafEyJyNtJkFbb128pqUYuu2DDQWOS+lzjDYI7rJcYHZb4TgTfGI34vVCx3DT1WtgSRFjojy/7KS9ypKplIvVzkuH/5hNFh0RH2x6X4e6TmBczkGSS7CbXbDytlXHzWvtql9QLLYq7LKRj289YN1C7As6AVQpQAuMyA4EvQ9jojrbcKeGRUqKISXFMJW7igHnGPqdY+A4EwWywyhWc0iUw0iWI0iWw001RKsV25ajR7DrH78DKy8BhTJzu04W3fPzQDHZLPyc3Z5tk+EOJ4uYjeYRz5SgqNqqnstzAjzWAIrVLAqlMhRFA883J+wkpYjp3DX02AfrNVirzXALJnOD/XQRWa1QYqwTBDdQa8/H6u28KMqdFi9cZq9hgcBmc+cgF4fZbfAZRLgt/rqgzVQShlXGATHUILjvxG8L4dZiEWM5hooiNWXWF1E0GelyrGHQT7w03zRtM2BbIuJLYWYnErvgYt56WgkmzgSf2IX4osWlNE+Cex0olKvMgsm+oANAmoK0BJcMHOT6EeregansFeYU1aVkK0lcTCYxlbuGfucY+p2j9CPU5qSlOJILdzJS5eiKn7ec2HYcP14TyPzKCpU7VXRHzk/qPt5zYPvYtMKJAiKpu8sSmwUTun12hALdsDkqSJRmoWr6+1/VFMwXahYTpezWLZi0WQX4XOxWwnbBqTsDpKwU4TR56ITR7oLbLriaBHfNNuGF0+LdkD7Z6/KDbfE1Xg1qxleuAVtvXdAmy2EMu/cabouFepzayPUyLPxtj3utiNEMWa1Cg4a5wk3m693MXICiyRhy7ar38E6U5pu277L1I1/JIGDrbbqYWP+LlV7ES/MQBQfMPI2NXQ9Y7QABYMAURwsOfG0JuooyuoQxzAWGMZm7sqJBOPlqGldSZ+pWk37nGPOCl1g/VFXD2xfD6As6MdTjBMetvi5B0eSawC5FEC/NomgwlXTNYnuVwrjTRHdJEhC5wBDcB7eP4O7x2w3Pz3diEUzo9tvRG3Ag6BGXfM/tsAt2hAtTTYPl7ryIjMTDMJtVVKuNd+L8LuPfW7vg0m2jWpYLLeEsINYouAWTue5Vcpo9cFq8d2VV2AoCYqh+S3q5E/dS73KqHGvq4LEUp9kDK2+rH1TJcqShcMvEmdBtG8Bc4RYA4FbmInrsgw0eLFVTcTNzHrcyF+GxBDDi2VcX3Ekp2nSLyGvtwj3dH9iUuPU6RtBl629qP0jcPSy/XtBjg9VCYns5+iQeveY9mHSUMZW9YtjNZJGinMO19Nm68A7aepusWMT6cX02g1ROQion4dZ8BrsGfQt3b5YRfnIByXIYsdIc4gYZwq0U250ouuevJqEqze8xsLMP3sHt052qy2sDxxnn5KxmHj1+O0IBOwLu2vb6esmCAdc44qU5wymQmXIeO0aKmJ2xoVS8XVflcxsnBmxmVuEk+bg7QnAvitE7Jxy2A/4lgjtjMFxjUdAuepcVTUZaisG/ZGy6XkwWBXWiPN/UKWHYs7e+XlUlvDX/PfQ5R2A2WZCvZpAozaOqVsCBw27/vbDydgRtfeA5oWHYzVZg4a2UEVxnWH69/i4qmFwpHGfCcNWOfste3DKXMJW7sqJxymWliBuZ87iROQ+3xY+grQ9BWy+1vFxHimUZN+cyDf9/9loMN+cy2D3kQ5e3MUmTqSQQL84hVpqt31lcc4Llf/8asIFiu9NENyu7HTqwvbr+CLwJfreIRKbRqmEx8wgtZLL9HnFVTVuDtj6IvB1RRkGvVFGgqUBFuiPD7V4uw81qDUidSjpGcJtMfFt+sIYpjUpRd0pj/TNyJnjFrob2fEaC229bKrib/aVOsxcj7n11L3dVlertBBcxmyw4EHyg/sN/b/dj9G3sUNI5fa9oX5eTgrNKzLyIXaqIAce9uIUkZvM3VvzcbCWJbCWJm5kLcFl8CNp6ERB7DY91YnnO34xD1Sk4yxYqOHUpArfThFBIgWSKIFaa0/WhrpZavUkP/NYeqP/yz5H+L1/dcLHdKaI7mbYiNdHsiRes5rbwbxfLMhLZMga71+f82eOzI5EpQ+BN6As6EPLbEfSu7U6+0+KFhbchXJhoKvCVqgpmZ2xQlEYZv5ylhOUuoF7cHSS42xWRt8NhdqNQzS4I43lDm0RADNUFd63DyWHDbZd+2QvVbFNh5k7fEfAmARPZS5DV210obIIDfY4RDLh2to09h1gbrOp3q5kHoFKA7gI7LNiPEHp7dmAyewWx0uyqnr84MfdW5iKcZg+Ctr5NqZHoNMKJQkN2UNFkSErp9h+5BDlTBWYBm02Bzy/D5b7LfS44ayJb7EGwIMHMi5j5V/8Zkc/9P5smtjtBdIcNvNuip/XG0EtVBfF0CclsGfFMGSWp1jnN67TAZV97HVko4IDDZm66E7NWLLwVA66diBSnGlosxyIiyuXmzlR+993dWS5RL24S3K1AQAwtEdzNUxobt+0F8G4tMyMlIasVCIyiUCtvg9PsQb6aqb+2XieUUc8BDLv3olDNQtVUiIKtYXQ7sU0Et0KCe6PwFyT4+WHkvMOYV5MIFydXnfHJVzPIVzOYyF6Cw+xeyHzXrCcEm6pagWpJw+JMYTqaQ1kp1Sfe6gqDEo/SrA3miAavrwKPrwqeNy5o94s9C5nsIHyFhTtFZQC8iJl/95+ZgncjxXY7i261KiNyfkJfeLZIdrsqq0hkSohnykhkyyiU9NumxjPldRHcooWHaNmY5JeJM6HXMYx0OYZEOQKnxYNIVL+mzOemJgUkuNtZcNtCt4sRlxm17rJ4651NNGhIlCPosQ8avHZvXXAny2EMMcS8iePhsvjom7adBbeqGghu6sG9HrhkwAU/xixuhD1AuDhVv2O1GgrVLArVLCazV2DhRbjMPrgs3oU/vqaWndsFWa0uWHISyEg1a05psRjdDXSJJsSjVuRyy/+kVGUOsZgV8bgVbncVPn8FVrF2jIiCHX5rTWR3FSqwCLbaQBq50Za11WK7XUX3/BxQSjdnRJ3dni2zkyiqhmS2jESmjHimhGyhsqLnJTJljPS62+L48YpdEAU7RMGBbPGm/sWliwQ3Ce42xmftWXZKY4OIXlJomSyHjQW3GMJ07iq81i746TY0YSRWGBlui5mn4KwzvElAvwT086PIdO1GWJpftlUXi4pSRkKZR6J8W7gvFeFuix9ua4BZzNSOVBQJJTm/8KeAXDWFbCW57NRhi0VF30AJ5TKPWMSKYnH577amAZmMGVLeiy6PE48cGoK/UK4lRSQAgn7WsVXEdjuK7lbpvZ3KSfUsdjJ7d57+u33eViEKDuRLVd16B4E3we2wgCDB3b4fzmSGxxpEWorVroh1pjSyBHeiZDxsIyCG8MTgzyw7Lp0gjDPcxEbhKVXhQRDjVg/mRSBcnESyHFmjIGWIcIsPHosfbksAHmugZeszZLWKklxoENVL/1Y0eU2vL4oKBncUUSgIiEetKJdNOudlC0TeDpvggE1wwmyywGe3IlCQgGX6QbSa2G4n0V2sOlqi93YqJ+HNC/Nr/y4rKtJ5CV5n+3TVyhX1s/d3698mSHC3FAEx1CC4WVMagcbOJkU5h9IyY945+v4QKxHcTA83jSDfDHiTGQMVYEAYR6p7P8KlGUSKU+vSLaMuwkvzDRYWnhNg5q2wmKz1vy28FWaTFRaT2LRm5q1Mu5seGjSomlL/o2jqkv9XF4R1s6iuqtKmxNzhkOEYkVHICyhlvaiWHLDytRoWq85ArcEeF4CE4WvGv/FSS4rt1Yju2T/5V9jxH/5kS97f/MU5aDoNpze797bRNMXV4HeLy820azlYdhkf2UlIcHeE4LaFcCNzHkCtH7eiyeA5/Y9t5e3wWoOw8CICYohGQxPrI7hVspS0Cr6iBB+6sMvqQ9IpIlWOIiXFlu3Vv+p9rslQZBllrLyDgNlkgYUXYTZZAWhQl4joRkGt6Pb3bRU81gB81m64LX74xSIsITvKkozrZS9mY/mm44E3cehHHMtlt4M/9RSAv8Tkr/1ay4ntlYju4K/+6paJbaC1em/7XFakciu/+OM4wOOwIuAREXCL8LlF8Kb2S3mxM9wkuElwdwAea7A+al3VVKTKUQRtfcztj4Wepm8Fsb7iS9EXATauQsHZIniTUBsdDz9g9qPCDSHmsCAtRZEqx1CUc5v+nqpqpalnb6vDcSb4rF3wWbvhsQbhyxfAm8y15jtlAEKtK5NoFXDAmsdeh4oJ2Y/JcBblSm1wUX+XE5xpZWPc9UR3q4htI9G91WI7kTQjPRVrFgAr6L2tqBpyxQryxSr8bhF2ce2ywecSlxXcLrsFQY8I/4LIFvj2vyPIynBTwSQJ7o6AAweftbvepzdRDhsKboJYb2RGhtsmJQGR7qK0AhbBViu2RC8g9qIs5xC1m5EohZGSog299Lf1D4bJDJ+1Gz6xC37OBVdFqVlhFADFCrDMXUFeMGFMSGNsGJhHF27NZTFqSQFY+XGwVHTfKbYnq350VcOw27e2AG2p6N5qsQ0A8+cmdB9f2ntbUTXkixXkSlXki1XkSjWRvdj3GgAOjAYwJLrW/H78bituzi29AObgdVnhc1rhc4nwuqwwC51nucuSh5sEd6fT4xiCYDIjIIYQoN66xCbDynALAnm4WxVRcGGoAgzxw4B9GFmLCXE1g0Q5jJKc7+jpbibOBLvggt3savjbmU3Dsui/rgK1NPbd39bvRRy9fViV2L5TdHufe7outoulKt6fTiy8ngavywqv0wq3w4JAJQzbJl/cLoruxb+3irzswcypHwIANHComEyQTSZUTDxcPV14+/0wCuVq/Y6DoWAsrM8dGK/Liv4uJ7xOK3wu67bp0JFjebjJUkKCu1Poc4ygzzFCe5vYGsHNyHCbBfJwtwvuigo3XBgVXIAAaJoKSSki7/YtFFjnUazWihSLch6qprT05+HANQlqu9kFVyZd6329iIpaiz6pDPCtJQpqovv2xWxU6AaQrP9/OichXbctCOBNgMdphUMUYBfNcIgC3KV5iFYBpg3yA2+12AaAmVPXkAWPmNMFmbt9kW9125ETbcAq2uuxPMirxSLwODwe3HbnEVaG28xT8oUEN0EQa8bvFnV7xka4LvRoMQpQG8JxJoiCE2KxCkCs/eGDAA/AClSVMvJuD0pyEcWFbiFluQBZk6GoMmStCkWV19yGbyk8x0MwWSCYLDCbzAv/bYZ54W8rb4ddcMGVTcMq2BtFdQVARWL2vm4H0st4ghcHrCSzzT+BFrOpLsR3imnYbZ1h9aoUq5g5dRUc0CC2AcDd51+9YCxQ3clakBh3EVZyt7Ms0wh3EtwEQRgSYAnuVBE9XopPJ2LmRfgKEnzgAXgAzsN0TiiqDFWToWoKZIuIimiHDBWKWoWiyZAX/jZxfF08CyYLLBUJllIBPCeAN5nBcYwfbQ01j7UCoFKpFzJ2GqvpetEkTKsKKlUFqZyE/l1dsCO95vdzo+zVHXJyJ6qmoSqrtT+KCnnxv2UVopXHif67rx+YvJxHpSDBbGq8m2a2W+HuD6z69RRVQ1GSYbeSdLgbqgx74XIZ7pJcQLw0TwEkwU0QhBGslk+RZBEgwb3t4U0C+IVTsVUFHEXpjlO0oKOgF7ZhzAnYdkJGVlCS1qdVoqMcW5di5msz6RUJbiPWYnVRpFp2GwDMdwzf8vQHYFqFjYE3cXDazHDaLYBG37e7/54yBLdBhruqSAgXJph3w2oX7CpMHNlSSHATxHYX3B59wR1NFQHYKEAEsUZURUNvwIFMQUKxvDabjmWdaivWKraB2jTFu2XquoRSstZukYMGXtOgcBwEq5lpJ+F5E1w284K4NsNps8BpN1NGe4MFt1HLQ47jYOIEw7qQ2fwN9DlHmDNGCBLcBLEtCBhluElwE8SasVoF3GMtAoHaZNccnEjKFmQLFWTyFRTKK7NlcFytdWGrUBPcq89ya6pWz24vYlZVKDwPX78ffr+jXjhqF82wiwIcohlWCxVyb4XgNspwCyYLBlxjiC+0Nm66SOIEVJQyZnI30O8cgWCyUKBJcBPE9oRpKUkVAQQoQASxjvC8CV4U4eWLgBWAvybC86qIrMmFUrmKQllGUZJRLFcbRJDdagYgt9TnUWR11RcBMzcryM2nGh4LlQswm034wIeehKPLTV+UFhLcyw314TmhsdC5Ya12kSSrlZrodo0uTKslSHATxDaDleEulmWUytVN7w9MENtRhHv4CjxIAA7U/iwKWkWDJMnI2PugaQAQb6n3Lit3IbjvyG4DgFlVsOP+XSS2t1Rw69tCVjLkR2ZMoTVxt+9KKJqM2dxNEt0kuAlie+I3GGowqwUxjgwFiSC2UIzb7RbYEV/LHJ8mdg6srCKa42pt4cy8CWYesEkpCKoEnucgmEww8av7mZ6fVpGaiOquDRzbRTt8i1A1TXcmw0onalYVfcHNmxq/H4uiu885cntQFUGCmyC2k+hmtQYcJxs3QXQcO+13cSGtAbAAdzN9cxG97DYADNy/E55+srBtFXdrJ6k/X9Vve7k0w90guvM30ecchZVEd8tAfWQIYhMwLpwkCIJYO9GoCbEr+sV1A8d2UoBaUHCvOMPNsJSwOpOomoK5/A1ISpmCT4KbILYPxoWTBEEQa2fm1DXdx0OHhuEfDVGAWlBwrzXD3WXvZz5H1dQF0V2iHUCCmyC2ieBm9OK+Pp2m4BAEsWaSGSvC5yZ01waOUna7VQX3ygomq1A1/ecHxJCh6AYAjaYVkeAmiO3C/mF972RFVnG95KEAEQSxJljZ7eDufnTvHaQAbbngZnQoWUGGm2UnsSx0InFb/Oi2DzQLPM6EXucIRN5OO4AEN0FsD3aEXHDa9AuhLk0kKUAEQdw1qbyNKbgHKbvdGoKbMTVUEFYiuCWGWL/d+s9l8aHHPkhimwQ3QRD7R/Sz3BdJcBMEsQZu/fiC7uO+4W70HhmlALWC4GZZStaQ4b6z17bT4kWPfRAmjiexTYKbIEhw38lMLI+k5qIAEQSxauamFAPvNvXdbhWkqr6lxGrhl31uhdFpxMI3D7dxWrzY4d5NYpsEN0FsX8YH2F7tK2GJAkQQxKrQFBW3XmVkt0d6MHicBHerUKncveBmWUosJv1ifL3e3AQJboLYNrjsFub0uctTKQoQQRCr4uaFHDLT+qPoh0/sowC1EKwMt2hefv7gajLcBAlugiAA7Nnh13380kQSCsPjRxAEcSfFisj0bvcc2IHewyMUpDYQ3CuzlDAy3DRFkgQ3QRD6sGwlJUnG5aKbAkQQxIq4+cYNVAr6mU/KbneY4F6lpYQgwU0Q257RPg9z6uRVGoJDEMQKiCfNmHrzsu7a4PFdCIz3UpBaDJaHWzSvwMNNlhIS3ARBrJ7dQz6G4CYfN0EQy8OykvBmAcMn9lOAWpCNyHCbKcNNgpsgCDbj/fq2kploHpfz1B6QIAg20zckxC7P6K4NP7IPrl4fBamNBDcVTZLgJjqEjBSnILSa4GZ0KgGAk5ciFCCCIHRRpCozu23zOsm73YaCe7kMtwaNPdqdiiZJcBOtQaIcxsnISzgXf52C0UL43SKO7e3RXTt1KYJZNUBBIgiiiRvns8hH9Gs9hh/ZB6ubhp10muCuKiw7iRUcuA15r/lqBpHCFO00EtzESoiV5vBO9EfQNBXhwiSupd+joLQQx/aFmGuU5SYI4k6ykouZ3fb0Byi73eJUKvptX5crmqyom2snyUoJRApTyFcziJfmaMeR4CaMiBancTb6Y2ja7QP8VuZ9zOSvU3BahN1DPuwb1u/JffJiGMVSlYJEEMTtc/iPL0CpyLprOx7ZB46nn/NW5m4z3JvZgztRCiO2RGRnpATSZEslwU2wxfZ7sdegQWtau5Q4hYyUoCC1CMf26me586Uq3pi3UIAIggAAROaB2TP6CZPgrn4M3L+TgtS2gltYRnAzMtym9cxwa4gUp5GWYjoifB75aoZ2IAluoungVCVdsV07pDS8F/8JZJWyp63A6rg7QAAAIABJREFUfXu6Mdij35Xk5KUINE2jIBHEdhdqxSouf/s0c334EbKStLPgXs5SUlU3PsOtAVAMdEG0MI2SXKCdSIKbWMqAcxwjHnYf1rJcxPuJtyhQLQKreHI+UcDbEapAJ4jtzqVXZ1CI6WcY++4ZQ/feQQpSGwvuu7aUrGMPbg4cQo5hpojXoCFcmGAWcBIkuLctO72H0esYZq5HitOYy9+kQLWE4A7B59K/NXjqUpgCRBDbmFsXcph7l32upux2+6A3aTLgXl40b1bRpIkzoc85AsFk1l1XNRVzhVt0h5wEN3EnBwIPwG3xM9evpN6hA6cFsIsCs2PJ1ek03s86KUgEsQ1JpK2GVpI9zx+Fd6iLAtUGpHISVB2LoN+zAsG9iUWTPCegzzECE6efdZfVKuYLt6BqKu1UEtzbi2SZ3T6O40w40vUozCb94ruqWsGNzHkKYgtwbG8PzIL+oUgtAgli+6FUZFz59iloqr6w6T0ygtHHD1Kg2oRoqqj7+Foy3GbTxrQFNPNW9DqGmT2+K4pEPbpJcG8vZvLXcTryMm6kzzG3EQU7Dnc9wlyfyl5BUc5RMLeYbp+d2bHknStRTMl+ChJBbCMuvxlFeiqmu+YIurHn+aMUpDYiwhLcHltLvl9RsKPHMcRcL8o5JEpkeSTBvQ2YzF7GxcRJAMCNzAXM5Nj9tf1iD4Zcu3XXNGi4knyXAtoCHNvXw1x75cw0BYggtgkzNyRMvnGJub77+aOw+chq1k5Ek3ef4d4qHGY3grY+5npaiiFXSdPOJcHduUxkL+FK6p2Gxy4lTyFj0Jx+3HsIVobfK1aaoYOmBRjt8+DweFB37cyVKN5J2ChIBNHhZCUXLv8T27c9/tRhhA7uoEC1GZFUSfdxv7u1O1F5rAG4rQHmeqw4g7JcpB1MgrszxfbVVHNGutZf+zVmEaRgMmO3/37m697Kvk/BbQFOHO5nrr18ehqKQoUqBNHJXPmn06jk9T27XXsGsOtD91GQ2hCmh9vT+q1fu2y9sAkO3TUNGuYLE6iqFdrJJLg7i4pBD8yyXMSl5Cnmesg+BK9Vv6I9XJhESc5TgLeYPUM+PHpEX3RPRXL4wS06XAmiU7l6Ko7Y5RndNavLRr7tNkVWVCSzzRdRvImD12ltg0/AoccxZNAuUMF8YYJ2NAnuzmKX7wj6HCPM9fnCBBKleeb6mOcAc20ie5kC3AI8df8Qsy/3y6enMKcFKUgE0WFE5oHrL73HXN/9/P1w9fooUO24bxn+7Va3kzRcHHACs3MJx5kQtPXSjibB3XnsDz4Aj5Utui4mT0Fj9MgM2HrhNHsZYp16a7YCPpcVT92vXx1erih4+TS1YyKITmLZ0e0n9mHg/p0UqDYlyvBvt4OdZCkWXkS3faBJiA84x2AXXLSjSXB3Hhw43NP1KETerrtekvOYyLGz1aNe/Sy3rFaRKM9TgFuAR4/0Y8+Qfjbr5KUIzibtFCSC6BCMRrf7RnrIStLmMFsCutuvEN5p8datqRbeigHX+IYM4CHBTWwqaYOuIxZexP7Aceb6pIE9JGQfgsAYhhMuTFLgW4Qnj7J7oL58ZhqaztQygiDai+tn08zR7bxZwJ7nj8Jk5ilQbUw7F0zqvm9bCD6xG/3OcaavmyDB3T4HaHEap8I/wM3MBYMvfS+67YO6axWljNn8DeZzexjPixSnyVbSIhgVUE7MZ/ESFVASRFszda2Mq985wz4HfPh++Ia7KVDt/nveAR7upvcu9sDE0W8QCe42J1yYxNnYT6BBw/X0OcQNiiB3++5lrk1k2YMTeh36fVxVTUFKitJOaBGMCihfOj2FMNdFQSKIdjzPzwEXvvI6c33g6E7seHgfBaoDYPXg7vGRNZAEN7FlzBcmcC7eeBI+F3+N2bLPJjgw4BzXXStUs8hVUoyr0xDMDFtJqhyhHdEiGBVQFssyFVASRBuSzFjxzv/7MnPd3ecn33aHkC1UUK7ITY9bBB4D3TQtlAQ3sSXMFW7hfPyNpsdltao77GaREc9+QwHPwi/2MAR3jHZGC2FUQPnW+2GcSzkoSATRJuRlF07/1UvMdZvPiYOffAQWJxWidQKsgsnhXjcFhwQ3sVVISol90Banka0k9U/QgoMpno2KIH0swS1FoWoK7ZAWwqiA8h9ev4likaZ8EUSrI5cknP7iK5DL+serSTDh8M89Cs9AgILVIVya0P/dHukjwU2Cm9gyRtz70GNnC6trqbPMtV7HsO7jZaWIopzTXfOL7GIclhWF2BqMCigjySK+epEukAii1Tn59asoxrPM9Xt/6Un4x0IUqA7i8qS+4B7t9VBwSHATW8mB4APMnpaJchj5alp37c5m9EtJlfWLIJ1mL7OlT4Eh0omt46n7hxD06PdtPXkxjFenBQoSQbQop795FelJdkH6kU8/hu59gxSoDiJfqmI6ql9/RRluEtzEFsNzAkYNPNnx0pzu42aTlTlBMiWxPdms6VClKgnuVsPnsuKFE6PM9W+9fhOTVT8FiiBajHMvTSF6cZq5fuCnH0LfPaMUqA6DZScZ7HbBZl17gkRWqxRkEtzEIvOFCbw5/x18f/Jv8cr0V3Am+kNMZi9D0WTmc4Zcu2Hl9TOZiVKYLcgYFpFClX0L02HWv8ouMrqiEFvLPbu6DMe+f+v1mxQkgmghLr8Zxcypa8z1PR8+iqEH9lCgOlFwM+wkO0KrG4NuMenf9S4rRQoyCW4CAM5Ef4jz8TfqfmhZrSBRmseV1Dt4e/57hlenIUaf7EQ5zBTrTPFskK22MwU3ZbhblRceGcVuRteSK1MpfOsy+bkJohW4eT6Lmz86z1wff+oIRh87SIHq1P0/m2EI7tXZSURBv193WSbBTYKbwKXkKSQMBtbkqxm8G/0xc73L1s9cy1X0fdwOhj2kqkpMcS8yMumKKtNObFE4AC+cGGXekvz+ySlqFUgQW8zMzQou/+Mp5nr/fePY9aF7KVAdynQ0j0S2rLs2ssqWgCLPENxKoS1jk6+kESlOk+Am1k6qHMV07try20lRzOSv666x2vwBgMS4jSQKbJFVVfXbUAmM4TeyRoK7lRnqcRn6ualVIEFsHdGICef+/ifMdf9oCIc/9SgFqoO5MqVvJ+ny2tDjX92ESZbFtN0y3Bo0xIqziBSnka+kt2U3NBLc68xU7uqKt40U2JMCWd1KJKW8KvEMAIpWZTxHv0uJQsUYLc+JQ3146ECv/veKWgUSxNaI7agJp//qB8x1m9+JB37zOQpUh3NjnewkgIGlpI083LJaxUzuesM8kXhpjpkMJMFNrIhMJb7ibXPVlMFVrb7grjAEN2v7moDWF1+s8e7b7SBoV144McocD0ytAglic5m6UsLp/8oW2+CAD/yzT1CgOhxZUQ0Et2vVr8e0lMjtYSmRlBKmc9eatIuqqYgYDOcjwU0si6apK962okgGr7N+74njOMb5n6Md1sY4bGZqFUgQLcCVt2O48LU3DLd56rM/D5PAU7A6/bswlUJJ0rdljtzFSHerwLagtEOWWzCZmRpEUsqG9W4kuAlDWJ0/9GD1zl68KtQ9+Bh+LqOuJzwnrOo5ZpOVdmSbsHeHHx95eET/ZEytAgliwzn73QnceOWc4TaP/G8fg8UhUrC2Aazs9li/564sJRy4tvZx85xgOEU7LcVR2iatiElwrzN9jpUPMOhzjjDXqqq0OsGtVQ2vMPWfI69qe6I1efrYDhweD+quXZlK4b+fLlGQCGIDOPnVy5h794bhNg/+1ofh6vVRsLYJN+f0BfeB0eBdv6a1zW0lNsEBn9jFXI8Upg3nk5DgJnTpd47Ca13+wHKY3Rh279VdS5YjBgeefpbE6ArRymz/xyqmJO9vu/HCiTH4XPrfjZMXw/jyOfLlE8R68sbfnkf86qzhNo/8wcfgG+6mYG0T5uIFZob74Gjgrl9XFBgZ7jYqnPSJPUw/uqLJiBZmSHATq+fe7scNW/u5LD4c7XmKuR438DQ5Lfo2lEJFf6KkXXAyX4tlWyFLSfvR7bPho4+w7668enaWhuIQxDqgSFX85IvvID0ZZW7D8SY88S9+Fq4QZba3E2eu6H8n9o8EVt0OsEFw8+0//IYDhx7HEEycvuwsyjlkpSQJbmJ1CCYz7u95EoeCDzdMgBQFB/b6j+LB3meZbf8AIMpoCh+09TH92KyOJ3YzuyqaNfbdLrhoJ7Yh9+3uxjPHdjDXv39yCj+4SYWyBHG35CpuvPrFd5ALsztMWZwiPvivfh6ilwZQbScqVQVnrujfnT6whuw2wC6cbLfhN4LJjG77AHO901sFkndgAwk5djDHtLMIF6eYo9W7bewvaqIc1n3cqDCzIOsLbpvZSTuvTfnwwyPIl6p4/fyc7vo/vHYTomUnHhmg4UYEsRqiURPe+x//hGqR3V3K0eXGB/7wpylY25AzV6JIZJrb9lrN/JoFdydkuOvHiNkDl8WnO/hGg4ZIYQoDrvGO/I5QhrvFuJFmV7t32fuYB12xqi/Sjawt+Yq+14wy3O3Nzz21C0d2sgtUvvTKNZxLU/aNIFbK3JSCM//tZUOx7R3sIrG9zQW3HgdGA/A612bTZI93L7ZlrIK2PuYcEEkpIVWOkuAmNpYrqXeYNo9exzCzUjlcZDeP94n6BTtFOcfshGLk+ybag1/98H6MD7Dvbvzlty5gRg1QoAhiGaaulXH2b34ETWHPWAju6sdDv/MRCtY25ep0GlemUkzBvVZYlpKKUjZsCdyywpMzocfBbhWYLEeYNWYkuIm1n9RzVzGZvcxcH/MeZK7NFyaYYpvl+WZ1QuE5AS4LFfp0Ap/56EH0BvQz2ZoGfO7LZ1GpkLWEIFjcupDDha+8brhN7+ERHHvxGQrWNobl3XY7LGtqB7gIK8MNABkp3pYxs/I2ZkIQACKFKWjQOup7QoK7RWAJY6CW3WbZPDKVhK4XavF5LFi3bLwGvTKJ9kK08PjMRw/CZde/dVeSZPzbb0cpUAShw7UzSVz61knDbYYe2I17fvFxCtY2JpktM+0kB0cDEC1rny5q4kzMeqx0Jd62sfOLPcy2xVW10nHWEhLcLUK/cxT7A8d1hbhRdvu6gefbaLpToqzfetBvpZ6xnUTAI+IzHz3IHK2bykn49yS6CaJOpVjFu9++gWvff9dwu9HHD+HATz9MAdvmnLkShVTRb7m6HtntRViDYzJSoq3j12MfBIfm3yeXxQuvtbMSgCS4W0p0jzWJ7iNdjzCz2ykpigSjZ3ePfYhZlJAsR1BRJMZB3UM7osPYEXLhMx89wFyfTxTwuVdSFChi2xOL8Xjr785h/tyE4Xa7n7sfe56/nwJGMLPbgz2udfFvL8ISn2kp3tbxM/NWBGyh26KU4xFy7EC3fZDZs5sEN7Fuonuv/ygAYK//KAK2Xt3tNGi4mGDf7hzx7GMLLIbn22yywGOlQrpOZP9IAL/4zB7m+rWZNP6aRsAT25hbF3I49ZffRz6SNtzuwCcewtgThyhgBN65GsVsTH/K88MHe9f13/IwJljLagX5arqt4+ixBmETHLAJDgy5djXML+kkqA93CzLo2gmXxWc4In4ye5nZ0cQv9sBt8TOfyxqsE3Ls0L21Q3QGx/aFkC9X8fUf39Bdf/tiGH7PMJ7bSd8BYvugSFW8/5N5zJy6ZridxWnD/p86jt4joxQ0AgBw5jI7u/3wwb51/bfsghMib9dtBZiRkoYzN9qBkGMHTBzf0d8XynC3KEZiO1/NGHq3Rz1s+0C4MMmc5LTaIT1E+/HEvYN4+hjb2/+dNyfwd+9KFChiW5DKinj7K5eWFduBnX049uIzJLaJOlORHM7d0LdzrHd2u64LmD7ueNvHs9PFNkAZ7rZD1VSci70OVdMv0gja+pjDbjRouJZ+T3fNwovwUcHktuAjD48iX6rijfP6/v/Xz88hUwjgMyfcFCyicwXT1RIufevHUJZpjTn8yH7s/cgxcCa680Pc5pUz+neKNyK7XRfc1i6EC81zNzKVOO2QdriooBC0F+/FXjX0a+323ctcmy9MoCTr+80GnOMU3G3Ep57ajcPj7LsoF24m8H9+l07iROehKSou/mQeF776hqHYNtssOPjJE9j30eMktokGzlyJMoslNyq7DYBpFc1V0h05KIYEN7GFYvsniJXmmOsjnv2GxQassfEmjseQazcFeJvxax85gN1D7CFH09Ec/virsyiWqhQsoiPISi6c/NplTLx20XA7/2gPjr74DAaP7aKgEQ1UZBUvnZ7SXdvI7Pai4GbN7MhWkrRzSHAT60W/c4xZ1OgTuzHuZVfO38peREkuMF53FBbeSgHehvzWJw7jwQPsjEy2UMEffnkGMwp1ryHam7lJGaf+4ntIXJ833G7HQ3tx9Nc/BO8gDQEjmnnp9BRmopvTmaRJsHEmAx93gnYOCW5ivQja+nC460TT46Jgx5GuR5livKJIuJm+wHzdYfc+Cu425uc/uBvPPThsuM1/+JvTuJhzUbCItuTKyTjO/u2PIeXYt915i4ADn3gI+z/+IHgzT0EjmpiJ5vHyqa3Jbi/isegnPyjDTYKbWGe67YM4dIfovqfrA8whNwBwLX0WiqbvVex3jsEmOCiw25xnHxjGLxj06QaAL3z9HN4K050Qon0oSQLO/MM13Hj5PcPtvENdOPbrz2DowT0UNILJS6enUJFV3bWNzm4vwvJxZysJaJpKO4kEN7GehOxDOBB8EABwMPgQXBa2DzdWmsNsXr/vMs8J2Ok9QgElAADH94Xwmx8zHujxN9+/jO/fpAIyovWZulbGW198HZH3pwy3Gzy+C8defAa+EZqyS7AxKpTcrOw2ALit+oK7okjIUJabBDex/vQ5RnA89DR6HcPMbYpyHufjrzPXRz0HyLtNNLB32I/f+9l7DLf51ms38dXzVEhJtCaZkhPv/ON1XPjK6yil8sztOJMJ+z76AA7+zAkIooUCRzAxKpQEgEcP92/aexF5OzPLHTdoqkCQ4CbWgMdgOI6iyXg3+iPIqr4wEgUHht10+5TQuRDr8+Cf/+JRWA18rD96dwZffKuASlWmgBEtw42zabz1+W8jfH7ScDt3fwDHXnwGw49Q/QqxPEaFkvfu7sYD+0Ob+n5YgjtWmqWdRYKb2Gzei73GHP0OAAcCx8FxtPsJffqCDvzRLx1FKMD2979zNYov/CSHKEcdTIitJR4X8Nbfv48r3zmz7CCb/vvHcezFZxAY76XAEctiVChptwp45tjmT2hmDbfLVVJIliO000hwE5uBBg1nY68a3loa8x6EXwxRsAjjk7pbxO9+8gj2DfuZ21yfSeML33gf7ybsFDBi05FLFVx6PYKTf/E9JG+GDbe1OETs++gDOPxzj8LiECl4xIowKpR8+vgO9AU3v+lAl30AoqB/zt1uWe5iNYfZ/A1o0EhwE5vLtdRZRIszzPWgrRdjnoMUKGJFOEQzXnzhIO7b3c3cJp4p4a++/T6+eVGBplHMiM1hblLGG//jPG69emHZbXuPjOKB33yOLCTEqnjt3ByzUHL3kA9P3je4Je+L53h02wb0BXdxti3E51pRVBnhwiTmCxMoy0Wky60/GVmgQ6qz6HeOYa5wCxWl3LRmExw4GHyYgkSs7uTOc/jl5/bBauHxxnn20JCXTk9hKuLDCydGscNM1fLExlCQ3bj+ynnMnrm+7LY2nxPjHzxCEyOJVXNzNoO/f/kqc/2Z4zu29P112QcwlWt+f0U5h1hxFt32gY7dN1kpgUQ5DHVJG8SUFIXb4gNval1ZSxnuDsNhduNoz1Ow8I23TAWTGfd2P27Yr5sgjPjUU7vxxDIZnavTKfxfX30Pr82aKWDEujNxsYA3v/CdFYntwWO78MBvPkdim1g15YqMr73K/o598OgQdg54t/Q9BsQQsyVwvINtJYVqFrHSXIPYBgBNU1u+SwsJ7g4V3cdDT8PK1zxeHDjc0/UBOMxuCg6xJj726BieXWYqZbki4+9fvoq/faeMskRdTIi1k8qJOPX1K7j4zbdQyZcNt3X2eHHPLzyGg588AZvPScEjVs3XX72ByXBO/0Ku27nl2e1FmLaS0hyzQ1kn6Bsrb9Ndy1czKMl5EtzE5mITnDgW+iCsvB37AsfhE7spKMS68NwDw/jMRw8adjABgDcvzOPPXknRSHjirtFkBVdPJfDW//1PiF2eWXb74Uf24YHffA69R0YpeMRd8eOzs4bWuaeP7TBsmbqpgpthG5GUUkcXTxrZZVrZw04e7hVSkvO4kHgLALDHd5/hdMfWEd0OPNz3PATTxt7en8lfx3xhAlbehkPkEd8WHBgNYLDbiW++dhOnLrHbUM3G8vjC18/h+YdG8KFxihuxciJhDjdeeh/p6diy23qHujD+1BF07xukwBF3zbWZNL7yw2vM9YcP9uLIzq6Web8uiw8BMYREublDT6w0azgYr52x8CLc1gCyUqJprapWkCnH4RW7Wu59k+BeIbJaRaocre/QdmGjxTYAlKp5pMpR2AS6fbud8Dit+KUP7cVQjwvf/MlNyIrK3Pbbb9zCdCSIF06MokeLUfAIJsmMiMnXL2L+vVsr2n7sycPY+dQRmFok60i0J4VyFZ/78lnmeo/PjqeP7Wi5991lH9AX3MVZSEqJab9odwJiD/KVNFRNaT6HSFG4WrCAkgQ3QRBr4rF7BjDY7cI3X7uJW3MZ5nbnbsQxFcnhhROjONpdpsARDeQqbky+fhFTb11Z2Q/ueC/GnzpCA2yIdeHPv/Iec0208Pj5p3fD7269/u3dtgFc496FcofwVDQZsdIsBpydeWvRxPEI2HoR02mDrGkq4uV59Nhb644XebgJglgzY/0e/NbHD+EDR/oNt0vnJfx/372Er56vQpFVChyBSrGKy29F8cbnvrUisW0y89j97H04/j8/S2KbWBf+7qWrmI2xi+1+6dl9GO3ztOR7FwU7uuzsntydjNviYxdQVtKQlFJLvV/KcBMEsS5YzDx++vGdGFywmOSKbOvVj96dwVTEgw89sAN7nTkK3jZEqciYuFTAxGsXIWWLK3pO975BjD91BN6hLgogsS68eWEer59nt5P79NN7cHA00NKfods2gHBhsllwl2aRkRLwWAMdu/+67QOYzun77uOlOfQ7x0hwEwTRmRzfF1qwmNzAxVvsATg35zL4/NfO4cEDvXj83gH0Ik7B2yZMXS1h4rWLyEfSK9re2e3F8Il9GHpoDwWPWDfev5XA3/6AfVflpx4dwwP7Qy3/ORZHvZfl5gvX6dxVeKwPduw+tPAi3BY/spXm35qyXES+kobT4m2J90qCmyCIdacv6MBv/NQhfPuNW/ju25OG2755YR7vXo3h8fsG8NT/396dPrdx5vkB/3Y3utE4GzdIEBQvUbKow5J12DOS13PsZnZ2PUlt7SZvkqpN8j5VeZVKVSr5L/Imb7byZisvUqmpqfV4jrU9U2PLsi1ZFnXQ4i0SBAgS99noA50XDUKkCEKgCB4Af58qVDfQ3TieBokvHjzHqA6Bp39L/Sq+quPF58+QXd7o7MPUKWL0zkWM3pmCRaTJlEj3fPE4jv/zz3vPJPmja9Fjm7p9v7amem8182S8vISIcxw+Mdy359JnC6Oo5mAYu5sppuV1OAQJDBgK3ISQ/vXXPxxrNjHZyO7dbEBWNHz85TK+m3Xgx+9E8YNBhQqvj2ymOLz4fAYbM6sd7c+wDEbvTGH0zhRsPhrHnXTXr79cxsf3lvfcfm7Yg7/9UW91Now4x1sGbsCs5e7nwM0xFvisoZajtWh1FTk5Be8JGCaQAjch5FBdmQhgOOTCrz5fwP3v29dsJtJl/OPvn+PhiA8/vh6l9t09LleyY/mLZ4h/u9DxMUM3zmL0zhSkaIAKkHTdP/7+Ob58svfENk4bj//0d1d77nW5BR+izrOIlXZPSZ+srGKzEtuzc2U/kMQA8kq65Qyb2doG3FYvOOZ4Iy8FbkLIofO6rPj7n09hLCLh0/urSBfaDws48yKDmRcZat/do8qaG8t3v8eLL2Y6PiZ0YRij708hcG6ICpAcin/49TN8+7z9l/7/8R/e7dnXF3W1DtwAsFKc6+vAzYBBwDaI9fLKrm2GUUeuloJfPN72+BS4CSFH5s/eHsLVs0F88mAVnz54ffMCat/dW5RStTHyyJ+gyZ01C/KMhDB6ZwqRazQdOzk8/+tXT/B4of0X9//6727AZu3d/zHtarnTcgKJ8nLfzj4JAA5e2tV5lGVYeK0hSOLx/2JGn16EkKP9UHAI+Js/m8DbZwP49MEqHs23/xCk9t0nX1FxIXZ/Hmv356CUa519OAYljN6ZwsjtC1SA5FD9z/83je9fZNru81/+7XUMBXt/tuR2tdyrxdm+DtwAELBFECvON76AeOGzDRx7UxIK3ISQYzUekTAekfDNTBKfPlhFrM3EEwC17z6J0jkBa/fnEbs/BxidHSM4rBhpjDzC2wQqRHJo8mUF//DRUyys7T0DrsBz+O///hY8Tmt/VGi0qeXO1VKIleb7dvZJALByNvhtg7BZnLByJ2tmUArchJBjdfNCGG9PBvHpg1V8cn8VsqK13X97++4fXhrEqJClQjxi63EDa/fnkXy6sq/jRu9MYfT9Kdj9bipEcqg2shX8749nsJLc+4t50GPDf/v7W+BYpq9ee9u23IVZRBxjYBmub8+9x3oyO1xT4CaEHDvBwuIv3x1pNjO593T9tcd8+SSBL58k8M65EG5NhXHRXaKCPESGXkdsSUXs/hyyS8l9HTv0zgRG7kzRDJHkSDxZTONXny8ikS7vuc/EkIT//G+u9eXrb1fLXVJzWCnOYtRNTbmOGmMYRssfAh88eNBcv379+qkupLXSAp6mv9px26TnbYxJF0/9G+he4je7Znj6IPo3sHI2+usiB/rA/OTBKuZjuY6POX/Gi3enBnAzJFMBdpFakbE6ryB2f65VQiufAAAdt0lEQVTjmSG3hC+N4Mx75xF8K0oFSQ6dXjfw0d0l/P6b9r+8XDsXxH/86/7+/C4oGdxL/KblNpvFiXcHfgaBs9Kb5hDslZ+phpsQcuJcGvfj0rgff3wYwycPVpEtvr4j3vOVLJ6vZPFZyIV3p8L4wUANgkD/4t5USZOa7bNrxeq+jh26cRbRm5PwTwxSQZIjMRfL4aO7S23bawPmDJK9NqnNm2hXy13VSlgtzmLCc5neOEeIPo0IISfWB9eieHsyiE/ur+IPD2MdHbO6UcTqRhGfuUXcujiAH0444GErVJgdyhbFxogjn6Gu1Tv/MBF5RG9MInpzEu4hPxUkOTK//eoFPrq79Np+u//yzjj+4uaZU1Mu7dpyL+QfQ7L6EbBF6A1EgZsQQgCP04q//dFZXJ00x+9+3Vi6W9IFGR9/uYw/fGvBrakBvDsVxjCXoQLdw0aSQez+PNanl/d1nOhxIHpzEtEbk7D7aRp2cnRWkkV8dHcJz5bb/12LggV/9+OzeHdq4FSVT7tabgCYyz2CZPWDZ6lpCQVuQghpmBiSMDEkYS6WwzczSXw9sw5df/1YdNWahj8+jOGPD2O4eSGMd6cGcN5RoAJtiC2pWLs/h/R8Yl/HuQa8iN6cxNDNSQh2+sAmR+sPD2P46O4SZEVvu9+FER8+vD2GM+HT+WWwXS13UcliLvsIU/5b9IaiwE0IITtNRj2YjHrw0+vD+HomiW9m1jtq4w0A38wk8c1MEhfH/Lg1FcY7/uqpLMOi6sb69DISj5b23RHSOxZuNh1h+mw4NXLybWQr+Ke7S3g4u/nafX/+3ij+6gejp7q83IIPk56rmMt91/oLd2kektWPIecEvbkocBNCyG5hnx2/uD2Gn14fxjcz6/h6Jtl2zN3tni6l8XQpjc8G3bj5VhjXwnW4hHpfl5dhGFiPGUhML+272QgAhC4MY+jmWQxeGaM3HzkW954m8E93l5Evtf+CPRxy4cPbY5ga9VGhARiTplBQMkhWWo/eYjYtCcDJS1RYFLgJIaQ1u2jBB9ei+OBaFN8+38DXM0k8XUp3dOxyooDlRAG/tLC4PB7A5Qk/3vaUwfP9MylEUXEh8WgZ69NLKG3k93185No4ojcnETg3RG82ciyeLaXx+XQcjxdf/3f9/ttD+MXtMdisFG+2m/S+jYKSRlXbPTa5osuYy36Ha6EPqKAocBNCyOu9cz6Ed86H9t3OW9Xq+HZ2A9/ObkByWHF5wo/L4wFMuXtz+nhDryOxZmD90RLWn7zY9/Ecz2Go0RGSJqshx+X7Fxl8Ph3Ho/nXd5T2ukT84vYYbl4IU8G1qpiwuDDpuYrp1Bctt29W17CYf4Jx6RIVFgVuQgjpzEHaeefLNXw+Hcfn03EM+h3N8N0LU8gXZCcS02Ztdnlz/x1DrS6bOeLIzUk4gvTzMjkes6s5fD691lE7bQB451wIH94eQ9BDE661M+AYQUHJYLkw03L7fG4akjUAvzhAhUWBmxBCOneQdt4AkEiXkUiX8buvVzAxJJnNTsa9CBnpE/MaDU1HvFGbnXy68kb3ETw/hPDlUQxcHoHgEOmNQ47F/FoOX0zHcf/7jY72FywcPrw9hh+/QzOZdlwZ4b2KvJJGVm5dxnPZ7yCFfwoLy5+6sqkbOljm8JoTUuAmhPS9g7Tz3rKwlsfCWh6//BOa7b2veSsQxeP5N5qvOpojjVTS+2/64gxJzZAtRQP0JiHHZimex+fTCXw9s97xMeeGvfjF7TGMDrqpAPeBAYNznqu4n/wUuqHt2l5QMpjLPcIF341TUyYlNY+snITA2RC2D1PgJoSQbthq551IlTG9mMLjhTRerO+v+cXjxRQeL6bwS9HSDN9XpPKhD5NX1zQkVs2RRjaere77eJbnMHB5FAOXRjBweRSgUf3IMXqxXsDn03Hce9p50I4Gnbh9JYI7V2iGxDclWQOY9F7F95n7LbevFmchWf2IOPp7RKKyWkBGTkLRZQCAotfgE0OHNhEQBe4OvxO+0YejoUOtq9DqCrS6At3QoOg1aHUVqqFAa2xTGxetuVSbb4Bu4hgLeE4Az1rBswJ4VoClsTQv1sb2rdutjfW9f1piGKZr5UXIURoMODAYcOBnt0YwF8vh8YIZvlP5zsfmrsgavnq2jq+erSMg2XDujAcTEQlnQwJ8TPc6XObKdrM2e3oZ1cz+79c7GsbAZTNk23xOOvnkWM2u5vDt8yS+eJzY19/rnctm0GZp/PcDO+M6h4KSQby02HL70/Q98CyPoK0/m+vEiguo6ZVdt2fkjUOr5abA/YZxu6KVsF5+AaUuQ9FrqOlVKLoMtW6u13QZdUM/Ua9DNzTomgYZlX0fa7M4IVrssHI2iJwDVk6EaLFDq6v0BiE9b6uT5b96f6IRvFOYXkxDrmkd30cqX0XqcRV3GyFidMCN8SEJ4xEJF5wFCPscajBbELH5fA2bz2PIr6b2/ZpEyYGByyMIXx6Ff4I6QZHjlSnI+G5uE4/mU1iMdz48Zdhnx51GjbaFY6kgu/l/z3MVhVoaJXX3+TAMA9Opu7gafB9+cbDvXrtosbUM3CUld2i13BS4O2Bg97Bia6UFrJUWTk0ZVLUSqlqp4xIjpBdxLIOrk0FcnQyiUFYawTuFZ0uZfd/X8noBy+sFfPpgFbyFxXjEnJr+3LAXE2Lr2R3TOQGp52vY/D6GQjzzRq8hfPEMwo3abIuVp5NKjtX0fArfzW/iu7lNqFrnk0sFPTbcuRLB7SsRWPtoXPyTxMqJmPRexcONP7bcrtc1PE7dxbXgB5Cs/dXPw2sNoVDLtMx3h1XLzRiG0TIdPXjwoLl+/fr1U/dG1A0N6+UXiJeX9uzNS1rjWQEeawAR58ShdkAg5KgcpL13Ky67gPGIhHPDHkTqNahrKaSer6G4/mZDD7ojvmbIdg146YSRY7W2WcJ38yk8mttEIl3e17F+t9hso02T1xyNhdxjLOQf77ldtNhxK/wvIFrsffW6U9U48rXWnefPuM+9cS33XvmZ3s2vUOsKFnLTiJUWTlyTkF4qw81qHJvVOATOilH3FEbdF6hgSM/qRnvvZi0HADGTg5JIIPlFBSXtzZpl8TYB4Ubnx9AUfbElx0tWdDxq1GQ/Wdz/sJlel7UZtB0i/TJzlCY8l6HUa1gtzrY+t1oF9zc+we3Ih2D6qI9Wu1rurLyBUJcrDClwb1NWC/h6/XdQ6woVRpcoeg2z2YdIVRO4Ef4JFQjpea3ae3+/kkWhvPf/DdYwEKhVEZQrCNSqsGtv3vch+FYUoQvDGLg8AqvbTieEHKv5tRwezaXw3dwmcqXavo/3u0W8e3EAd65E4LILVKDH5ILvBlRdxnql9Vj+FbWIe4mP8YPBv+qb18yxFritvpa13EUlB2+X23JT4N5ms7pGYfuQZOR16IYGjqG3HOmXf9Yv23treh3zsTzmYznMr+WwsJYHZxiNgF1BUK5C1LU3fqy80wlmMADfuQhc42EEQk5YbVQLSI7hczJXxWI8j6V4AYvx/L6bjGy5MhFo/v3wFuoMeRJcCd6BkvwEGTnZcntRyeGr9d/i3YGf9c1rbl/LvYmQvXujtFD62cYw6lQIh6hu1MHRaE6kD1k4Fm+NeDERcuC6A4gpeaSfx1Gv1t74PjdFOzatNmyKdlQsPFAB8N26eQHgdYkYDjkxHHIhGjaXkoNqCEl3ZYs1LMXzWIybEz/FNktvfF+DfkczZEcCDircE+h6+Cf4Mv4xSmrrjt35WhrfJP8ZN8N/3icVJ3vXcpsjloS7NusmBW5CCDmASrqIzOI60nNxbD5fg1J+8zH0d4XstkFIRrYoY3rh5ZCBbodgBvBGEB8OOeFz01TtpHPFioqleB5zsRzmY7kDBeytL6NbIfvtszSj6UnHgMGN8E/wZeJj1PTWfVSy8gamU1/gSuB2X7xmjzXYspbbgIFcbRMBW3cmWaLA/cpb7TTjGAsu+G8iaBuCVlfwovAcK8XnVLqEbKOrGjIL68gsriOzmER2OXmg+9tPyH6dQlnB06X0jmnrHSK/I4BHQy6EvDY6kQQAUK1pmIvlMLfanYC9ZWTAjauTZrORgETvt14icCJuhH+Ku4mPsMdAdlgvv4CVs+G8952ef70WlodT8KCo7B4lqqBk4RPDYJmDD01JgfuV7zOn2eXAD5vtlXhWwFu+61DrNSTKy1S65FQrxDONgG3WZKvVg/X1CL4VbV5kXsDMiwy+f5HF85UMZKW7oyOVZRXPV7J4vvLyw4S3sPC7RfglW2PZuLht8EsiDcfWh+p1A4l0GYl0GfFUubmezndvVmO7yDdD9oURHxV6D3PwbtwM/zm+Xv/9nvu8KHwPw6jjLd+Nnn+9XjHYMnAbRh25Wgo+MUyBm3QHzwotOwcMuya7FrgJ6RW1YrUZsFOzcZQ38we+z+0h2xFwv/xgA5oz6QHAUryAmZUMYhslxDZKyBblrr8+VatjPVPBeqb1rLM2q2VHADfXXwZ06uR2siUzFTNYp8tINMJ1MlM5lMeSHALGIhImhz24OhmEm0Ya6RseaxDXQh/sOTEOAKwUZ1HRingn9OMez0BWOHmp5ayb+VoaHmsQLHOw/3sUuHc4vY0eONay55uQSpecBpmlJDLzCaRm15BZSnblPvcK2e2MRdwYi7zctyyrZvjeLDVCeHHPoNwt1ZrWDPytuB3CzkDu3llDTo5GOi+3rLWu1w/v90TBwuLcGS/GIxLGIhLGB91gWfrv3q+CtiFc8r+HJ+l7e+6Tqibwp7Vf4b3BvwTP9u4XLq8Yahm464aOgmKGbgrc5MBkrYKKWoSdd+2sKamsUuGQvlROFZBuBOzU8zVoNfXA98nbrfCND8B/dnBfIbsdh8jj/Bkvzp95OYOkptd3hfDVzdKhBq3tCmUFhbKCpXjrWTedNh5OGw9HY+m0Ca9c37ldoKm7d37A1w3kSjXkSzXkSsq29Vpj3bxN049mZK2zQ9LLkD3opvN1ykSc41DrCp5nv937S7pWwmer/xfvDf4cbqE3Z7sVOBF23oWKWty1LSenIFkDB5r4hwI3aXqw8SmuBj+AS/AAADYqMSzmn1DBkL6g1VSk5+JIza5hczaOSqrQlfuVhgNmyJ4YgG98EJYjmCXPwrEYHXRjdHBnoI+nyo0QXmyG8WpNO/KyLlVVlKqdf4EReK5tIG8V2Hu2ckPRWwToncG63SRKRxKwAo7ml7yxQQl2kaLCaTfifgsA2oZuALiX+BhvB99H2N6bs996rcFdgVu02OGxBg88yyb9FZFt31DL+DLxa7gED9S6ClkrU6GQnqWrGrJLG8guJ5GaXUN2eaMr92t12eBrhGv/xACcYc+Jec2RgAORgAO3Lrzs4JPOyztC+Ea2glRORt04Od2YFVVHRtWRKXTeXp1jGXAsA5ZlwXFM8zrHsmC31rkWtzWucxyz+zaWAfvKfdXrBrR6HbpuQNPr0PTGer0OTTeg6+bS3KfVbTuPO0nlviXss2Ns0I3zZ7w4N+yFm8ZzJ3uEbq8Ywr3Eb9ru92jzTzjnvYZR94Wee42ixQHRYoesVeDg3fCKIVi57oyyQ4F7BxpHAzBnk6LSJb1GzpWRXU4iu7yBzFIShbV092o9RsPwTQzAPz4A38QAWEvv/KS+1enx1TGQ0wUZqVwVqXwVqZzcWJrXuz1SyqF8oaob0OsGAJqwrFMOG4+hgAORgBNDQSciAQeGgk5w1AabdMgt+PCT4X+Nr9Z/i7K696+Es9mHqGplXOjBEUwCtghYhu1qHzYK3ISQnlWIZ8yAvWSG7Gq21LX7tnmd8DXCtX98APYutMU+cUHcbXZ2PI/d7S1LFRWpfBWbzRD+Mpwfd3MH0pnIVrAOOBAJmkvJaaWCIQcPjiyP25EP8Sz9FWKlhT33Wy3OoqqVcMF3AzaLs2deX7dqtClwE0J6Tl3TkV3eaITrJDJLG9AVtWv3zzBMo5nIVsgePNXD6jjtPJx2flcbccBs/rEVwFsFcnK0XHYBQ8FXw7UTDFVak0M25X8Xbqsfz9Jf77lPqhrHtxt/xAXfja6MZd3TX1ToLUMIOWnkQqVZc51dTiK/mur6YzgC7mZbbN/EAGweBxV8BwSea7YVb6Uia6jIKso1c7l1vSJrKMsaKrWdt1VkFWVZO7IRN3qBaLXAbefhsgvbLjzcW+sO87rLLsBKI4aQYxR1noWNc+DBxmd77lNW8/h24w8467nSk+26KXATQvpGMZFttL9OIru0gUqm2PXH4G1WeM4EmzXZ3tEQFfwhsIsW2EULAvs8TtH0RgB/GcIrsopK7ZXALqtQtXqzI6K5/rJj4tbluPsm8hYWvIWFYOGa67yFg2BhG6HZDMzubYF6K1zTxEKkl/htg7gd+RBP0/eQq7WuHKkbOmazD5GuJjAmXTyVtd0UuAkhR0qTFeTXtre/TkKT1a4/js3jgGckBGk4AM9wENKZADie/uWdVIKFg+Dk4OlSO2O93gjhzXBuXle3B3Pt1aC+7XrjOJZjIbwSmNuu82bIJuQ0cfBuXA//FDOZbxAvLe65X1peR1pex6j7Asali7Cwp2dEHPr02aHzRm8+MQyvlWrItv6AcrXNLpYu6RdyroxCPI3CWqa5PIzaawBwhj3wjoQgnQnCMxyAe8hPJ+AUM4f146jJBSFH9TfHcLjkfw82zoGF/OO2+y4XZpCqJjAuXcSAY4QC9+nT+W+QfnEAY9JFKjIA9azeUeCmYQH7WymZexmu19IoxDNQyvKhPZ40HIBvbADSGbMG2+530UkghJBjNuG5DNFix2z2IdT63qMaldQcplNfIFWNY0y6CAfv7utyocBNCNnfFyxNRyH+MlRvLeva4Y3dzLAsfONheMfCZi32cACCQ6STQQghJ9CQcwKS1Y/F/FOsl1+03TdeXkJKTmDMfREj7vMUuAkhp49Sll+G6kazkFIyd+iPy9sEeMfC8I0NwDsWgjQcBMtRRzJCCOkVTt6DK4Hb8IsDWMw/QbXN7NWKLuN59gHSchxj7ovwiv3XZJcC9zZ2vvOfpE9TQ//XhiOus7LgqcxOtEqmuKOtdSGehpwrH8lji5IDvrEwvONmyHYNeumEEEJIHxhyTjRC91PESvNt901VE0g1RjIZd18Ex/ZPTKXAvU3YfgaXAz9ERW3fqYthWEScY1RgzT+ms9CNOtqNw+W2Uge2k6JWrKKUzDUvxWQWhbUMNPloZhC0iDykqNmpUYoG4BkJwu6j9teEENKvRIsDU/5b8NvM2u6i0v6X0qX8U6SqcQy7JhF1nqXA3Y8GHaNUCPvEswImpEtUECeMnC9vC9UvA7ZaqR3de8MmwB0NQIr6IQ0F4I764Qi46eQQQsgpFLafgV8cxGL+CZYLM233LSpZPEt/jbXSAqLOSQw5xylwE0KOTzVTQjGZ3VFrXUrmoNXUI30evN0KqRGu3Y2ATSOHEEII2RE8WR7nvNeazUyytY22++draeRraayV5hF1TSLi6M0WBhS4CekR5VRhV6guJXPQVe3In4vgEBvB+mXttc3npJNECCGkI37bIPw2s7Z7Mf8EdaPedv9cLYVcLYW14gKirrMnpkWCbuhQdBk2i4MCNyG9pLSRaxms63r9WJ6P1WVrtrfeCtk2j4NOFCGEkAMbly41a7s3q2uv3T9b20C2ttFoanL22CbOUesKcvImikoWLMth1H2BAjchJ4laqaGaLaGaLaGSKTXXy6m8OeTeMc4QZHXbd7S3lqJ+iBKFa0IIIYdHsgZwLfQBYqV5rBbnUFSyrz0mIyeRkZNm8HZNImwfPpLnKmtl5GoplNVC8za9rqGsFtpO3kOBm5AuU8o1VLNFM0hvC9Rb4fqoRgPZEwM4gxIcQQmOkGSuh8zrNJkMIYSQ4xJ1nsWQcwKx4jxipbnXjmYCAGl5HWl5HQHbIKLOSYTs0UN9jpvVOBR99yzK+VqaAjchXQ3UJdkM0NkSqpliM1Bvheuj7qy4F8Ep7gjTzsbSEZToJBJCCDmRGDAYdk2awbs0h1hxHiU1/9rjtsbwDtqGMOgYRdg+DIbp/oRpkuBv2fSlqpXaTmVPgZuQV9SK1VdCdHFH0w9d0U7Mc2VYZmeY3qqxDkrg7VY6mYQQQnoSy7A44zqPIedZxIpziJXmdzTj2MtmdQ2b1TXYLS6E7FGE7cOQrIGuPS+X4EFKTsBo0cmzUEtT4CZEkxXUilXUClXUihXIhap5vVhBrVCFnDNrreuqfuKeu9Vlaxms7TSmNSGEkD7GMRxG3G81arznESvOoaKVXntcRStiuTCD5cIMfGIYYfswQvZhWDnbgZ4Pw7BwC17kW4TrgpKBAQMMGArcpM8YBmrFaiM8V3YE6h3rheqxDJ+3HxaRh93ngj3g3tUUxCIKdK4JIYScWhaWx6j7AqLOCaw22nhXtXJHx251sJzLPWoG76Bt6I2fi1vwtQzcdaOOqlqEvUVbbgrc5ETSamojMDeC8/b17YG6WO2Z18QwDGw+F+x+J+w+V2Pd1Vh3UodFQggh5LXBW8CYNIWoqxG8i3OQ9Upn2aKuYq20iLXSIlyCByGbGb5dgmdfz0HgRIgWB+QWgb+k5ilwk+Nj6HUolRqUsgylXINals31Sg3KtkAtN5YnqZ30flhdNjNA+12w+3YGa5uXJoYhhBBCuoFnrRiXLpo13qU5xEuLHdd4A0BRyaGo5LCQf4ygbQgh+zDC9mFYWL6j4yXB1zJwK3oNal0BzwoUuMnhhWe1cZtSlqFu2+fYh8LrEk7g96yhtvtd4Hj6kyKEEEKOisCJmJAuY9Q9hWRlBcnySkcT6Gy31dFyPvcIIfsw/GIYXjG8KzRv5xAkcNU4dGN3v6+ymofHGqTATSg8t7OrhroRqu0+FwQnNfsghBBCThqO4RBxjCHiGENRyZrhu7La0cgmW2p6FavFWawWZ8ExFnjFELzWEHxiGJLVv2NfBgxcVh9y8uau+6moxV0jo1Dg7kF1TYeuaNBqaoulCq2mQa+p0BRz+eo2TVZOTXje8S3YaYPotsEq2SG67bC6ty2ll9cJIYQQ0rtcghcuwYsJzxUky2bwTlZW9nUfuqEhVY0jVY0DAGwWJ7xiCH5xAIOOUQDmmNytArfZebJEgfsobQ++u5cq9JrWXDbDsqKaAXnbtu1LQ69TwW7D261mcH5NkGZYhgqLEEIIOSUYMBhwjGDAMYKSmjeDd3kFJTW37/uqaiVUSyXES4t4nLoLjzUAv20QFpaHVt894V1ZLZ6uwG3UDbNGWNVR1zTUVR26pqOu6ubtjXVzqW3bV2+xr/Zy/ZWlue/u7eTNWUThlSBtaxmkWQtHhUUIIYSQPTl5CU5JwoR0CRuVWKPJyQrqxptVYuZqKeRqKQBmcxa7xb1jtJOaXtnRebJt4F659xwwDLg2GcAwYADm0jAAA68sDTPgvnKbYaDNsY117HGMeVDbbUbdeBl2W4Rlqg0+QQHayoO3W8HbBHNpt4K3mUurU9wVpDmBfoAhhBBCSHeF7FGE7FFMaJeRLJvNTQpK5o3vTzd0FNUsimoWsdISBE6ExxpEUcnCJ4ZfH7gBYPWrWViXa3R2CABzLGneLjSD8s7gLEDYFqLNy8t9WY6lAiSEEELIiWC3uDAmTWFMmkKqmkBGXkdGTh4ofAOAossQWGvngbtSKdPZ6NfgzLFgBA6swIG1cmAEC1iB23abpbm+tW1r+65vdo2LDAOAbF6qMC9pKmtCCCGE9AYeQXgsbqh8pXkxmP21lrDAbEbCMWb7bgvL7x24BwcHkfYGYDiKVPonBcuAtbBgeA4Mby53XLeYS/Y11xmeow6EhBBCCCEtcJoVnGaFWPUCABRrsRm+da796G7+sBcSE8bFwRuIuka2hfA9RCIRrHv90JxZKvmDYBiwWyF3Wzhmt4ffRhjeuV+LoExNMgghhBBCjpRQc0GouQAAOqdCEYpQhRJUvrprX1/Ig0nLFZwZGtlxe9smJS6XC+u9kGk5FixnhthWS8Zi1gSzXOsl8+rt7ba9euwej9l8bArJhBBCCCF9KVVNYKOyio3KKpS62edxbGhyd1Y1jMbwIi3M/e4hGJYBwzBgWNZcb1zHK9fNdfaV6wwYhgV27WfevrWOPW7fvj9Y9pXjXz4eIYQQQgghx6mmy9iorGDYdW5/gZsQQgghhBByMP8fpoX1xO2qyhYAAAAASUVORK5CYII=;" parent="1" vertex="1">
          <mxGeometry x="650" y="240" width="239.5" height="160" as="geometry" />
        </mxCell>
        <mxCell id="aU6csepm1-b9UIz-VRzS-171" value="" style="group" parent="1" vertex="1" connectable="0">
          <mxGeometry x="667.7606812718994" y="10" width="302.23931872810056" height="160" as="geometry" />
        </mxCell>
        <mxCell id="aU6csepm1-b9UIz-VRzS-152" value="" style="endArrow=none;html=1;rounded=0;opacity=20;" parent="aU6csepm1-b9UIz-VRzS-171" edge="1">
          <mxGeometry width="50" height="50" relative="1" as="geometry">
            <mxPoint x="2.5193187281005294" as="sourcePoint" />
            <mxPoint x="242.51931872810053" as="targetPoint" />
          </mxGeometry>
        </mxCell>
        <mxCell id="aU6csepm1-b9UIz-VRzS-153" value="" style="endArrow=none;html=1;rounded=0;opacity=20;" parent="aU6csepm1-b9UIz-VRzS-171" edge="1">
          <mxGeometry width="50" height="50" relative="1" as="geometry">
            <mxPoint x="2.5193187281005294" y="160" as="sourcePoint" />
            <mxPoint x="242.51931872810053" y="160" as="targetPoint" />
          </mxGeometry>
        </mxCell>
        <mxCell id="aU6csepm1-b9UIz-VRzS-117" value="" style="endArrow=none;html=1;rounded=0;curved=1;strokeColor=#6C8EBF;strokeWidth=2;" parent="aU6csepm1-b9UIz-VRzS-171" edge="1">
          <mxGeometry width="50" height="50" relative="1" as="geometry">
            <mxPoint x="242.23931872810056" y="80" as="sourcePoint" />
            <mxPoint x="122.23931872810056" as="targetPoint" />
            <Array as="points">
              <mxPoint x="202.23931872810056" y="70" />
              <mxPoint x="202.23931872810056" y="150" />
              <mxPoint x="102.23931872810056" y="150" />
              <mxPoint x="62.23931872810056" y="100" />
              <mxPoint x="112.23931872810056" y="60" />
            </Array>
          </mxGeometry>
        </mxCell>
        <mxCell id="aU6csepm1-b9UIz-VRzS-116" value="" style="endArrow=none;html=1;rounded=0;curved=1;strokeColor=#B5739D;strokeWidth=2;" parent="aU6csepm1-b9UIz-VRzS-171" edge="1">
          <mxGeometry width="50" height="50" relative="1" as="geometry">
            <mxPoint x="2.5193187281005294" y="160" as="sourcePoint" />
            <mxPoint x="42.23931872810056" as="targetPoint" />
            <Array as="points">
              <mxPoint x="142.23931872810056" y="160" />
              <mxPoint x="192.23931872810056" y="60" />
              <mxPoint x="72.23931872810056" y="40" />
            </Array>
          </mxGeometry>
        </mxCell>
        <mxCell id="aU6csepm1-b9UIz-VRzS-115" value="" style="endArrow=none;html=1;rounded=0;curved=1;strokeColor=#B9E0A5;strokeWidth=2;" parent="aU6csepm1-b9UIz-VRzS-171" edge="1">
          <mxGeometry width="50" height="50" relative="1" as="geometry">
            <mxPoint x="242.51931872810053" y="160" as="sourcePoint" />
            <mxPoint x="2.5193187281005294" y="80" as="targetPoint" />
            <Array as="points">
              <mxPoint x="202.23931872810056" y="150" />
              <mxPoint x="212.23931872810056" y="70" />
              <mxPoint x="102.51931872810053" y="120" />
              <mxPoint x="62.23931872810056" y="40" />
            </Array>
          </mxGeometry>
        </mxCell>
        <mxCell id="aU6csepm1-b9UIz-VRzS-111" value="" style="endArrow=none;html=1;rounded=0;curved=1;strokeColor=#B5739D;strokeWidth=2;opacity=50;dashed=1;" parent="aU6csepm1-b9UIz-VRzS-171" edge="1">
          <mxGeometry width="50" height="50" relative="1" as="geometry">
            <mxPoint x="2.5193187281005294" y="160" as="sourcePoint" />
            <mxPoint x="42.23931872810056" as="targetPoint" />
            <Array as="points">
              <mxPoint x="302.23931872810056" y="100" />
            </Array>
          </mxGeometry>
        </mxCell>
        <mxCell id="aU6csepm1-b9UIz-VRzS-85" value="" style="group" parent="aU6csepm1-b9UIz-VRzS-171" vertex="1" connectable="0">
          <mxGeometry x="12.239318728100557" y="10" width="29.19" height="40" as="geometry" />
        </mxCell>
        <mxCell id="aU6csepm1-b9UIz-VRzS-86" value="" style="sketch=0;aspect=fixed;pointerEvents=1;shadow=0;dashed=0;html=1;strokeColor=none;labelPosition=center;verticalLabelPosition=bottom;verticalAlign=top;align=center;fillColor=#B5739D;shape=mxgraph.mscae.enterprise.wireless_connection" parent="aU6csepm1-b9UIz-VRzS-85" vertex="1">
          <mxGeometry x="5.513666666666691" width="18.162162162162165" height="21.62162162162162" as="geometry" />
        </mxCell>
        <mxCell id="aU6csepm1-b9UIz-VRzS-87" value="" style="sketch=0;pointerEvents=1;shadow=0;dashed=0;html=1;strokeColor=none;fillColor=#B5739D;labelPosition=center;verticalLabelPosition=bottom;verticalAlign=top;outlineConnect=0;align=center;shape=mxgraph.office.devices.modem;" parent="aU6csepm1-b9UIz-VRzS-85" vertex="1">
          <mxGeometry y="21.62162162162162" width="29.19" height="18.37837837837838" as="geometry" />
        </mxCell>
        <mxCell id="aU6csepm1-b9UIz-VRzS-94" value="" style="group" parent="aU6csepm1-b9UIz-VRzS-171" vertex="1" connectable="0">
          <mxGeometry x="22.519318728100643" y="113" width="29.19" height="40" as="geometry" />
        </mxCell>
        <mxCell id="aU6csepm1-b9UIz-VRzS-95" value="" style="sketch=0;aspect=fixed;pointerEvents=1;shadow=0;dashed=0;html=1;strokeColor=none;labelPosition=center;verticalLabelPosition=bottom;verticalAlign=top;align=center;fillColor=#B9E0A5;shape=mxgraph.mscae.enterprise.wireless_connection" parent="aU6csepm1-b9UIz-VRzS-94" vertex="1">
          <mxGeometry x="5.513666666666691" width="18.162162162162165" height="21.62162162162162" as="geometry" />
        </mxCell>
        <mxCell id="aU6csepm1-b9UIz-VRzS-96" value="" style="sketch=0;pointerEvents=1;shadow=0;dashed=0;html=1;strokeColor=none;fillColor=#B9E0A5;labelPosition=center;verticalLabelPosition=bottom;verticalAlign=top;outlineConnect=0;align=center;shape=mxgraph.office.devices.modem;" parent="aU6csepm1-b9UIz-VRzS-94" vertex="1">
          <mxGeometry y="21.62162162162162" width="29.19" height="18.37837837837838" as="geometry" />
        </mxCell>
        <mxCell id="aU6csepm1-b9UIz-VRzS-97" value="" style="group" parent="aU6csepm1-b9UIz-VRzS-171" vertex="1" connectable="0">
          <mxGeometry x="202.23931872810056" y="10" width="29.19" height="40" as="geometry" />
        </mxCell>
        <mxCell id="aU6csepm1-b9UIz-VRzS-98" value="" style="sketch=0;aspect=fixed;pointerEvents=1;shadow=0;dashed=0;html=1;strokeColor=none;labelPosition=center;verticalLabelPosition=bottom;verticalAlign=top;align=center;fillColor=#6C8EBF;shape=mxgraph.mscae.enterprise.wireless_connection" parent="aU6csepm1-b9UIz-VRzS-97" vertex="1">
          <mxGeometry x="5.513666666666691" width="18.162162162162165" height="21.62162162162162" as="geometry" />
        </mxCell>
        <mxCell id="aU6csepm1-b9UIz-VRzS-99" value="" style="sketch=0;pointerEvents=1;shadow=0;dashed=0;html=1;strokeColor=none;fillColor=#6C8EBF;labelPosition=center;verticalLabelPosition=bottom;verticalAlign=top;outlineConnect=0;align=center;shape=mxgraph.office.devices.modem;" parent="aU6csepm1-b9UIz-VRzS-97" vertex="1">
          <mxGeometry y="21.62162162162162" width="29.19" height="18.37837837837838" as="geometry" />
        </mxCell>
        <mxCell id="aU6csepm1-b9UIz-VRzS-110" value="" style="endArrow=none;html=1;rounded=0;curved=1;strokeColor=#B9E0A5;strokeWidth=2;opacity=50;dashed=1;" parent="aU6csepm1-b9UIz-VRzS-171" edge="1">
          <mxGeometry width="50" height="50" relative="1" as="geometry">
            <mxPoint x="242.51931872810053" y="160" as="sourcePoint" />
            <mxPoint x="2.5193187281005294" y="100" as="targetPoint" />
            <Array as="points">
              <mxPoint x="192.51931872810053" y="30" />
            </Array>
          </mxGeometry>
        </mxCell>
        <mxCell id="aU6csepm1-b9UIz-VRzS-112" value="" style="endArrow=none;html=1;rounded=0;curved=1;strokeColor=#6C8EBF;strokeWidth=2;opacity=50;dashed=1;" parent="aU6csepm1-b9UIz-VRzS-171" edge="1">
          <mxGeometry width="50" height="50" relative="1" as="geometry">
            <mxPoint x="242.23931872810056" y="80" as="sourcePoint" />
            <mxPoint x="122.23931872810056" as="targetPoint" />
            <Array as="points">
              <mxPoint x="82.51931872810053" y="160" />
            </Array>
          </mxGeometry>
        </mxCell>
        <mxCell id="aU6csepm1-b9UIz-VRzS-88" value="" style="group" parent="aU6csepm1-b9UIz-VRzS-171" vertex="1" connectable="0">
          <mxGeometry x="132.23931872810056" width="45.860000000000014" height="110" as="geometry" />
        </mxCell>
        <mxCell id="aU6csepm1-b9UIz-VRzS-89" value="" style="shape=mxgraph.signs.people.man_1;html=1;pointerEvents=1;fillColor=#000000;strokeColor=none;verticalLabelPosition=bottom;verticalAlign=top;align=center;" parent="aU6csepm1-b9UIz-VRzS-88" vertex="1">
          <mxGeometry width="37" height="98" as="geometry" />
        </mxCell>
        <mxCell id="aU6csepm1-b9UIz-VRzS-90" value="" style="sketch=0;pointerEvents=1;shadow=0;dashed=0;html=1;strokeColor=none;fillColor=#000000;labelPosition=center;verticalLabelPosition=bottom;verticalAlign=top;outlineConnect=0;align=center;shape=mxgraph.office.devices.cell_phone_iphone_proportional;rotation=40;" parent="aU6csepm1-b9UIz-VRzS-88" vertex="1">
          <mxGeometry x="37" y="44" width="5.86" height="10" as="geometry" />
        </mxCell>
        <mxCell id="aU6csepm1-b9UIz-VRzS-91" value="" style="group" parent="aU6csepm1-b9UIz-VRzS-88" vertex="1" connectable="0">
          <mxGeometry x="11" y="89" width="15" height="15" as="geometry" />
        </mxCell>
        <mxCell id="aU6csepm1-b9UIz-VRzS-92" value="" style="endArrow=none;html=1;rounded=0;strokeColor=#CC0000;strokeWidth=2;" parent="aU6csepm1-b9UIz-VRzS-91" edge="1">
          <mxGeometry width="50" height="50" relative="1" as="geometry">
            <mxPoint y="15" as="sourcePoint" />
            <mxPoint x="15" as="targetPoint" />
          </mxGeometry>
        </mxCell>
        <mxCell id="aU6csepm1-b9UIz-VRzS-93" value="" style="endArrow=none;html=1;rounded=0;strokeColor=#CC0000;strokeWidth=2;" parent="aU6csepm1-b9UIz-VRzS-91" edge="1">
          <mxGeometry width="50" height="50" relative="1" as="geometry">
            <mxPoint x="15" y="15" as="sourcePoint" />
            <mxPoint as="targetPoint" />
          </mxGeometry>
        </mxCell>
        <mxCell id="aU6csepm1-b9UIz-VRzS-118" value="" style="endArrow=classic;html=1;rounded=0;opacity=50;strokeColor=#B9E0A5;" parent="aU6csepm1-b9UIz-VRzS-171" edge="1">
          <mxGeometry width="50" height="50" relative="1" as="geometry">
            <mxPoint x="50.51931872810053" y="86" as="sourcePoint" />
            <mxPoint x="60.51931872810053" y="61" as="targetPoint" />
          </mxGeometry>
        </mxCell>
        <mxCell id="aU6csepm1-b9UIz-VRzS-119" value="&lt;font color=&quot;#b9e0a5&quot;&gt;multipath!&lt;/font&gt;" style="text;html=1;align=center;verticalAlign=middle;resizable=0;points=[];autosize=1;strokeColor=none;fillColor=none;rotation=-15;" parent="aU6csepm1-b9UIz-VRzS-171" vertex="1">
          <mxGeometry x="2.5193187281005294" y="80" width="80" height="30" as="geometry" />
        </mxCell>
        <mxCell id="aU6csepm1-b9UIz-VRzS-120" value="" style="endArrow=classic;html=1;rounded=0;opacity=50;strokeColor=#B9E0A5;" parent="aU6csepm1-b9UIz-VRzS-171" edge="1">
          <mxGeometry width="50" height="50" relative="1" as="geometry">
            <mxPoint x="39.00931872810054" y="87" as="sourcePoint" />
            <mxPoint x="40.00931872810054" y="61" as="targetPoint" />
          </mxGeometry>
        </mxCell>
        <mxCell id="aU6csepm1-b9UIz-VRzS-122" value="" style="endArrow=classic;html=1;rounded=0;opacity=50;strokeColor=#B9E0A5;" parent="aU6csepm1-b9UIz-VRzS-171" edge="1">
          <mxGeometry width="50" height="50" relative="1" as="geometry">
            <mxPoint x="22.51931872810053" y="90" as="sourcePoint" />
            <mxPoint x="17.51931872810053" y="70" as="targetPoint" />
          </mxGeometry>
        </mxCell>
        <mxCell id="aU6csepm1-b9UIz-VRzS-150" value="" style="endArrow=none;html=1;rounded=0;opacity=20;" parent="aU6csepm1-b9UIz-VRzS-171" edge="1">
          <mxGeometry width="50" height="50" relative="1" as="geometry">
            <mxPoint x="242.51931872810053" y="160" as="sourcePoint" />
            <mxPoint x="242.51931872810053" as="targetPoint" />
          </mxGeometry>
        </mxCell>
        <mxCell id="aU6csepm1-b9UIz-VRzS-151" value="" style="endArrow=none;html=1;rounded=0;opacity=20;" parent="aU6csepm1-b9UIz-VRzS-171" edge="1">
          <mxGeometry width="50" height="50" relative="1" as="geometry">
            <mxPoint x="2.5193187281005294" y="160" as="sourcePoint" />
            <mxPoint x="2.5193187281005294" as="targetPoint" />
          </mxGeometry>
        </mxCell>
      </root>
    </mxGraphModel>
  </diagram>
  <diagram id="nHQ5EzBGJtdSQyMP_zEP" name="expregion">
    <mxGraphModel dx="561" dy="345" grid="1" gridSize="10" guides="1" tooltips="1" connect="1" arrows="1" fold="1" page="1" pageScale="1" pageWidth="1169" pageHeight="827" math="0" shadow="0">
      <root>
        <mxCell id="0" />
        <mxCell id="1" parent="0" />
        <mxCell id="RgzHMlqDST1EkxmDKi_h-27" value="" style="rounded=1;whiteSpace=wrap;html=1;fillColor=#d5e8d4;strokeColor=none;arcSize=3;" vertex="1" parent="1">
          <mxGeometry x="430" y="267" width="120" height="113" as="geometry" />
        </mxCell>
        <mxCell id="RgzHMlqDST1EkxmDKi_h-2" value="" style="group" vertex="1" connectable="0" parent="1">
          <mxGeometry x="430" y="250" width="14.6" height="20" as="geometry" />
        </mxCell>
        <mxCell id="RgzHMlqDST1EkxmDKi_h-3" value="" style="sketch=0;aspect=fixed;pointerEvents=1;shadow=0;dashed=0;html=1;strokeColor=none;labelPosition=center;verticalLabelPosition=bottom;verticalAlign=top;align=center;fillColor=#000000;shape=mxgraph.mscae.enterprise.wireless_connection" vertex="1" parent="RgzHMlqDST1EkxmDKi_h-2">
          <mxGeometry x="2.7577777777777897" width="9.081081081081082" height="10.81081081081081" as="geometry" />
        </mxCell>
        <mxCell id="RgzHMlqDST1EkxmDKi_h-4" value="" style="sketch=0;pointerEvents=1;shadow=0;dashed=0;html=1;strokeColor=none;fillColor=#000000;labelPosition=center;verticalLabelPosition=bottom;verticalAlign=top;outlineConnect=0;align=center;shape=mxgraph.office.devices.modem;" vertex="1" parent="RgzHMlqDST1EkxmDKi_h-2">
          <mxGeometry y="10.81081081081081" width="14.6" height="9.18918918918919" as="geometry" />
        </mxCell>
        <mxCell id="RgzHMlqDST1EkxmDKi_h-17" value="" style="endArrow=none;html=1;rounded=0;opacity=20;" edge="1" parent="1">
          <mxGeometry width="50" height="50" relative="1" as="geometry">
            <mxPoint x="400" y="240" as="sourcePoint" />
            <mxPoint x="660" y="240" as="targetPoint" />
          </mxGeometry>
        </mxCell>
        <mxCell id="RgzHMlqDST1EkxmDKi_h-19" value="" style="endArrow=none;html=1;rounded=0;opacity=20;" edge="1" parent="1">
          <mxGeometry width="50" height="50" relative="1" as="geometry">
            <mxPoint x="400" y="400" as="sourcePoint" />
            <mxPoint x="660" y="400" as="targetPoint" />
          </mxGeometry>
        </mxCell>
        <mxCell id="RgzHMlqDST1EkxmDKi_h-22" value="" style="endArrow=none;html=1;rounded=0;opacity=20;" edge="1" parent="1">
          <mxGeometry width="50" height="50" relative="1" as="geometry">
            <mxPoint x="660" y="400" as="sourcePoint" />
            <mxPoint x="660" y="240" as="targetPoint" />
          </mxGeometry>
        </mxCell>
        <mxCell id="RgzHMlqDST1EkxmDKi_h-25" value="" style="endArrow=none;html=1;rounded=0;opacity=20;" edge="1" parent="1">
          <mxGeometry width="50" height="50" relative="1" as="geometry">
            <mxPoint x="400" y="400" as="sourcePoint" />
            <mxPoint x="400" y="240" as="targetPoint" />
          </mxGeometry>
        </mxCell>
        <mxCell id="RgzHMlqDST1EkxmDKi_h-6" value="" style="shape=mxgraph.signs.people.man_1;html=1;pointerEvents=1;fillColor=#000000;strokeColor=none;verticalLabelPosition=bottom;verticalAlign=top;align=center;" vertex="1" parent="1">
          <mxGeometry x="482.45" y="300" width="15.1" height="40" as="geometry" />
        </mxCell>
        <mxCell id="RgzHMlqDST1EkxmDKi_h-26" value="" style="shape=mxgraph.signs.people.man_1;html=1;pointerEvents=1;fillColor=#000000;strokeColor=none;verticalLabelPosition=bottom;verticalAlign=top;align=center;opacity=30;" vertex="1" parent="1">
          <mxGeometry x="504.90000000000003" y="328" width="15.1" height="40" as="geometry" />
        </mxCell>
        <mxCell id="RgzHMlqDST1EkxmDKi_h-28" value="" style="group" vertex="1" connectable="0" parent="1">
          <mxGeometry x="430" y="361" width="14.6" height="20" as="geometry" />
        </mxCell>
        <mxCell id="RgzHMlqDST1EkxmDKi_h-29" value="" style="sketch=0;aspect=fixed;pointerEvents=1;shadow=0;dashed=0;html=1;strokeColor=none;labelPosition=center;verticalLabelPosition=bottom;verticalAlign=top;align=center;fillColor=#000000;shape=mxgraph.mscae.enterprise.wireless_connection" vertex="1" parent="RgzHMlqDST1EkxmDKi_h-28">
          <mxGeometry x="2.7577777777777897" width="9.081081081081082" height="10.81081081081081" as="geometry" />
        </mxCell>
        <mxCell id="RgzHMlqDST1EkxmDKi_h-30" value="" style="sketch=0;pointerEvents=1;shadow=0;dashed=0;html=1;strokeColor=none;fillColor=#000000;labelPosition=center;verticalLabelPosition=bottom;verticalAlign=top;outlineConnect=0;align=center;shape=mxgraph.office.devices.modem;" vertex="1" parent="RgzHMlqDST1EkxmDKi_h-28">
          <mxGeometry y="10.81081081081081" width="14.6" height="9.18918918918919" as="geometry" />
        </mxCell>
        <mxCell id="RgzHMlqDST1EkxmDKi_h-31" value="(0m, 0m)" style="text;html=1;align=center;verticalAlign=middle;resizable=0;points=[];autosize=1;strokeColor=none;fillColor=none;" vertex="1" parent="1">
          <mxGeometry x="402.3" y="263" width="70" height="30" as="geometry" />
        </mxCell>
        <mxCell id="RgzHMlqDST1EkxmDKi_h-32" value="(0m, 4m)" style="text;html=1;align=center;verticalAlign=middle;resizable=0;points=[];autosize=1;strokeColor=none;fillColor=none;" vertex="1" parent="1">
          <mxGeometry x="402.3" y="374" width="70" height="30" as="geometry" />
        </mxCell>
        <mxCell id="RgzHMlqDST1EkxmDKi_h-37" value="" style="shape=mxgraph.signs.people.man_1;html=1;pointerEvents=1;fillColor=#000000;strokeColor=none;verticalLabelPosition=bottom;verticalAlign=top;align=center;opacity=40;" vertex="1" parent="1">
          <mxGeometry x="520" y="270" width="15.1" height="40" as="geometry" />
        </mxCell>
        <mxCell id="RgzHMlqDST1EkxmDKi_h-38" value="" style="shape=mxgraph.signs.people.man_1;html=1;pointerEvents=1;fillColor=#000000;strokeColor=none;verticalLabelPosition=bottom;verticalAlign=top;align=center;opacity=20;" vertex="1" parent="1">
          <mxGeometry x="444.6000000000001" y="303.5" width="15.1" height="40" as="geometry" />
        </mxCell>
        <mxCell id="RgzHMlqDST1EkxmDKi_h-39" value="" style="curved=1;endArrow=none;html=1;rounded=0;dashed=1;endFill=0;opacity=30;entryX=0.848;entryY=0.953;entryDx=0;entryDy=0;entryPerimeter=0;" edge="1" parent="1" source="RgzHMlqDST1EkxmDKi_h-6" target="RgzHMlqDST1EkxmDKi_h-31">
          <mxGeometry width="50" height="50" relative="1" as="geometry">
            <mxPoint x="454.9" y="320" as="sourcePoint" />
            <mxPoint x="504.9" y="270" as="targetPoint" />
            <Array as="points">
              <mxPoint x="504.9" y="320" />
              <mxPoint x="540" y="280" />
              <mxPoint x="505" y="390" />
              <mxPoint x="440" y="350" />
            </Array>
          </mxGeometry>
        </mxCell>
        <mxCell id="RgzHMlqDST1EkxmDKi_h-41" value="" style="rounded=1;whiteSpace=wrap;html=1;fillColor=#f8cecc;strokeColor=#b85450;dashed=1;arcSize=5;" vertex="1" parent="1">
          <mxGeometry x="550" y="267" width="90" height="113" as="geometry" />
        </mxCell>
        <mxCell id="RgzHMlqDST1EkxmDKi_h-33" value="" style="group" vertex="1" connectable="0" parent="1">
          <mxGeometry x="620" y="340" width="14.6" height="20" as="geometry" />
        </mxCell>
        <mxCell id="RgzHMlqDST1EkxmDKi_h-34" value="" style="sketch=0;aspect=fixed;pointerEvents=1;shadow=0;dashed=0;html=1;strokeColor=none;labelPosition=center;verticalLabelPosition=bottom;verticalAlign=top;align=center;fillColor=#000000;shape=mxgraph.mscae.enterprise.wireless_connection" vertex="1" parent="RgzHMlqDST1EkxmDKi_h-33">
          <mxGeometry x="2.7577777777777897" width="9.081081081081082" height="10.81081081081081" as="geometry" />
        </mxCell>
        <mxCell id="RgzHMlqDST1EkxmDKi_h-35" value="" style="sketch=0;pointerEvents=1;shadow=0;dashed=0;html=1;strokeColor=none;fillColor=#000000;labelPosition=center;verticalLabelPosition=bottom;verticalAlign=top;outlineConnect=0;align=center;shape=mxgraph.office.devices.modem;" vertex="1" parent="RgzHMlqDST1EkxmDKi_h-33">
          <mxGeometry y="10.81081081081081" width="14.6" height="9.18918918918919" as="geometry" />
        </mxCell>
        <mxCell id="RgzHMlqDST1EkxmDKi_h-36" value="(3m, 8m)" style="text;html=1;align=center;verticalAlign=middle;resizable=0;points=[];autosize=1;strokeColor=none;fillColor=none;" vertex="1" parent="1">
          <mxGeometry x="594.3" y="353" width="70" height="30" as="geometry" />
        </mxCell>
        <mxCell id="RgzHMlqDST1EkxmDKi_h-42" value="&lt;font color=&quot;#cc0000&quot;&gt;no data&lt;br&gt;from this&lt;br&gt;region&lt;/font&gt;" style="text;html=1;align=center;verticalAlign=middle;resizable=0;points=[];autosize=1;strokeColor=none;fillColor=none;" vertex="1" parent="1">
          <mxGeometry x="545" y="314" width="70" height="60" as="geometry" />
        </mxCell>
        <mxCell id="RgzHMlqDST1EkxmDKi_h-48" value="" style="group" vertex="1" connectable="0" parent="1">
          <mxGeometry x="582.3" y="260" width="60" height="60" as="geometry" />
        </mxCell>
        <mxCell id="RgzHMlqDST1EkxmDKi_h-43" value="" style="endArrow=classic;html=1;rounded=0;strokeColor=#919191;" edge="1" parent="RgzHMlqDST1EkxmDKi_h-48">
          <mxGeometry width="50" height="50" relative="1" as="geometry">
            <mxPoint x="14.899999999999977" y="45" as="sourcePoint" />
            <mxPoint x="34.89999999999998" y="45" as="targetPoint" />
          </mxGeometry>
        </mxCell>
        <mxCell id="RgzHMlqDST1EkxmDKi_h-44" value="" style="endArrow=classic;html=1;rounded=0;strokeColor=#919191;" edge="1" parent="RgzHMlqDST1EkxmDKi_h-48">
          <mxGeometry width="50" height="50" relative="1" as="geometry">
            <mxPoint x="14.899999999999977" y="45" as="sourcePoint" />
            <mxPoint x="14.899999999999977" y="25" as="targetPoint" />
          </mxGeometry>
        </mxCell>
        <mxCell id="RgzHMlqDST1EkxmDKi_h-46" value="&lt;font color=&quot;#919191&quot;&gt;x&lt;/font&gt;" style="text;html=1;align=center;verticalAlign=middle;resizable=0;points=[];autosize=1;strokeColor=none;fillColor=none;" vertex="1" parent="RgzHMlqDST1EkxmDKi_h-48">
          <mxGeometry x="30" y="30" width="30" height="30" as="geometry" />
        </mxCell>
        <mxCell id="RgzHMlqDST1EkxmDKi_h-47" value="&lt;font color=&quot;#919191&quot;&gt;y&lt;/font&gt;" style="text;html=1;align=center;verticalAlign=middle;resizable=0;points=[];autosize=1;strokeColor=none;fillColor=none;" vertex="1" parent="RgzHMlqDST1EkxmDKi_h-48">
          <mxGeometry width="30" height="30" as="geometry" />
        </mxCell>
      </root>
    </mxGraphModel>
  </diagram>
</mxfile>
